<?xml version="1.0" encoding="iso-8859-1"?>
<!-- Generator: Adobe Illustrator 19.0.0, SVG Export Plug-In . SVG Version: 6.00 Build 0)  -->
<svg version="1.1" id="Layer_1" xmlns="http://www.w3.org/2000/svg" xmlns:xlink="http://www.w3.org/1999/xlink" x="0px" y="0px"
	 viewBox="0 0 512.001 512.001" style="enable-background:new 0 0 512.001 512.001;" xml:space="preserve">
<circle style="fill:#FDDF6D;" cx="256.001" cy="241.211" r="241.211"/>
<path style="fill:#FCC56B;" d="M307.696,446.811c-133.217,0-241.21-107.993-241.21-241.21c0-71.173,30.832-135.136,79.86-179.287
	C68.256,66.241,14.796,147.482,14.796,241.21c0,133.217,107.993,241.21,241.21,241.21c62.044,0,118.61-23.433,161.349-61.921
	C384.455,437.32,347.183,446.811,307.696,446.811z"/>
<path style="fill:#7F184C;" d="M306.553,259.557L306.553,259.557c52.064,0,94.271,42.207,94.271,94.271V382.5H212.283v-28.673
	C212.283,301.763,254.488,259.557,306.553,259.557z"/>
<path style="fill:#F2F2F2;" d="M249.961,293.399H370.03c2.428,0,4.67-1.015,6.507-2.723c-17.252-19.107-42.213-31.12-69.985-31.12
	l0,0c-25.737,0-49.053,10.324-66.065,27.045C242.481,290.684,245.975,293.399,249.961,293.399z"/>
<path style="fill:#FC4C59;" d="M360.098,349.463H291.49l-19.848,0.114c-13.25,0.636-29.743,4.401-29.743,32.925
	c17.552-0.093,13.566,0.007,26.917-0.356c9.39-0.255,22.673,14.211,22.673,23.099v51.967c0,30.26,24.531,54.789,54.789,54.789l0,0
	c30.26,0,54.789-24.531,54.789-54.789v-66.776C401.071,367.806,382.727,349.463,360.098,349.463z"/>
<path style="fill:#BC3B4A;" d="M346.067,489.989c-5.421,0-9.813-4.392-9.813-9.813v-93.24c0-1.161-2.827-3.966-4.817-5.067
	c-4.742-2.623-6.459-8.595-3.836-13.336c2.623-4.743,8.597-6.459,13.336-3.836c1.529,0.845,14.942,8.659,14.942,22.24v93.24
	C355.88,485.597,351.488,489.989,346.067,489.989z"/>
<g>
	<path style="fill:#7F184C;" d="M191.582,206.568c-2.511,0-5.023-0.958-6.94-2.873c-3.832-3.834-3.832-10.046,0-13.878
		l51.193-51.193c3.834-3.831,10.046-3.831,13.878,0c3.832,3.834,3.832,10.046,0,13.878l-51.193,51.193
		C196.605,205.609,194.093,206.568,191.582,206.568z"/>
	<path style="fill:#7F184C;" d="M242.774,206.568c-2.511,0-5.023-0.958-6.94-2.873l-51.193-51.193
		c-3.832-3.834-3.832-10.046,0-13.878c3.834-3.831,10.046-3.831,13.878,0l51.193,51.193c3.832,3.834,3.832,10.046,0,13.878
		C247.797,205.609,245.285,206.568,242.774,206.568z"/>
	<path style="fill:#7F184C;" d="M428.563,206.568c-2.511,0-5.023-0.958-6.94-2.873l-51.193-51.193
		c-3.832-3.834-3.832-10.046,0-13.878c3.834-3.831,10.046-3.831,13.878,0l51.193,51.193c3.832,3.834,3.832,10.046,0,13.878
		C433.586,205.609,431.073,206.568,428.563,206.568z"/>
	<path style="fill:#7F184C;" d="M377.37,206.568c-2.511,0-5.023-0.958-6.94-2.873c-3.832-3.834-3.832-10.046,0-13.878l51.193-51.193
		c3.834-3.831,10.046-3.831,13.878,0c3.832,3.834,3.832,10.046,0,13.878l-51.193,51.193
		C382.393,205.609,379.881,206.568,377.37,206.568z"/>
</g>
<ellipse transform="matrix(0.2723 -0.9622 0.9622 0.2723 150.702 352.6603)" style="fill:#FCEB88;" cx="308.507" cy="76.696" rx="28.13" ry="50.372"/>
<g>
</g>
<g>
</g>
<g>
</g>
<g>
</g>
<g>
</g>
<g>
</g>
<g>
</g>
<g>
</g>
<g>
</g>
<g>
</g>
<g>
</g>
<g>
</g>
<g>
</g>
<g>
</g>
<g>
</g>
</svg>
