<?xml version="1.0" encoding="UTF-8"?>
<svg xmlns="http://www.w3.org/2000/svg" xmlns:xlink="http://www.w3.org/1999/xlink" width="1068px" height="600px" viewBox="0 0 1066 600" version="1.1">
<g id="surface1">
<path style=" stroke:none;fill-rule:nonzero;fill:rgb(0%,0%,0%);fill-opacity:1;" d="M 415.253906 166.609375 C 415.328125 165.3125 415.160156 164.324219 415.523438 163.605469 C 422.152344 150.511719 427.632812 136.285156 442.617188 130.183594 C 456.714844 124.445312 470.851562 125.316406 484.347656 132.34375 C 499.253906 140.109375 506.558594 157.484375 502.070312 173.496094 C 500.96875 177.425781 499.496094 181.601562 496.011719 183.53125 C 489.753906 186.996094 486.082031 192.964844 480.886719 197.390625 C 479.9375 198.199219 479.617188 199.003906 480.003906 200.074219 C 481.8125 205.074219 479.613281 209.167969 477.230469 213.304688 C 475.15625 216.902344 474.125 220.648438 477.128906 224.277344 C 470.570312 230.390625 442.132812 230.628906 433.492188 224.539062 C 437.652344 220.84375 436.324219 213.980469 441.792969 210.917969 C 443.082031 210.195312 442.351562 208.734375 442.015625 207.578125 C 441.199219 204.765625 440.398438 201.945312 439.5 198.8125 C 435.644531 199.789062 431.726562 201.09375 428.375 197.734375 C 427.097656 196.457031 426.039062 195.132812 426.417969 193.183594 C 426.828125 191.085938 428.410156 191.160156 430.050781 191.207031 C 432.230469 191.273438 433.023438 189.808594 433.460938 187.496094 C 424.964844 183.015625 416.230469 178.398438 415.253906 166.609375 M 471.613281 195.214844 C 470.816406 190.511719 473.101562 187.566406 478.046875 187.125 C 494.863281 185.617188 501.417969 174.175781 498.832031 158.804688 C 496.0625 142.34375 484.945312 134.285156 469.527344 131.253906 C 452.152344 127.832031 433.492188 134.476562 426.632812 151.5 C 425.679688 153.859375 423.964844 155.941406 422.449219 158.042969 C 417.949219 164.285156 418.460938 171.667969 424.160156 176.769531 C 428.722656 180.851562 433.882812 184.003906 440.046875 185.1875 C 441.816406 185.527344 444 185.375 444.40625 187.941406 C 442.921875 191.03125 439.644531 188.0625 437.925781 189.910156 C 436.375 191.578125 435.011719 193.425781 433.425781 195.367188 C 438.0625 196.566406 438.65625 192 441.316406 190.835938 C 443.738281 192.132812 443.496094 194.359375 443.683594 196.351562 C 444.054688 200.34375 444.433594 204.363281 446.664062 207.808594 C 448.445312 210.558594 447.679688 212.113281 445.023438 213.609375 C 442.316406 215.132812 439.96875 217.109375 441.675781 222.320312 C 445.601562 215.203125 451.679688 215.648438 457.539062 215.394531 C 458.566406 215.351562 459.609375 215.128906 460.597656 214.839844 C 467.746094 212.738281 467.734375 212.726562 469.214844 219.902344 C 469.257812 220.09375 469.75 220.195312 470.292969 220.472656 C 471.917969 217.996094 471.332031 214.847656 473.046875 212.296875 C 478.21875 204.59375 477.980469 203.292969 471.613281 195.214844 Z M 471.613281 195.214844 "/>
<path style=" stroke:none;fill-rule:nonzero;fill:rgb(0%,0%,0%);fill-opacity:1;" d="M 658.390625 302.1875 C 641.464844 302.234375 624.972656 302.296875 608.484375 302.257812 C 605.679688 302.25 602.289062 303.148438 601.210938 298.808594 C 600.1875 300.886719 599.132812 302.726562 596.546875 302.050781 C 595.023438 301.652344 594.304688 300.558594 594.296875 298.972656 C 594.289062 296.511719 595.523438 295.214844 597.890625 294.628906 C 600.933594 293.878906 604.523438 291.050781 605.066406 297.195312 C 609.007812 294.992188 612.710938 292.734375 617.179688 295.023438 C 618.558594 295.730469 619.886719 294.988281 621.230469 294.996094 C 639.5625 295.097656 657.890625 295.269531 676.21875 295.449219 C 677.230469 295.460938 678.238281 295.71875 679.5625 295.910156 C 680.253906 300.03125 679.476562 302.179688 674.65625 301.917969 C 669.398438 301.636719 664.105469 302.058594 658.390625 302.1875 Z M 658.390625 302.1875 "/>
<path style=" stroke:none;fill-rule:nonzero;fill:rgb(0%,0%,0%);fill-opacity:1;" d="M 538.960938 277.664062 C 534.59375 278.296875 530.710938 275.972656 526.398438 278.109375 C 523.226562 279.679688 520.886719 276.328125 519.054688 273.597656 C 518.078125 275.109375 518.707031 277.652344 516.300781 277.664062 C 512.328125 277.683594 515.191406 272.945312 512.488281 271.878906 C 510.054688 273.046875 512.148438 278.382812 508.621094 277.410156 C 505.078125 276.433594 507.246094 272.304688 506.820312 269.59375 C 506.554688 267.90625 506.753906 266.132812 506.835938 264.402344 C 506.90625 262.875 506.746094 261.007812 508.984375 260.941406 C 510.777344 260.886719 511.152344 262.335938 511.328125 263.796875 C 511.429688 264.648438 511.453125 265.550781 512.53125 266.007812 C 515.210938 265.4375 511.894531 259.6875 516.324219 261.046875 C 519.902344 262.148438 517.609375 265.972656 519 268.726562 C 520.542969 266.648438 522.277344 264.601562 525.078125 264.394531 C 528.074219 264.171875 529.929688 265.816406 531.71875 269.5625 C 531.535156 264.054688 534.757812 264.3125 537.769531 264.371094 C 540.308594 264.421875 543.4375 263.863281 544.253906 267.214844 C 545.023438 270.386719 545.277344 273.808594 543.636719 276.847656 C 542.699219 278.585938 540.757812 277.304688 538.960938 277.664062 Z M 538.960938 277.664062 "/>
<path style=" stroke:none;fill-rule:nonzero;fill:rgb(0%,0%,0%);fill-opacity:1;" d="M 438.15625 265.085938 C 441.941406 266.355469 437.359375 270.382812 441.082031 271.632812 C 442.386719 269.0625 442.484375 265.492188 446.136719 264.632812 C 447.917969 264.214844 449.558594 264.347656 451.140625 265.226562 C 454.199219 266.921875 454.984375 272.429688 452.648438 275.785156 C 450.246094 279.234375 446.859375 279.070312 441.503906 275.238281 C 436.734375 278.789062 431.890625 279.207031 430.140625 276.214844 C 429.433594 275 429.515625 274.882812 432.976562 272.804688 C 430.480469 272.679688 430.332031 269.070312 427.570312 270.5 C 425.375 271.636719 424.085938 269.644531 422.480469 269.191406 C 420.011719 270.761719 421.230469 273.078125 420.890625 274.96875 C 420.667969 276.191406 420.644531 277.578125 419.128906 277.738281 C 417.449219 277.914062 416.5 276.679688 416.460938 275.195312 C 416.367188 271.816406 414.90625 267.589844 417.871094 265.378906 C 421.269531 262.847656 425.40625 263.738281 428.539062 267.054688 C 431.507812 265.132812 434.316406 263.332031 438.15625 265.085938 Z M 438.15625 265.085938 "/>
<path style=" stroke:none;fill-rule:nonzero;fill:rgb(0%,0%,0%);fill-opacity:1;" d="M 457.085938 391.542969 C 459.191406 397.867188 457.433594 399.328125 449.792969 398.175781 C 443.730469 397.261719 437.734375 397.847656 431.832031 399.332031 C 430.429688 399.6875 429.28125 399.988281 427.910156 399.171875 C 423.789062 396.714844 418.84375 397.351562 414.472656 395.75 C 412.789062 395.136719 412.328125 398.207031 410.035156 397.046875 C 408.792969 394.914062 408.660156 392.21875 410.40625 390.152344 C 411.929688 388.351562 414.195312 389.832031 416.21875 390.140625 C 421.351562 390.917969 426.691406 392.835938 431.476562 388.871094 C 439.488281 394.050781 448.578125 388.207031 457.085938 391.542969 Z M 457.085938 391.542969 "/>
<path style=" stroke:none;fill-rule:nonzero;fill:rgb(0%,0%,0%);fill-opacity:1;" d="M 390.351562 265.90625 C 390.417969 263.347656 390.230469 261.0625 393.097656 260.652344 C 397.601562 260.011719 401.347656 261.089844 403.242188 265.601562 C 410.628906 264.003906 413.777344 264.796875 414.433594 268.832031 C 415.011719 272.371094 415.441406 276.34375 410.839844 277.953125 C 406.8125 279.367188 404.25 277.035156 402.042969 269.925781 C 399.328125 272.039062 394.707031 271.425781 394.277344 276.386719 C 394.199219 277.257812 393.152344 277.660156 392.203125 277.46875 C 390.996094 277.222656 390.527344 276.234375 390.488281 275.179688 C 390.371094 272.25 390.386719 269.3125 390.351562 265.90625 Z M 390.351562 265.90625 "/>
<path style=" stroke:none;fill-rule:nonzero;fill:rgb(0%,0%,0%);fill-opacity:1;" d="M 437.976562 451.976562 C 441.222656 450.648438 443.765625 450.828125 445.859375 453.339844 C 447.089844 454.820312 447.183594 456.546875 446.59375 458.242188 C 446 459.953125 444.417969 459.59375 443.054688 459.59375 C 433.296875 459.597656 423.539062 459.589844 413.78125 459.628906 C 410.710938 459.640625 410.058594 457.875 410.101562 455.238281 C 410.140625 452.964844 410.515625 450.378906 413.15625 450.90625 C 417.40625 451.761719 421.710938 450.75 425.441406 451.15625 C 429.414062 451.589844 433.628906 450.75 437.976562 451.976562 Z M 437.976562 451.976562 "/>
<path style=" stroke:none;fill-rule:nonzero;fill:rgb(0%,0%,0%);fill-opacity:1;" d="M 466.949219 271.023438 C 469.058594 271.671875 469.046875 270.25 468.914062 269.066406 C 468.496094 265.378906 470.945312 264.5625 473.703125 264.445312 C 476.714844 264.3125 478.46875 266.042969 479.035156 269.023438 C 480.546875 276.972656 477.316406 280.332031 470 277.402344 C 467.191406 276.277344 464.378906 279.796875 462.414062 276.617188 C 461.121094 274.523438 462.953125 271.511719 460.898438 269.316406 C 458.507812 270.703125 459.945312 272.546875 459.855469 274.085938 C 459.757812 275.675781 459.789062 277.488281 457.769531 277.714844 C 455.355469 277.980469 455.113281 275.976562 454.9375 274.230469 C 454.796875 272.855469 454.808594 271.460938 454.816406 270.078125 C 454.835938 267.710938 454.21875 264.890625 457.800781 264.523438 C 461.078125 264.1875 464.566406 263.671875 466.160156 267.742188 C 466.53125 268.691406 466.597656 269.761719 466.949219 271.023438 Z M 466.949219 271.023438 "/>
<path style=" stroke:none;fill-rule:nonzero;fill:rgb(0%,0%,0%);fill-opacity:1;" d="M 439.050781 365.6875 C 438.300781 367.265625 440.085938 368.621094 438.804688 369.882812 C 429.199219 370.492188 419.601562 370.394531 410.039062 370.003906 C 409.042969 362.25 411.941406 359.9375 418.878906 361.976562 C 423.941406 363.464844 429.300781 363.898438 434.496094 362.441406 C 437.472656 361.605469 439.078125 362.070312 439.050781 365.6875 Z M 439.050781 365.6875 "/>
<path style=" stroke:none;fill-rule:nonzero;fill:rgb(0%,0%,0%);fill-opacity:1;" d="M 546.75 397.800781 C 539.894531 397.945312 533.375 398.007812 526.859375 398.070312 C 522.648438 398.109375 522.839844 394.984375 522.953125 392.273438 C 523.085938 389.003906 525.683594 389.054688 527.921875 389.460938 C 535.199219 390.773438 542.535156 390.953125 549.878906 390.738281 C 553.210938 390.640625 553.53125 392.875 553.734375 395.054688 C 553.960938 397.425781 552.398438 398.445312 550.125 398.269531 C 549.105469 398.1875 548.097656 397.90625 546.75 397.800781 Z M 546.75 397.800781 "/>
<path style=" stroke:none;fill-rule:nonzero;fill:rgb(0%,0%,0%);fill-opacity:1;" d="M 537.320312 363.132812 C 542.585938 361.726562 547.421875 362.53125 552.625 363.636719 C 553.433594 365.402344 554.757812 368.441406 552.53125 369.25 C 549.359375 370.402344 545.273438 371.632812 542.074219 367.957031 C 536.726562 373.640625 530.058594 367.289062 523.957031 369.75 C 522.566406 367.078125 522.472656 364.066406 524.066406 361.925781 C 525.648438 359.800781 528.15625 361.742188 530.289062 362.257812 C 532.453125 362.777344 534.71875 362.878906 537.320312 363.132812 Z M 537.320312 363.132812 "/>
<path style=" stroke:none;fill-rule:nonzero;fill:rgb(0%,0%,0%);fill-opacity:1;" d="M 432.101562 295.335938 C 434.507812 295.132812 436.757812 294.222656 438.003906 296.714844 C 438.757812 298.226562 438.402344 299.917969 437.261719 301.066406 C 434.371094 303.984375 432.808594 300.253906 430.664062 299.515625 C 425.253906 304.148438 418.75 300.664062 412.914062 302.027344 C 410.585938 302.570312 409.574219 301.101562 408.777344 299.09375 C 407.398438 295.636719 407.746094 293.839844 412.097656 294.1875 C 418.621094 294.710938 425.167969 294.945312 432.101562 295.335938 Z M 432.101562 295.335938 "/>
<path style=" stroke:none;fill-rule:nonzero;fill:rgb(0%,0%,0%);fill-opacity:1;" d="M 465.1875 452.71875 C 468.605469 450.316406 471.691406 451.398438 474.800781 452.457031 C 476.816406 453.140625 477.339844 454.53125 477.046875 456.507812 C 476.753906 458.496094 475.832031 459.691406 473.703125 459.667969 C 467.886719 459.59375 462.070312 459.40625 456.257812 459.484375 C 452.289062 459.539062 452.480469 456.992188 452.445312 454.277344 C 452.402344 450.648438 454.859375 450.40625 457.351562 450.78125 C 459.875 451.15625 462.316406 452.082031 465.1875 452.71875 Z M 465.1875 452.71875 "/>
<path style=" stroke:none;fill-rule:nonzero;fill:rgb(0%,0%,0%);fill-opacity:1;" d="M 391.367188 456.039062 C 392.429688 450.40625 394.644531 448.550781 398.839844 449.351562 C 402.453125 450.042969 406.652344 455.761719 405.921875 459 C 405.183594 462.265625 400.253906 463.90625 396.28125 462.105469 C 393.820312 460.988281 392.089844 459.128906 391.367188 456.039062 Z M 391.367188 456.039062 "/>
<path style=" stroke:none;fill-rule:nonzero;fill:rgb(0%,0%,0%);fill-opacity:1;" d="M 520.59375 445.875 C 518.46875 446.054688 516.730469 446.261719 516.371094 448.515625 C 516.976562 450.394531 518.59375 450.5 520.128906 450.648438 C 522.574219 450.882812 524.03125 452.183594 524.003906 454.625 C 523.976562 456.910156 522.21875 457.910156 520.25 458.261719 C 518.339844 458.605469 515.519531 457.722656 515.863281 461.003906 C 516.195312 464.199219 519.109375 463.355469 521.210938 463.625 C 522.84375 463.832031 524.683594 463.101562 526.746094 465.371094 C 523.222656 467.78125 519.507812 467.132812 516.125 466.566406 C 513.0625 466.050781 513.910156 463.25 514 461.035156 C 514.125 457.929688 514.054688 454.820312 514.167969 451.714844 C 514.257812 449.386719 513.363281 446.160156 516.257812 445.390625 C 519.488281 444.53125 523.265625 443.445312 526.886719 447.148438 C 524.394531 446.613281 522.679688 446.25 520.59375 445.875 Z M 520.59375 445.875 "/>
<path style=" stroke:none;fill-rule:nonzero;fill:rgb(0%,0%,0%);fill-opacity:1;" d="M 566.921875 454.394531 C 568.167969 457.28125 567.566406 459.269531 564.5625 458.320312 C 559.8125 456.808594 555.230469 458.9375 550.511719 458.207031 C 547.863281 457.796875 545.988281 457.292969 545.949219 454.566406 C 545.910156 451.449219 548.035156 450.378906 550.890625 450.839844 C 555.0625 451.515625 559.054688 453.167969 563.429688 450.851562 C 565.5625 449.722656 566.746094 451.851562 566.921875 454.394531 Z M 566.921875 454.394531 "/>
<path style=" stroke:none;fill-rule:nonzero;fill:rgb(0%,0%,0%);fill-opacity:1;" d="M 548.511719 265.226562 C 552.039062 263.742188 554.832031 264.300781 556.441406 267.355469 C 558.101562 270.5 556.816406 273.78125 555.453125 276.636719 C 554.640625 278.34375 552.328125 278.835938 550.378906 278.359375 C 548.066406 277.800781 546.296875 276.269531 545.792969 273.898438 C 545.125 270.753906 545.316406 267.683594 548.511719 265.226562 Z M 548.511719 265.226562 "/>
<path style=" stroke:none;fill-rule:nonzero;fill:rgb(0%,0%,0%);fill-opacity:1;" d="M 511.191406 294.082031 C 511.765625 296.707031 512.1875 299.027344 512.664062 301.6875 C 507.21875 303.078125 501.761719 302.035156 496.417969 301.546875 C 493.671875 301.292969 494.660156 298.253906 494.65625 296.328125 C 494.648438 294.046875 496.375 293.046875 498.144531 293.753906 C 502.519531 295.511719 506.738281 295.101562 511.191406 294.082031 Z M 511.191406 294.082031 "/>
<path style=" stroke:none;fill-rule:nonzero;fill:rgb(0%,0%,0%);fill-opacity:1;" d="M 569.382812 459.082031 C 569.226562 454.175781 569.917969 449.726562 568.632812 445.285156 C 570.949219 445.246094 571.5 446.59375 571.515625 448 C 571.570312 453.199219 571.535156 458.398438 571.390625 463.589844 C 571.34375 465.324219 570.179688 466.648438 568.441406 466.707031 C 560.488281 466.984375 552.527344 467.347656 544.585938 466.507812 C 544.035156 466.449219 543.558594 465.71875 543.089844 465.332031 C 543.765625 462.882812 545.632812 463.652344 547.003906 463.632812 C 552.890625 463.535156 558.785156 463.578125 564.675781 463.574219 C 567.390625 463.570312 569.558594 462.933594 569.382812 459.082031 Z M 569.382812 459.082031 "/>
<path style=" stroke:none;fill-rule:nonzero;fill:rgb(0%,0%,0%);fill-opacity:1;" d="M 573.660156 295.191406 C 576.527344 296.496094 576.375 298.648438 575.597656 300.613281 C 574.824219 302.5625 572.832031 302.394531 571.09375 302.195312 C 568 301.839844 564.925781 301.613281 561.824219 302.167969 C 559.726562 302.546875 557.847656 302.089844 557.679688 299.558594 C 557.535156 297.339844 558.238281 295.292969 560.898438 295.066406 C 563.644531 294.835938 566.316406 293.371094 569.21875 294.9375 C 570.285156 295.511719 571.902344 295.0625 573.660156 295.191406 Z M 573.660156 295.191406 "/>
<path style=" stroke:none;fill-rule:nonzero;fill:rgb(0%,0%,0%);fill-opacity:1;" d="M 515.789062 395.171875 C 514.972656 399.054688 512.570312 399.617188 509.476562 399.3125 C 507.695312 399.136719 505.835938 399.160156 505.390625 397.011719 C 504.800781 394.148438 504.265625 391.089844 506.214844 388.578125 C 507.367188 387.09375 509.445312 387.226562 511.023438 387.988281 C 513.820312 389.332031 516.597656 390.898438 515.789062 395.171875 Z M 515.789062 395.171875 "/>
<path style=" stroke:none;fill-rule:nonzero;fill:rgb(0%,0%,0%);fill-opacity:1;" d="M 509.167969 361.484375 C 512.226562 361.515625 515.179688 361.253906 515.921875 364.601562 C 516.492188 367.199219 517.417969 370.535156 513.492188 371.398438 C 510.421875 372.074219 506.300781 372.953125 504.917969 369.328125 C 503.824219 366.46875 503.332031 362.070312 509.167969 361.484375 Z M 509.167969 361.484375 "/>
<path style=" stroke:none;fill-rule:nonzero;fill:rgb(0%,0%,0%);fill-opacity:1;" d="M 488.074219 449.304688 C 490.582031 446.621094 493.734375 447.652344 496.085938 448.0625 C 500.871094 448.902344 497.167969 453.292969 498.300781 455.953125 C 499.160156 457.96875 497.070312 458.671875 495.097656 458.777344 C 488.636719 459.125 488.640625 459.167969 488.074219 449.304688 Z M 488.074219 449.304688 "/>
<path style=" stroke:none;fill-rule:nonzero;fill:rgb(0%,0%,0%);fill-opacity:1;" d="M 496.222656 463.558594 C 499.066406 463.488281 501.101562 462.554688 500.558594 459.910156 C 499.550781 455.035156 502.820312 449.292969 496.382812 445.296875 C 500.683594 443.859375 501.890625 445.546875 502.5 448.152344 C 503.785156 453.6875 501.265625 459.105469 501.933594 464.648438 C 502 465.21875 501.007812 466.425781 500.425781 466.484375 C 495.136719 467.011719 489.808594 467.699219 484.589844 466.058594 C 484.132812 465.917969 483.921875 465.007812 483.320312 463.988281 C 487.726562 462.949219 491.785156 463.902344 496.222656 463.558594 Z M 496.222656 463.558594 "/>
<path style=" stroke:none;fill-rule:nonzero;fill:rgb(0%,0%,0%);fill-opacity:1;" d="M 396.628906 399.066406 C 395.796875 398.683594 395.359375 398.382812 394.871094 398.238281 C 390.960938 397.050781 389.554688 394.089844 390.917969 390.660156 C 392.28125 387.238281 395.464844 388.460938 398.035156 389.488281 C 401.875 391.027344 403.085938 394.035156 401.808594 397.808594 C 401.019531 400.148438 398.90625 399.753906 396.628906 399.066406 Z M 396.628906 399.066406 "/>
<path style=" stroke:none;fill-rule:nonzero;fill:rgb(0%,0%,0%);fill-opacity:1;" d="M 491.960938 275.011719 C 493.242188 278.492188 490.820312 278.199219 489.039062 278.089844 C 486.160156 277.910156 484.296875 276.511719 483.867188 273.335938 C 482.820312 265.605469 482.746094 265.613281 479.996094 262.734375 C 481.152344 259.988281 483.503906 260.421875 485.640625 260.867188 C 488.265625 261.414062 487.652344 263.617188 487.699219 265.488281 C 487.792969 269.09375 486.25 273.445312 491.960938 275.011719 Z M 491.960938 275.011719 "/>
<path style=" stroke:none;fill-rule:nonzero;fill:rgb(0%,0%,0%);fill-opacity:1;" d="M 453.1875 369.957031 C 445.789062 369.492188 444.714844 368.566406 445.910156 364.011719 C 445.953125 363.847656 445.980469 363.675781 446.019531 363.507812 C 446.632812 360.808594 449.652344 360.691406 450.414062 361.589844 C 452.582031 364.144531 458.324219 360.953125 458.15625 366.554688 C 458.070312 369.433594 456.332031 370.441406 453.1875 369.957031 Z M 453.1875 369.957031 "/>
<path style=" stroke:none;fill-rule:nonzero;fill:rgb(0%,0%,0%);fill-opacity:1;" d="M 400.367188 295.738281 C 400.734375 297.84375 401.066406 299.644531 401.417969 301.574219 C 397.503906 303.316406 393.96875 300.832031 390.429688 301.597656 C 389.53125 298.867188 389.859375 296.695312 390.390625 294.414062 C 393.1875 292.585938 396.554688 295.140625 399.425781 293.320312 C 399.828125 293.0625 400.292969 294.570312 400.367188 295.738281 Z M 400.367188 295.738281 "/>
<path style=" stroke:none;fill-rule:nonzero;fill:rgb(0%,0%,0%);fill-opacity:1;" d="M 454.351562 297.085938 C 455.777344 294.96875 456.808594 292.363281 459.433594 293.03125 C 461.652344 293.597656 462.828125 295.789062 463.125 298.191406 C 463.617188 302.164062 461.019531 304.359375 457.667969 302.238281 C 456.359375 301.410156 449.660156 302.828125 454.351562 297.085938 Z M 454.351562 297.085938 "/>
<path style=" stroke:none;fill-rule:nonzero;fill:rgb(0%,0%,0%);fill-opacity:1;" d="M 696.710938 298.328125 C 696.636719 301.960938 694.972656 303.613281 691.792969 303.160156 C 689.316406 302.808594 688.367188 300.714844 688.578125 298.542969 C 688.851562 295.695312 690.492188 292.90625 693.277344 292.625 C 696.519531 292.296875 697.554688 294.839844 696.710938 298.328125 Z M 696.710938 298.328125 "/>
<path style=" stroke:none;fill-rule:nonzero;fill:rgb(0%,0%,0%);fill-opacity:1;" d="M 593.175781 447.121094 C 592.03125 446.441406 591.125 445.992188 590.148438 445.507812 C 595.054688 444.472656 596.535156 445.472656 596.636719 450.074219 C 596.703125 453.015625 596.449219 455.964844 596.429688 458.910156 C 596.378906 467.125 592.324219 469.386719 584.207031 465.296875 C 586 463.464844 588.195312 464.394531 590.035156 464.15625 C 594.066406 463.636719 595.988281 461.851562 595.0625 457.535156 C 594.339844 454.179688 593.949219 450.75 593.175781 447.121094 Z M 593.175781 447.121094 "/>
<path style=" stroke:none;fill-rule:nonzero;fill:rgb(0%,0%,0%);fill-opacity:1;" d="M 533.335938 294.085938 C 534.484375 297.503906 536.507812 301.296875 531.015625 302.144531 C 528.355469 302.554688 525.785156 301.765625 525.652344 298.160156 C 525.535156 295.058594 526.234375 293.03125 530.035156 294.0625 C 530.953125 294.308594 532.035156 293.957031 533.335938 294.085938 Z M 533.335938 294.085938 "/>
<path style=" stroke:none;fill-rule:nonzero;fill:rgb(0%,0%,0%);fill-opacity:1;" d="M 401.316406 363.136719 C 400.667969 368.050781 398.722656 371.058594 393.238281 368.820312 C 391.855469 365.933594 392.492188 363.796875 395.464844 361.734375 C 398.144531 359.871094 399.476562 361.199219 401.316406 363.136719 Z M 401.316406 363.136719 "/>
<path style=" stroke:none;fill-rule:nonzero;fill:rgb(0%,0%,0%);fill-opacity:1;" d="M 488.222656 295.925781 C 489.265625 298.230469 489.777344 300.289062 487.515625 301.648438 C 486.324219 302.367188 484.757812 302.429688 483.566406 301.664062 C 481.820312 300.546875 482.042969 298.492188 482.515625 296.980469 C 483.472656 293.933594 485.792969 294.71875 488.222656 295.925781 Z M 488.222656 295.925781 "/>
<path style=" stroke:none;fill-rule:nonzero;fill:rgb(0%,0%,0%);fill-opacity:1;" d="M 589.136719 458.226562 C 585.789062 457.378906 585.945312 455.070312 586.378906 452.828125 C 586.742188 450.960938 588.28125 450.582031 589.96875 450.746094 C 591.691406 450.914062 592.960938 451.816406 593.199219 453.535156 C 593.570312 456.230469 592.050781 457.667969 589.136719 458.226562 Z M 589.136719 458.226562 "/>
<path style=" stroke:none;fill-rule:nonzero;fill:rgb(0%,0%,0%);fill-opacity:1;" d="M 550.671875 297.902344 C 550.464844 300.417969 551.105469 303.035156 547.261719 303.164062 C 547.261719 299.710938 547.261719 296.425781 547.261719 293.125 C 550.257812 293.527344 550.257812 293.527344 550.671875 297.902344 Z M 550.671875 297.902344 "/>
<path style=" stroke:none;fill-rule:nonzero;fill:rgb(0%,0%,0%);fill-opacity:1;" d="M 520.261719 294.371094 C 521.882812 292.324219 523.472656 291.046875 523.796875 294.660156 C 524.042969 297.351562 523.847656 300.085938 523.847656 304.152344 C 518.847656 301.636719 520.648438 297.707031 520.261719 294.371094 Z M 520.261719 294.371094 "/>
<path style=" stroke:none;fill-rule:nonzero;fill:rgb(0%,0%,0%);fill-opacity:1;" d="M 475.164062 297.40625 C 475.535156 302.011719 475.535156 302.011719 471.742188 301.21875 C 471.898438 298.925781 472.429688 296.605469 471.753906 294.035156 C 474.855469 293.082031 476.628906 293.1875 475.164062 297.40625 Z M 475.164062 297.40625 "/>
<path style=" stroke:none;fill-rule:nonzero;fill:rgb(0%,0%,0%);fill-opacity:1;" d="M 535.808594 451.257812 C 537.195312 454.457031 536.164062 456.921875 533.648438 459.550781 C 531.980469 455.875 532.992188 453.363281 535.808594 451.257812 Z M 535.808594 451.257812 "/>
<path style=" stroke:none;fill-rule:nonzero;fill:rgb(0%,0%,0%);fill-opacity:1;" d="M 580.035156 455.308594 C 578.6875 457.609375 577.085938 458.511719 574.984375 456.644531 C 574.003906 455.773438 574.257812 454.789062 575.121094 454 C 577.183594 452.109375 578.785156 452.753906 580.035156 455.308594 Z M 580.035156 455.308594 "/>
<path style=" stroke:none;fill-rule:nonzero;fill:rgb(0%,0%,0%);fill-opacity:1;" d="M 536.152344 298.585938 C 535.941406 296.886719 535.359375 295.453125 537.378906 294.171875 C 538.519531 296.066406 539.640625 297.933594 540.832031 299.914062 C 538.449219 302.015625 537.246094 300.953125 536.152344 298.585938 Z M 536.152344 298.585938 "/>
<path style=" stroke:none;fill-rule:nonzero;fill:rgb(0%,0%,0%);fill-opacity:1;" d="M 439.6875 297.285156 C 439.761719 295.734375 439.769531 294.496094 441.558594 293.988281 C 443.632812 296.464844 442.804688 299.003906 441.972656 301.695312 C 439.003906 301.25 440.316406 298.976562 439.6875 297.285156 Z M 439.6875 297.285156 "/>
<path style=" stroke:none;fill-rule:nonzero;fill:rgb(0%,0%,0%);fill-opacity:1;" d="M 461.800781 161.378906 C 464.554688 162.386719 463.808594 163.617188 462.394531 164.820312 C 458.953125 167.75 448.640625 167.582031 445.089844 164.546875 C 444.167969 163.761719 443.019531 162.921875 443.792969 161.535156 C 444.582031 160.125 445.878906 160.511719 446.941406 161.214844 C 451.75 164.402344 456.578125 162.898438 461.800781 161.378906 Z M 461.800781 161.378906 "/>
<path style=" stroke:none;fill-rule:nonzero;fill:rgb(0%,0%,0%);fill-opacity:1;" d="M 439.308594 156.25 C 439.128906 155.085938 438.703125 153.898438 438.832031 152.773438 C 439.027344 151.011719 440.378906 150.105469 442.070312 150.183594 C 443.921875 150.265625 445.363281 151.226562 445.550781 153.234375 C 445.714844 155 444.6875 156.164062 443.003906 156.503906 C 442.042969 156.695312 440.996094 156.480469 439.648438 156.351562 C 439.308594 156.25 439.308594 156.25 439.308594 156.25 Z M 439.308594 156.25 "/>
<path style=" stroke:none;fill-rule:nonzero;fill:rgb(0%,0%,0%);fill-opacity:1;" d="M 467.984375 157.84375 C 465.269531 158.734375 463.496094 158.105469 462.785156 155.617188 C 462.417969 154.335938 462.972656 153.21875 464.113281 152.507812 C 465.574219 151.589844 467.160156 151.519531 468.4375 152.683594 C 470.183594 154.265625 469.9375 156.015625 467.984375 157.84375 Z M 467.984375 157.84375 "/>
<path style=" stroke:none;fill-rule:nonzero;fill:rgb(0%,0%,0%);fill-opacity:1;" d="M 439.308594 156.25 C 440.210938 158.347656 439.269531 159.699219 437.328125 160.15625 C 434.894531 160.726562 432.234375 162.257812 429.417969 159.253906 C 432.816406 158.148438 435.664062 157.21875 438.910156 156.269531 C 439.308594 156.25 439.308594 156.25 439.308594 156.25 Z M 439.308594 156.25 "/>
<path style=" stroke:none;fill-rule:nonzero;fill:rgb(0%,0%,0%);fill-opacity:1;" d="M 479.597656 163.097656 C 476.46875 162.996094 476.613281 161.335938 477.621094 159.597656 C 478.363281 158.3125 479.757812 158.375 480.789062 159.238281 C 482.746094 160.886719 482.121094 162.164062 479.597656 163.097656 Z M 479.597656 163.097656 "/>
</g>
</svg>
