<svg version="1.1" id="Layer_1" xmlns="http://www.w3.org/2000/svg" xmlns:xlink="http://www.w3.org/1999/xlink" x="0px" y="0px"
	 width="100%" viewBox="0 0 1024 576" enable-background="new 0 0 1024 576" xml:space="preserve">
<path fill="#000000" opacity="1.000000" stroke="none" 
	d="
M398.893372,159.946167 
	C398.962982,158.699387 398.803833,157.751419 399.153412,157.061066 
	C405.519073,144.490845 410.785400,130.833572 425.176971,124.977699 
	C438.718628,119.467659 452.301788,120.304329 465.265167,127.051430 
	C479.585052,134.504562 486.599731,151.186035 482.288727,166.555649 
	C481.230469,170.328735 479.817383,174.337158 476.470215,176.189621 
	C470.456909,179.517593 466.931030,185.244385 461.940613,189.493820 
	C461.027466,190.271347 460.719086,191.044449 461.091736,192.073105 
	C462.829498,196.869797 460.715790,200.799591 458.426788,204.770966 
	C456.435120,208.226532 455.445068,211.823990 458.330231,215.307465 
	C452.029602,221.173615 424.713806,221.403305 416.413086,215.556503 
	C420.408356,212.009979 419.132782,205.419525 424.387482,202.479599 
	C425.626526,201.786392 424.921509,200.385651 424.599640,199.274460 
	C423.817322,196.573517 423.047485,193.868973 422.184937,190.859985 
	C418.479645,191.796753 414.718506,193.050491 411.496307,189.825836 
	C410.269958,188.598557 409.254608,187.326721 409.618744,185.457977 
	C410.011810,183.440704 411.532043,183.514664 413.105103,183.560303 
	C415.202026,183.621185 415.960999,182.217926 416.383728,179.994629 
	C408.220856,175.696060 399.829346,171.263458 398.893372,159.946167 
M453.030029,187.406952 
	C452.266052,182.890121 454.459900,180.064972 459.212067,179.639389 
	C475.366852,178.192581 481.660950,167.207458 479.177277,152.453873 
	C476.516632,136.648865 465.837097,128.914780 451.027496,126.001892 
	C434.338898,122.719444 416.414459,129.099121 409.824310,145.438461 
	C408.909576,147.706467 407.259064,149.704529 405.803833,151.722717 
	C401.483032,157.714874 401.973083,164.799500 407.449860,169.699203 
	C411.829895,173.617752 416.787659,176.644684 422.709412,177.779877 
	C424.407440,178.105392 426.508331,177.958344 426.895264,180.422897 
	C425.470856,183.388718 422.324158,180.539536 420.672028,182.312912 
	C419.180298,183.914124 417.873016,185.687149 416.347168,187.552094 
	C420.801575,188.704895 421.375183,184.320679 423.928375,183.201996 
	C426.255981,184.448334 426.022614,186.585617 426.200989,188.499329 
	C426.557922,192.329269 426.923370,196.190125 429.065125,199.495911 
	C430.775116,202.135284 430.040466,203.628784 427.490509,205.063599 
	C424.890900,206.526321 422.634949,208.426361 424.272614,213.428040 
	C428.043701,206.595947 433.882721,207.021332 439.513519,206.779022 
	C440.499725,206.736588 441.500214,206.525116 442.451294,206.245834 
	C449.316284,204.229904 449.307373,204.219131 450.729767,211.105118 
	C450.768097,211.290649 451.240417,211.386536 451.764557,211.653870 
	C453.325134,209.277725 452.763092,206.253998 454.408813,203.805115 
	C459.377441,196.411530 459.147644,195.161728 453.030029,187.406952 
z"/>
<path fill="#000000" opacity="1.000000" stroke="none" 
	d="
M632.451050,290.101288 
	C616.192078,290.145203 600.350830,290.203400 584.509766,290.167358 
	C581.817505,290.161224 578.560791,291.022186 577.523743,286.856995 
	C576.541260,288.852966 575.527466,290.616486 573.042847,289.968658 
	C571.579163,289.587036 570.887756,288.537048 570.882385,287.012817 
	C570.874146,284.649750 572.059631,283.406525 574.335022,282.845520 
	C577.258118,282.124817 580.706116,279.410492 581.228149,285.306915 
	C585.014832,283.192505 588.569641,281.023315 592.864258,283.223633 
	C594.186768,283.901215 595.463989,283.189331 596.754761,283.196503 
	C614.362732,283.294098 631.970337,283.457123 649.577759,283.631439 
	C650.547424,283.641083 651.514648,283.891418 652.786926,284.073090 
	C653.451599,288.029114 652.703735,290.092712 648.074341,289.843109 
	C643.024841,289.570862 637.938904,289.974670 632.451050,290.101288 
z"/>
<path fill="#000000" opacity="1.000000" stroke="none" 
	d="
M517.725586,266.559174 
	C513.531372,267.166199 509.800964,264.932983 505.656830,266.984863 
	C502.612427,268.492249 500.362213,265.275574 498.605469,262.654236 
	C497.666962,264.104889 498.271149,266.547821 495.958740,266.558746 
	C492.141876,266.576752 494.893951,262.026306 492.296814,261.002686 
	C489.959564,262.123291 491.970642,267.246124 488.582184,266.313812 
	C485.179321,265.377594 487.259186,261.411926 486.850708,258.810120 
	C486.596130,257.188782 486.787445,255.487885 486.865387,253.826752 
	C486.934265,252.358521 486.779449,250.565826 488.931305,250.501984 
	C490.653931,250.450867 491.011749,251.841370 491.181488,253.245605 
	C491.280060,254.060898 491.300476,254.929733 492.338257,255.367569 
	C494.911316,254.819138 491.725525,249.298615 495.980988,250.605453 
	C499.417572,251.660782 497.216827,255.334961 498.552063,257.977448 
	C500.034454,255.981995 501.699005,254.016647 504.389435,253.818222 
	C507.266907,253.606003 509.051270,255.182281 510.769348,258.779358 
	C510.593109,253.492706 513.688538,253.738464 516.581726,253.795959 
	C519.019653,253.844406 522.026367,253.309464 522.808716,256.527496 
	C523.549072,259.572815 523.793091,262.855042 522.216003,265.774200 
	C521.315430,267.441101 519.450989,266.210754 517.725586,266.559174 
z"/>
<path fill="#000000" opacity="1.000000" stroke="none" 
	d="
M420.894897,254.481293 
	C424.527435,255.699875 420.126740,259.567810 423.704071,260.768585 
	C424.956146,258.298859 425.050537,254.871979 428.559448,254.048676 
	C430.268921,253.647614 431.844757,253.775284 433.366516,254.617264 
	C436.305695,256.243530 437.058044,261.532654 434.814880,264.752014 
	C432.506439,268.064941 429.255066,267.906311 424.108490,264.229645 
	C419.528412,267.638275 414.875671,268.037567 413.195068,265.166199 
	C412.512909,264.000793 412.593475,263.888000 415.919067,261.891602 
	C413.520203,261.772736 413.378021,258.305695 410.724854,259.679535 
	C408.613617,260.772736 407.377716,258.859283 405.833282,258.422394 
	C403.461853,259.931763 404.632385,262.154724 404.306274,263.969635 
	C404.095032,265.145050 404.070801,266.475372 402.613861,266.627441 
	C401.000183,266.795837 400.090637,265.613251 400.051025,264.187134 
	C399.960907,260.942291 398.560303,256.884796 401.407562,254.764145 
	C404.672455,252.332443 408.644196,253.187149 411.656494,256.372162 
	C414.506500,254.527969 417.203064,252.797211 420.894897,254.481293 
z"/>
<path fill="#000000" opacity="1.000000" stroke="none" 
	d="
M439.077759,375.879517 
	C441.100098,381.951813 439.410248,383.354218 432.072815,382.248566 
	C426.249237,381.371033 420.487183,381.932617 414.818176,383.359070 
	C413.469238,383.698456 412.366150,383.987183 411.050415,383.204071 
	C407.091095,380.847565 402.341919,381.457428 398.141052,379.921783 
	C396.524170,379.330719 396.084351,382.277313 393.879089,381.166046 
	C392.688293,379.118408 392.557861,376.529602 394.236877,374.545532 
	C395.700104,372.816498 397.875000,374.240387 399.819519,374.534637 
	C404.751617,375.280914 409.880402,377.121613 414.475952,373.315491 
	C422.174225,378.289642 430.905334,372.677917 439.077759,375.879517 
z"/>
<path fill="#000000" opacity="1.000000" stroke="none" 
	d="
M374.973206,255.269470 
	C375.035797,252.812576 374.855896,250.619461 377.610168,250.227112 
	C381.934601,249.611084 385.533051,250.646606 387.353088,254.977188 
	C394.452087,253.442444 397.473938,254.205643 398.105774,258.079193 
	C398.659882,261.476013 399.072083,265.288696 394.653748,266.836151 
	C390.783783,268.191528 388.322174,265.955109 386.203552,259.130615 
	C383.594940,261.156036 379.155884,260.569550 378.741272,265.332001 
	C378.668427,266.168823 377.662048,266.555176 376.751404,266.369873 
	C375.590149,266.133575 375.141449,265.186493 375.101898,264.171631 
	C374.992218,261.358337 375.003876,258.540375 374.973206,255.269470 
z"/>
<path fill="#000000" opacity="1.000000" stroke="none" 
	d="
M420.721313,433.896790 
	C423.838501,432.622711 426.280182,432.794189 428.291443,435.208069 
	C429.475159,436.628784 429.562866,438.283630 428.997223,439.913544 
	C428.427032,441.556580 426.909698,441.209717 425.598236,441.210083 
	C416.224609,441.212646 406.850891,441.205597 397.477356,441.243317 
	C394.530426,441.255157 393.903931,439.560730 393.945007,437.029236 
	C393.980438,434.845093 394.341217,432.362183 396.876740,432.870728 
	C400.959991,433.689728 405.095490,432.721375 408.678772,433.110565 
	C412.495575,433.525146 416.545502,432.720703 420.721313,433.896790 
z"/>
<path fill="#000000" opacity="1.000000" stroke="none" 
	d="
M448.549744,260.182892 
	C450.577515,260.805878 450.566376,259.439240 450.438507,258.304779 
	C450.039246,254.761902 452.391907,253.981018 455.038239,253.866440 
	C457.930939,253.741180 459.615936,255.402344 460.160522,258.261932 
	C461.613953,265.894135 458.510315,269.119354 451.480988,266.305084 
	C448.784943,265.225677 446.081177,268.605042 444.195587,265.551788 
	C442.954498,263.542145 444.714386,260.650452 442.737732,258.544312 
	C440.440918,259.876495 441.824585,261.643707 441.735809,263.122070 
	C441.644135,264.648834 441.672211,266.390076 439.735016,266.604462 
	C437.413727,266.861328 437.183350,264.936981 437.012482,263.260590 
	C436.878021,261.941559 436.888397,260.603851 436.898560,259.274933 
	C436.915955,257.001740 436.321075,254.293549 439.761871,253.942459 
	C442.913086,253.620926 446.261475,253.124115 447.791870,257.033997 
	C448.148621,257.945496 448.214264,258.970947 448.549744,260.182892 
z"/>
<path fill="#000000" opacity="1.000000" stroke="none" 
	d="
M421.753571,351.061462 
	C421.030060,352.574890 422.747253,353.877441 421.516205,355.087463 
	C412.289429,355.671112 403.068542,355.578827 393.884735,355.203949 
	C392.926758,347.760162 395.711823,345.540771 402.376587,347.498260 
	C407.239075,348.926331 412.386353,349.341339 417.376373,347.942108 
	C420.236542,347.140106 421.777985,347.588776 421.753571,351.061462 
z"/>
<path fill="#000000" opacity="1.000000" stroke="none" 
	d="
M525.207397,381.888489 
	C518.621582,382.028351 512.360962,382.085907 506.100372,382.147125 
	C502.055359,382.186707 502.241943,379.185425 502.347504,376.581512 
	C502.474762,373.443146 504.971771,373.494232 507.120789,373.881622 
	C514.111328,375.141602 521.160645,375.314789 528.213440,375.109680 
	C531.415710,375.016602 531.722717,377.160736 531.919250,379.252197 
	C532.133362,381.529114 530.632935,382.507263 528.449036,382.337830 
	C527.469055,382.261780 526.504272,381.990509 525.207397,381.888489 
z"/>
<path fill="#000000" opacity="1.000000" stroke="none" 
	d="
M516.149658,348.608459 
	C521.208862,347.256836 525.854553,348.029419 530.850647,349.092194 
	C531.626831,350.787354 532.901917,353.703430 530.761658,354.480072 
	C527.713013,355.586365 523.791626,356.767487 520.717896,353.237915 
	C515.581543,358.693542 509.174408,352.597900 503.313446,354.960297 
	C501.977936,352.393616 501.888916,349.502625 503.417633,347.450439 
	C504.939789,345.407166 507.348328,347.273590 509.396088,347.766632 
	C511.475067,348.267212 513.651611,348.362732 516.149658,348.608459 
z"/>
<path fill="#000000" opacity="1.000000" stroke="none" 
	d="
M415.075897,283.523468 
	C417.387177,283.326752 419.548737,282.453461 420.744843,284.847168 
	C421.469910,286.298309 421.128265,287.921631 420.034088,289.025269 
	C417.258728,291.824677 415.757812,288.244720 413.697083,287.534027 
	C408.499176,291.983551 402.250732,288.636871 396.644318,289.944580 
	C394.410095,290.465759 393.438416,289.056458 392.669891,287.128967 
	C391.347321,283.811920 391.681915,282.085052 395.861816,282.420746 
	C402.127747,282.923920 408.416260,283.145752 415.075897,283.523468 
z"/>
<path fill="#000000" opacity="1.000000" stroke="none" 
	d="
M446.858734,434.609741 
	C450.141357,432.304657 453.108093,433.343292 456.095459,434.359009 
	C458.028320,435.016205 458.530975,436.351196 458.251251,438.247253 
	C457.969788,440.155243 457.086060,441.305145 455.037842,441.279633 
	C449.452148,441.210022 443.864929,441.028992 438.281250,441.105896 
	C434.467468,441.158447 434.653412,438.712372 434.620758,436.106934 
	C434.577118,432.623230 436.938019,432.391541 439.332550,432.748810 
	C441.756134,433.110382 444.100891,434.000488 446.858734,434.609741 
z"/>
<path fill="#000000" opacity="1.000000" stroke="none" 
	d="
M375.946228,437.796631 
	C376.967255,432.391266 379.093933,430.607483 383.126526,431.377258 
	C386.596924,432.039734 390.630524,437.532806 389.928375,440.640106 
	C389.219940,443.775085 384.484406,445.348206 380.668030,443.620667 
	C378.303040,442.550110 376.642151,440.765320 375.946228,437.796631 
z"/>
<path fill="#000000" opacity="1.000000" stroke="none" 
	d="
M500.083130,428.040710 
	C498.041382,428.210968 496.372772,428.410156 496.026398,430.576813 
	C496.606140,432.377655 498.161743,432.478210 499.636169,432.621277 
	C501.984436,432.849121 503.383942,434.094452 503.357605,436.438263 
	C503.332977,438.634460 501.643066,439.592041 499.752991,439.931641 
	C497.919281,440.261078 495.210114,439.413086 495.537262,442.562225 
	C495.856140,445.631348 498.655121,444.822266 500.676422,445.080078 
	C502.245392,445.280182 504.009705,444.577972 505.993011,446.757507 
	C502.606079,449.069061 499.037720,448.447571 495.789612,447.902954 
	C492.846680,447.409546 493.662262,444.718811 493.747498,442.593781 
	C493.867126,439.613556 493.799744,436.625977 493.911072,433.645233 
	C493.994537,431.411407 493.137329,428.314514 495.919189,427.574799 
	C499.021881,426.749847 502.650970,425.705963 506.126373,429.261108 
	C503.734497,428.750092 502.087250,428.398132 500.083130,428.040710 
z"/>
<path fill="#000000" opacity="1.000000" stroke="none" 
	d="
M544.583740,436.218109 
	C545.780823,438.989929 545.203430,440.900574 542.319641,439.985626 
	C537.756592,438.537964 533.355713,440.579834 528.821594,439.878632 
	C526.278198,439.485291 524.474976,439.000641 524.440796,436.382446 
	C524.401855,433.392548 526.441589,432.362518 529.184814,432.806122 
	C533.193909,433.454498 537.028748,435.039948 541.230713,432.817413 
	C543.278259,431.734497 544.416138,433.776337 544.583740,436.218109 
z"/>
<path fill="#000000" opacity="1.000000" stroke="none" 
	d="
M526.898926,254.617249 
	C530.290222,253.191467 532.970581,253.730087 534.518738,256.660156 
	C536.113892,259.679169 534.876282,262.831726 533.569092,265.572449 
	C532.787415,267.211365 530.568359,267.681000 528.693115,267.226257 
	C526.473083,266.687988 524.772705,265.219849 524.289001,262.943146 
	C523.647095,259.922150 523.832947,256.975769 526.898926,254.617249 
z"/>
<path fill="#000000" opacity="1.000000" stroke="none" 
	d="
M491.052307,282.319977 
	C491.604095,284.839172 492.006104,287.067139 492.466736,289.620087 
	C487.233734,290.954803 481.994232,289.953003 476.859467,289.483521 
	C474.220947,289.242249 475.170837,286.323914 475.165283,284.473541 
	C475.158691,282.283478 476.819092,281.324158 478.519073,282.005402 
	C482.721619,283.689514 486.774597,283.298187 491.052307,282.319977 
z"/>
<path fill="#000000" opacity="1.000000" stroke="none" 
	d="
M546.948853,440.716888 
	C546.799927,436.009064 547.463257,431.738678 546.229675,427.472961 
	C548.455750,427.436768 548.983765,428.730225 548.998169,430.081085 
	C549.051514,435.069427 549.016846,440.061157 548.877747,445.047791 
	C548.831299,446.712463 547.716553,447.983063 546.045654,448.040558 
	C538.405884,448.303436 530.757019,448.655548 523.128418,447.847473 
	C522.601929,447.791718 522.143860,447.089539 521.693054,446.719971 
	C522.340027,444.368103 524.135071,445.107483 525.450562,445.086334 
	C531.108337,444.995270 536.768188,445.033508 542.427307,445.029907 
	C545.036377,445.028259 547.117004,444.417542 546.948853,440.716888 
z"/>
<path fill="#000000" opacity="1.000000" stroke="none" 
	d="
M551.056885,283.385376 
	C553.811951,284.634552 553.667297,286.700653 552.918884,288.588776 
	C552.176819,290.461029 550.260864,290.299622 548.591370,290.108307 
	C545.621338,289.767822 542.669739,289.548859 539.689697,290.082764 
	C537.674438,290.443848 535.868286,290.006195 535.708679,287.577484 
	C535.568604,285.446716 536.243225,283.479980 538.799927,283.265106 
	C541.436157,283.043549 544.004517,281.635986 546.790588,283.139008 
	C547.815308,283.691772 549.371216,283.259766 551.056885,283.385376 
z"/>
<path fill="#000000" opacity="1.000000" stroke="none" 
	d="
M495.466125,379.365173 
	C494.681824,383.092468 492.376068,383.633392 489.403290,383.338989 
	C487.692474,383.169556 485.904846,383.192230 485.479828,381.132782 
	C484.912384,378.383118 484.398651,375.446991 486.269928,373.036804 
	C487.378632,371.608856 489.372528,371.737305 490.888641,372.467102 
	C493.574738,373.760071 496.242279,375.263672 495.466125,379.365173 
z"/>
<path fill="#000000" opacity="1.000000" stroke="none" 
	d="
M489.105652,347.026855 
	C492.043610,347.053558 494.883209,346.802521 495.593628,350.018372 
	C496.144012,352.509766 497.031891,355.713287 493.262329,356.543243 
	C490.311920,357.192871 486.354279,358.036774 485.022552,354.554291 
	C483.973175,351.810059 483.500305,347.588715 489.105652,347.026855 
z"/>
<path fill="#000000" opacity="1.000000" stroke="none" 
	d="
M468.843811,431.330688 
	C471.251892,428.754486 474.281738,429.745361 476.540466,430.141327 
	C481.137024,430.947205 477.579834,435.160095 478.669312,437.714355 
	C479.494965,439.650146 477.487579,440.325928 475.592743,440.427460 
	C469.385925,440.759918 469.388031,440.799438 468.843811,431.330688 
z"/>
<path fill="#000000" opacity="1.000000" stroke="none" 
	d="
M476.672058,445.015015 
	C479.404846,444.948273 481.359283,444.052246 480.834991,441.514221 
	C479.868469,436.835388 483.010651,431.320312 476.824158,427.484741 
	C480.955505,426.106293 482.117706,427.723755 482.700562,430.226898 
	C483.937592,435.539398 481.514130,440.743073 482.156006,446.061920 
	C482.222076,446.609222 481.269562,447.769928 480.707977,447.825928 
	C475.627380,448.332153 470.510529,448.991913 465.495819,447.417267 
	C465.059296,447.280182 464.854034,446.406677 464.277679,445.427032 
	C468.509552,444.433075 472.409576,445.345734 476.672058,445.015015 
z"/>
<path fill="#000000" opacity="1.000000" stroke="none" 
	d="
M381.000458,383.103729 
	C380.202820,382.737946 379.781311,382.448944 379.315033,382.307831 
	C375.555786,381.170135 374.207245,378.324951 375.516663,375.035248 
	C376.824188,371.750336 379.884399,372.922668 382.352722,373.909576 
	C386.041534,375.384430 387.204254,378.273529 385.978058,381.897461 
	C385.217896,384.143982 383.188477,383.762146 381.000458,383.103729 
z"/>
<path fill="#000000" opacity="1.000000" stroke="none" 
	d="
M472.576904,264.009796 
	C473.807465,267.353149 471.483490,267.072113 469.772247,266.965179 
	C467.007446,266.792419 465.214783,265.449921 464.802338,262.403900 
	C463.797089,254.980713 463.727081,254.990189 461.083008,252.225739 
	C462.196320,249.590378 464.452484,250.006363 466.507843,250.432907 
	C469.029388,250.956161 468.439941,253.071960 468.485199,254.868515 
	C468.572357,258.329773 467.092102,262.505737 472.576904,264.009796 
z"/>
<path fill="#000000" opacity="1.000000" stroke="none" 
	d="
M435.330444,355.157227 
	C428.226257,354.712799 427.192230,353.823486 428.340515,349.452820 
	C428.382507,349.292999 428.410400,349.129486 428.446991,348.968201 
	C429.035400,346.376862 431.936188,346.262878 432.667511,347.124969 
	C434.749207,349.579102 440.266876,346.516357 440.104462,351.893250 
	C440.020935,354.658020 438.352264,355.623047 435.330444,355.157227 
z"/>
<path fill="#000000" opacity="1.000000" stroke="none" 
	d="
M384.592163,283.909607 
	C384.945099,285.931152 385.262695,287.657867 385.603485,289.510498 
	C381.843475,291.184021 378.446625,288.798889 375.047363,289.534729 
	C374.185547,286.912415 374.498993,284.825775 375.009766,282.636292 
	C377.694275,280.883301 380.932220,283.336548 383.689240,281.587036 
	C384.076263,281.341461 384.520081,282.785950 384.592163,283.909607 
z"/>
<path fill="#000000" opacity="1.000000" stroke="none" 
	d="
M436.451324,285.201294 
	C437.818512,283.171539 438.810303,280.668579 441.331451,281.310547 
	C443.464172,281.853577 444.593353,283.956970 444.878723,286.264557 
	C445.350311,290.077728 442.853973,292.184753 439.634186,290.148193 
	C438.380463,289.355194 431.942322,290.716217 436.451324,285.201294 
z"/>
<path fill="#000000" opacity="1.000000" stroke="none" 
	d="
M669.262390,286.394592 
	C669.190002,289.882782 667.592590,291.470612 664.534973,291.034668 
	C662.158569,290.695831 661.246887,288.686768 661.447205,286.601501 
	C661.709839,283.868164 663.287170,281.190094 665.962585,280.918884 
	C669.076172,280.603241 670.070679,283.044525 669.262390,286.394592 
z"/>
<path fill="#000000" opacity="1.000000" stroke="none" 
	d="
M569.806213,429.235718 
	C568.706543,428.581940 567.834290,428.150635 566.896729,427.687012 
	C571.608032,426.694946 573.030273,427.655121 573.130676,432.070038 
	C573.194946,434.895416 572.950684,437.726288 572.932373,440.555298 
	C572.881104,448.441467 568.985352,450.609558 561.189636,446.684845 
	C562.912231,444.927307 565.019714,445.818451 566.788879,445.589752 
	C570.658752,445.089508 572.508301,443.375641 571.617126,439.235596 
	C570.923279,436.012177 570.549622,432.719849 569.806213,429.235718 
z"/>
<path fill="#000000" opacity="1.000000" stroke="none" 
	d="
M512.321777,282.324158 
	C513.427429,285.604614 515.370972,289.243622 510.093536,290.059021 
	C507.537689,290.453888 505.068176,289.693665 504.940125,286.233093 
	C504.829926,283.255219 505.501678,281.308533 509.152191,282.298859 
	C510.033905,282.538055 511.072205,282.199921 512.321777,282.324158 
z"/>
<path fill="#000000" opacity="1.000000" stroke="none" 
	d="
M385.505280,348.611694 
	C384.882446,353.329315 383.013855,356.217407 377.743256,354.069031 
	C376.417938,351.296112 377.029816,349.246033 379.884186,347.264130 
	C382.458527,345.476654 383.738800,346.749969 385.505280,348.611694 
z"/>
<path fill="#000000" opacity="1.000000" stroke="none" 
	d="
M468.987305,284.089355 
	C469.989594,286.300415 470.478851,288.276367 468.307404,289.583618 
	C467.161865,290.273224 465.657990,290.333405 464.514191,289.599091 
	C462.838287,288.523132 463.049561,286.552216 463.504883,285.101471 
	C464.422882,282.176727 466.652344,282.929260 468.987305,284.089355 
z"/>
<path fill="#000000" opacity="1.000000" stroke="none" 
	d="
M565.924561,439.898346 
	C562.708923,439.083710 562.858093,436.868713 563.276672,434.716766 
	C563.625732,432.922333 565.101868,432.557709 566.723572,432.715698 
	C568.380127,432.877106 569.598083,433.745422 569.826050,435.394867 
	C570.183655,437.982544 568.725769,439.361206 565.924561,439.898346 
z"/>
<path fill="#000000" opacity="1.000000" stroke="none" 
	d="
M528.977417,285.986145 
	C528.777893,288.399719 529.390991,290.914886 525.698364,291.037384 
	C525.698364,287.721985 525.698364,284.569946 525.698364,281.399841 
	C528.577637,281.784882 528.577637,281.784882 528.977417,285.986145 
z"/>
<path fill="#000000" opacity="1.000000" stroke="none" 
	d="
M499.764038,282.594727 
	C501.319092,280.632263 502.847809,279.406158 503.161285,282.873749 
	C503.394958,285.458344 503.207336,288.081024 503.207336,291.986389 
	C498.405273,289.571716 500.133484,285.799347 499.764038,282.594727 
z"/>
<path fill="#000000" opacity="1.000000" stroke="none" 
	d="
M456.443542,285.509583 
	C456.801086,289.929565 456.801086,289.929565 453.156342,289.170837 
	C453.306976,286.968201 453.815643,284.741577 453.166351,282.272736 
	C456.146973,281.357605 457.850952,281.461792 456.443542,285.509583 
z"/>
<path fill="#000000" opacity="1.000000" stroke="none" 
	d="
M514.697754,433.208252 
	C516.028625,436.280029 515.038147,438.644928 512.624146,441.167236 
	C511.018982,437.638336 511.992950,435.228241 514.697754,433.208252 
z"/>
<path fill="#000000" opacity="1.000000" stroke="none" 
	d="
M557.182861,437.095947 
	C555.888672,439.303802 554.348877,440.170502 552.329346,438.378845 
	C551.386780,437.542694 551.632263,436.598877 552.460754,435.840149 
	C554.444641,434.023438 555.981506,434.644653 557.182861,437.095947 
z"/>
<path fill="#000000" opacity="1.000000" stroke="none" 
	d="
M515.026489,286.644226 
	C514.827026,285.012878 514.266235,283.635986 516.205994,282.403259 
	C517.301331,284.223297 518.380615,286.016754 519.524170,287.916840 
	C517.233093,289.936432 516.077881,288.914093 515.026489,286.644226 
z"/>
<path fill="#000000" opacity="1.000000" stroke="none" 
	d="
M422.363647,285.393188 
	C422.433868,283.905823 422.443237,282.716492 424.161011,282.227905 
	C426.154144,284.605774 425.359131,287.044739 424.558960,289.625916 
	C421.707489,289.199432 422.969055,287.017303 422.363647,285.393188 
z"/>
<path fill="#000000" opacity="1.000000" stroke="none" 
	d="
M443.607666,154.923248 
	C446.252777,155.892670 445.534393,157.072174 444.177063,158.227005 
	C440.871002,161.039871 430.963013,160.878113 427.551819,157.966293 
	C426.668091,157.211929 425.563843,156.406647 426.308655,155.074875 
	C427.065552,153.721436 428.311401,154.092819 429.330811,154.767548 
	C433.949768,157.824768 438.587280,156.383148 443.607666,154.923248 
z"/>
<path fill="#000000" opacity="1.000000" stroke="none" 
	d="
M421.998779,149.998779 
	C421.828003,148.884216 421.419830,147.743011 421.541199,146.661224 
	C421.731018,144.969437 423.027069,144.101990 424.651733,144.175278 
	C426.429840,144.255478 427.817383,145.177475 427.995819,147.105591 
	C428.152740,148.801025 427.168396,149.918930 425.549835,150.243240 
	C424.625427,150.428421 423.622833,150.223099 422.327698,150.096802 
	C422.000000,150.000000 421.998779,149.998779 421.998779,149.998779 
z"/>
<path fill="#000000" opacity="1.000000" stroke="none" 
	d="
M449.547424,151.528976 
	C446.937012,152.385437 445.234833,151.779434 444.550018,149.391830 
	C444.197021,148.161102 444.732361,147.090195 445.825806,146.405899 
	C447.231995,145.525879 448.753723,145.458588 449.982544,146.575027 
	C451.657257,148.096603 451.422424,149.776825 449.547424,151.528976 
z"/>
<path fill="#000000" opacity="1.000000" stroke="none" 
	d="
M422.001068,150.000610 
	C422.868317,152.014191 421.961212,153.311951 420.096252,153.750107 
	C417.760590,154.298859 415.205078,155.766754 412.500000,152.885437 
	C415.761841,151.822891 418.500519,150.930771 421.618988,150.018707 
	C421.998779,149.998779 422.000000,150.000000 422.001068,150.000610 
z"/>
<path fill="#000000" opacity="1.000000" stroke="none" 
	d="
M460.700684,156.572525 
	C457.695892,156.475616 457.834747,154.884155 458.802826,153.213165 
	C459.516998,151.980469 460.856720,152.038925 461.844299,152.868912 
	C463.726929,154.451172 463.124237,155.676117 460.700684,156.572525 
z"/>
</svg>