<svg version="1.1" id="Layer_1" xmlns="http://www.w3.org/2000/svg" xmlns:xlink="http://www.w3.org/1999/xlink" x="0px" y="0px"
	 width="100%" viewBox="0 0 1024 576" enable-background="new 0 0 1024 576" xml:space="preserve">
<path fill="#000000" opacity="1.000000" stroke="none" 
	d="
M508.999939,130.351379 
	C499.674103,130.381760 490.844147,130.264496 482.024414,130.511887 
	C478.384766,130.613983 476.885071,129.528656 476.940552,125.750351 
	C477.072540,116.760612 477.019287,107.764526 476.830017,98.775444 
	C476.750427,94.996826 478.444855,93.844414 481.956268,93.853981 
	C505.436401,93.917931 528.917114,93.939468 552.396790,93.822868 
	C556.378540,93.803093 557.560181,95.315819 557.452393,99.179169 
	C557.206299,107.998360 557.159546,116.835587 557.450562,125.651657 
	C557.581970,129.632324 555.906555,130.464737 552.463745,130.438828 
	C538.143066,130.331039 523.821289,130.367294 508.999939,130.351379 
z"/>
<path fill="#000000" opacity="1.000000" stroke="none" 
	d="
M520.999878,56.849667 
	C537.247253,57.171066 553.035522,56.292854 570.517639,57.899048 
	C564.777649,62.695526 566.402466,67.781258 566.738220,72.593376 
	C566.938599,75.466187 565.534241,76.504341 563.256897,75.919937 
	C557.979309,74.565590 552.781494,76.300285 547.510010,75.942810 
	C543.804382,75.691521 541.835999,74.980515 541.739502,71.030304 
	C541.678284,68.527908 540.847229,65.959526 537.718201,66.664589 
	C534.935364,67.291626 535.164185,69.531403 536.148682,71.880920 
	C537.774170,75.760422 534.774902,76.869110 532.123962,76.905067 
	C529.227600,76.944359 526.202820,78.377960 523.633606,76.216797 
	C520.469788,79.005577 522.236633,84.576683 517.145630,85.451332 
	C514.432495,85.917458 511.894653,85.958755 509.237488,84.082245 
	C510.975067,82.319839 513.049744,82.929123 514.835815,82.886597 
	C518.488892,82.799599 519.955627,80.958572 519.724060,77.493507 
	C519.435486,73.175522 519.045471,68.863152 518.830811,64.541824 
	C518.702454,61.958023 517.263611,61.027569 514.951538,61.024529 
	C498.791199,61.003296 482.630829,61.006912 466.470490,60.987370 
	C463.247467,60.983471 462.083984,62.723648 462.125824,65.742050 
	C462.181213,69.740181 462.216980,73.744232 462.061768,77.737984 
	C461.918091,81.435120 463.596069,82.684952 467.174286,82.695618 
	C474.470367,82.717384 481.793945,82.280281 489.516754,83.241402 
	C488.371002,85.276794 486.596436,85.397461 485.121368,85.597969 
	C477.661652,86.611908 470.156769,86.178177 462.667877,86.001732 
	C459.794922,85.934036 458.495056,83.945099 458.407501,81.369873 
	C458.181274,74.715408 458.003906,68.051826 458.105652,61.396442 
	C458.167633,57.339470 461.273102,56.831287 464.510376,56.835068 
	C477.341370,56.850063 490.172363,56.860840 503.003357,56.866978 
	C508.835541,56.869770 514.667725,56.858109 520.999878,56.849667 
M548.953918,66.334778 
	C550.481812,68.203606 552.156555,68.201607 554.087708,66.911476 
	C551.985779,64.154228 551.985779,64.154228 548.953918,66.334778 
z"/>
<path fill="#000000" opacity="1.000000" stroke="none" 
	d="
M527.707886,478.779846 
	C523.401550,478.879730 519.578552,477.712311 515.548157,478.084595 
	C512.683228,478.349213 511.461517,476.128662 512.653870,473.285431 
	C513.709106,470.769104 520.953674,468.156006 523.379700,469.423981 
	C524.403442,469.959106 525.450012,471.180145 526.499573,470.600677 
	C531.778625,467.685852 536.958069,470.918213 542.208557,470.780396 
	C559.897705,470.316162 577.610413,470.714142 595.313538,470.852661 
	C597.421997,470.869141 600.561462,469.879059 600.302734,473.749786 
	C600.102844,476.740112 598.543518,478.370819 595.082031,478.336304 
	C581.525146,478.201202 567.959595,478.091553 554.409180,478.437439 
	C545.629150,478.661591 536.834106,477.612457 527.707886,478.779846 
z"/>
<path fill="#000000" opacity="1.000000" stroke="none" 
	d="
M543.627869,23.607729 
	C552.195557,23.607174 560.336853,23.602484 568.478027,23.643650 
	C570.430847,23.653524 572.791138,23.282988 572.729126,26.376043 
	C572.674927,29.079319 571.375549,30.849976 568.493408,30.859610 
	C560.222900,30.887255 551.952087,30.824257 543.681396,30.820078 
	C540.220642,30.818329 536.759766,30.907951 533.299072,30.899527 
	C518.391846,30.863237 503.484253,30.848217 488.577667,30.722750 
	C485.379333,30.695827 483.605042,27.224148 485.893768,25.124752 
	C488.475891,22.756241 491.641724,20.485514 495.694946,22.102835 
	C496.601257,22.464472 497.709503,23.489620 498.323456,23.236382 
	C505.761169,20.168514 513.218018,25.265560 521.157654,22.583319 
	C525.451904,21.132591 531.726807,23.819820 537.214417,23.601679 
	C539.206726,23.522484 541.205627,23.609324 543.627869,23.607729 
z"/>
<path fill="#000000" opacity="1.000000" stroke="none" 
	d="
M524.160156,307.764709 
	C525.943481,307.745789 527.288757,307.848755 528.606689,307.703400 
	C533.227722,307.193756 535.006470,309.576721 534.993958,313.833557 
	C534.983643,317.331451 534.883545,320.829590 534.912598,324.326935 
	C534.946960,328.461578 533.130615,330.364838 528.836365,330.277435 
	C521.176453,330.121552 513.505615,330.112122 505.848755,330.347321 
	C501.208099,330.489868 498.344086,329.264862 498.713776,323.996948 
	C498.795593,322.831207 498.416168,321.681793 497.148315,320.678894 
	C494.963715,320.863281 492.054962,322.530487 490.456238,318.730774 
	C492.003510,314.985596 494.631714,315.515228 497.471375,317.381287 
	C501.063843,311.286713 506.570923,313.756287 511.203918,314.393188 
	C517.349915,315.238068 523.338196,313.392120 529.410889,314.173462 
	C530.332642,314.292084 530.813538,313.350861 530.745300,312.423157 
	C530.623352,310.764740 529.442444,310.149902 528.009827,310.085114 
	C524.597168,309.930847 521.097717,310.410248 517.632324,308.552277 
	C519.783508,307.486694 521.797607,308.033844 524.160156,307.764709 
M529.520386,325.878784 
	C532.555115,323.138611 529.636719,322.651428 527.968140,322.516205 
	C524.027405,322.196899 520.024231,322.033051 516.096619,322.378296 
	C513.377625,322.617340 510.325104,322.312439 507.970398,324.841766 
	C514.891052,326.208801 521.753845,327.564117 529.520386,325.878784 
z"/>
<path fill="#000000" opacity="1.000000" stroke="none" 
	d="
M544.310913,246.748703 
	C541.758423,247.990662 540.178589,247.454788 540.309998,244.888138 
	C540.440247,242.343567 540.362671,238.611237 543.964111,238.866440 
	C553.117676,239.515076 562.260620,236.899551 571.365479,238.992783 
	C572.335083,239.215698 573.520264,239.972366 574.128479,239.035080 
	C576.877014,234.799866 580.114502,237.290894 583.301208,238.119827 
	C588.359802,239.435669 593.534424,238.428848 598.650085,238.717743 
	C600.760193,238.836899 602.847900,238.772522 603.123718,241.461700 
	C603.397095,244.126709 602.148621,245.493790 599.403870,246.393524 
	C591.710388,248.915466 584.819092,246.200134 576.929871,244.417496 
	C575.028015,247.589661 571.457153,247.112671 567.300110,246.558350 
	C559.814636,245.560165 552.213257,245.911224 544.310913,246.748703 
z"/>
<path fill="#000000" opacity="1.000000" stroke="none" 
	d="
M361.146057,300.712585 
	C359.040680,304.256042 355.086731,303.760284 352.640869,303.545410 
	C348.608398,303.191071 344.155487,303.467712 340.533600,301.894043 
	C337.472778,300.564209 335.046661,300.416687 332.131165,301.851746 
	C330.414886,298.703430 328.990295,295.807251 332.074646,293.144714 
	C334.418884,291.121094 340.383575,292.770203 342.912628,295.906525 
	C344.818115,295.680542 346.544373,294.711945 348.602356,294.593323 
	C352.579437,294.364136 356.623077,295.422302 360.560760,292.668396 
	C362.350342,291.416779 365.983978,292.700531 368.764801,292.990784 
	C373.218140,293.455688 377.526886,295.063934 382.088409,294.703583 
	C385.169678,294.460205 387.635803,295.440979 387.568604,298.865234 
	C387.504272,302.144623 384.761108,303.453552 381.998199,303.408051 
	C378.211243,303.345703 374.339630,302.950104 370.685120,302.001099 
	C367.607666,301.201904 364.055145,304.144562 361.146057,300.712585 
z"/>
<path fill="#000000" opacity="1.000000" stroke="none" 
	d="
M475.401978,302.475525 
	C470.315277,302.146301 465.560699,301.808746 460.933624,303.030731 
	C457.982727,303.810089 456.604370,302.155090 455.318512,300.104980 
	C454.324097,298.519470 453.382751,296.780518 454.783173,295.041962 
	C456.366211,293.076691 458.332245,292.534454 461.078766,292.157562 
	C467.965790,291.212524 474.444916,293.801666 481.196472,293.974457 
	C487.141815,294.126587 492.538971,292.037720 498.309235,292.325684 
	C500.404785,292.430237 501.803833,292.590668 502.837067,294.202881 
	C504.184113,296.304718 504.350403,298.581543 503.090790,300.823181 
	C502.023438,302.722717 500.529694,303.959290 498.200623,303.235352 
	C490.782257,300.929443 483.234955,302.962677 475.401978,302.475525 
z"/>
<path fill="#000000" opacity="1.000000" stroke="none" 
	d="
M437.597839,204.234482 
	C440.588531,203.347656 437.993927,199.556183 441.956024,198.051498 
	C441.956024,204.120667 442.108490,209.815079 441.878632,215.494034 
	C441.790466,217.672638 439.756470,218.304794 437.789307,218.312698 
	C430.472290,218.342087 423.154907,218.339600 415.837891,218.305893 
	C413.908844,218.297012 411.904358,217.886414 411.744019,215.563370 
	C411.345093,209.785049 410.413300,203.962845 412.204071,198.243042 
	C412.376862,197.691132 412.911377,197.252472 414.153290,195.588348 
	C413.452148,201.357422 416.134155,201.817825 419.773956,201.701874 
	C424.320709,201.557037 428.805939,203.841705 433.480682,201.778458 
	C435.166626,201.034348 436.635773,202.306656 437.597839,204.234482 
M429.525665,214.020630 
	C431.844635,213.950333 434.166534,213.928116 436.481293,213.788010 
	C437.525574,213.724792 438.430237,213.239227 438.480927,212.008469 
	C438.520660,211.043655 437.886017,210.346024 437.025482,210.294388 
	C431.538452,209.965164 426.259918,211.040283 420.978149,212.394547 
	C423.385803,214.624741 426.055420,213.932938 429.525665,214.020630 
z"/>
<path fill="#000000" opacity="1.000000" stroke="none" 
	d="
M480.887634,370.366974 
	C486.788330,371.405029 492.319489,372.243622 497.799652,369.987030 
	C498.576080,369.667297 499.706604,370.227966 500.676788,370.353729 
	C502.309479,370.565399 503.975494,370.621002 505.572510,370.984070 
	C508.260681,371.595184 509.689972,367.044922 512.754639,369.362976 
	C515.007019,371.066650 512.934143,374.320557 515.231384,376.122009 
	C518.632690,374.388184 515.549683,372.089661 515.886963,369.735138 
	C523.560669,368.136932 519.499268,376.340149 524.135193,378.167358 
	C519.181030,380.476471 515.004761,378.790863 511.155823,379.711609 
	C504.645081,381.269135 498.183685,378.379028 491.571472,379.387390 
	C487.024902,380.080719 482.316010,379.769623 477.679535,379.774292 
	C476.383392,379.775604 474.553802,379.444916 474.687042,377.820160 
	C474.905762,375.153351 473.563660,372.157867 476.184052,369.852020 
	C477.878967,368.360535 479.171600,369.006683 480.887634,370.366974 
z"/>
<path fill="#000000" opacity="1.000000" stroke="none" 
	d="
M444.421082,189.562286 
	C432.978729,191.081711 421.824402,188.568085 410.760864,190.507736 
	C407.124634,191.145264 405.842072,188.459351 405.977600,185.144592 
	C406.106873,181.983353 407.016876,179.338242 410.942596,180.014008 
	C415.389374,180.779434 420.326324,178.791428 424.295868,182.339920 
	C424.478973,182.503601 424.998688,182.477097 425.258331,182.341461 
	C431.151459,179.262604 437.647461,183.600006 443.630127,180.807220 
	C445.245941,180.052933 446.916962,180.765350 447.134125,183.074005 
	C447.247253,184.276245 446.735870,185.870255 448.735626,186.239334 
	C451.167908,184.629715 448.432556,182.160339 449.853271,180.067902 
	C453.911499,180.141769 454.359253,183.063232 454.070953,186.083801 
	C453.787109,189.057175 452.279602,191.114822 448.746155,190.367004 
	C447.445404,190.091690 446.131622,189.878174 444.421082,189.562286 
z"/>
<path fill="#000000" opacity="1.000000" stroke="none" 
	d="
M389.636475,313.956360 
	C393.224915,316.260803 396.722900,314.596863 399.828217,314.143555 
	C404.976746,313.392029 409.633148,316.651367 414.842041,315.199615 
	C417.019623,319.352661 415.620758,323.626770 414.969116,327.784485 
	C414.632904,329.929779 412.449158,330.164215 410.554291,330.169647 
	C402.252869,330.193512 393.951050,330.158661 385.649963,330.221863 
	C381.697144,330.251953 379.787720,328.427277 379.946228,324.464752 
	C379.959503,324.133636 379.933472,323.800934 379.924774,323.468964 
	C379.695160,314.686096 380.316467,314.051392 389.636475,313.956360 
M386.273407,325.985016 
	C393.876495,327.229218 401.532990,326.732758 409.174408,326.659882 
	C410.699615,326.645355 412.332733,326.433441 412.574280,324.488098 
	C412.751801,323.058533 411.773926,322.460480 410.431305,322.318024 
	C402.489075,321.475189 394.552765,322.610016 386.607819,322.471375 
	C385.327362,322.449005 382.296997,323.614960 386.273407,325.985016 
z"/>
<path fill="#000000" opacity="1.000000" stroke="none" 
	d="
M589.996094,317.063477 
	C639.798462,318.455780 689.127075,317.123444 739.150391,317.760590 
	C735.926941,320.768829 569.649597,321.355560 565.398499,318.298431 
	C573.317627,316.504364 581.458008,317.400696 589.996094,317.063477 
z"/>
<path fill="#000000" opacity="1.000000" stroke="none" 
	d="
M349.714294,200.881500 
	C349.356018,196.717438 350.506012,194.872101 354.815063,195.512634 
	C357.536957,195.917252 360.418610,195.142731 363.233643,195.049850 
	C367.066193,194.923401 369.185333,196.762894 369.209381,200.713150 
	C369.235687,205.035797 369.231079,209.358612 369.250824,213.681290 
	C369.263489,216.452530 368.000641,218.187408 365.151489,218.265671 
	C361.162811,218.375229 357.164307,218.406311 353.178436,218.252396 
	C349.665161,218.116714 348.771515,215.810638 349.196716,212.710007 
	C349.716766,208.917725 350.291260,205.129669 349.714294,200.881500 
M361.473663,214.012924 
	C363.125916,213.698380 365.175507,214.651169 366.298584,212.557205 
	C364.725220,210.935944 354.798553,209.462677 353.192719,210.666656 
	C352.749023,210.999313 352.390533,211.743683 352.386414,212.302063 
	C352.377960,213.443207 353.285889,214.222351 354.265656,214.263397 
	C356.385681,214.352234 358.518341,214.140198 361.473663,214.012924 
z"/>
<path fill="#000000" opacity="1.000000" stroke="none" 
	d="
M359.985840,330.240265 
	C358.849060,330.236176 358.180847,330.281372 357.522461,330.220428 
	C354.688538,329.958099 350.727448,331.367981 349.741241,327.653748 
	C348.772827,324.006714 347.980499,320.038239 352.193787,316.717133 
	C354.631470,314.795654 354.984833,310.989929 350.444489,309.824921 
	C350.509277,308.050018 351.480347,307.315430 352.707550,307.348358 
	C357.009857,307.463715 361.318695,307.626038 365.603088,308.013519 
	C368.411072,308.267456 369.478088,310.229187 369.401611,312.923431 
	C369.321625,315.742615 369.228516,318.563019 369.232513,321.382782 
	C369.245087,330.247803 369.261719,330.247772 359.985840,330.240265 
M364.362976,325.306824 
	C365.095337,324.428009 364.659668,323.384064 363.813354,323.818817 
	C360.975616,325.276794 358.420380,324.273438 355.743286,323.569794 
	C354.702606,323.296265 353.449249,322.911835 352.567719,325.018311 
	C356.289886,326.761505 360.091522,325.734863 364.362976,325.306824 
z"/>
<path fill="#000000" opacity="1.000000" stroke="none" 
	d="
M441.905945,271.668549 
	C440.810211,274.034363 439.029144,274.284180 437.136017,274.286194 
	C430.326080,274.293488 423.515961,274.272644 416.706238,274.312775 
	C413.521149,274.331512 411.899902,273.120300 411.669556,269.654572 
	C411.382385,265.334503 411.412323,261.099121 412.298859,256.481995 
	C413.695435,257.830963 414.429291,258.988190 416.827179,258.394684 
	C422.576630,256.971649 428.603577,260.045807 434.494171,258.035278 
	C434.733917,257.953461 435.291077,258.162354 435.379913,258.371735 
	C437.272888,262.832733 444.243256,264.682678 441.905945,271.668549 
M431.241730,266.409363 
	C426.514435,267.293915 421.520386,266.498901 416.201843,268.237396 
	C422.913513,271.899261 436.235565,271.160126 438.678375,267.273193 
	C436.538574,266.032471 434.176727,266.651367 431.241730,266.409363 
z"/>
<path fill="#000000" opacity="1.000000" stroke="none" 
	d="
M558.973755,329.427429 
	C546.849731,332.016815 545.173157,330.720734 544.941040,319.103699 
	C544.924561,318.276306 544.893372,317.449036 544.888306,316.621613 
	C544.833923,307.749908 548.718201,304.956146 557.390564,307.551392 
	C558.942078,308.015747 560.129272,308.755127 560.536804,310.364563 
	C562.155640,316.759155 563.243164,323.130096 558.973755,329.427429 
z"/>
<path fill="#000000" opacity="1.000000" stroke="none" 
	d="
M352.612396,260.719421 
	C353.303131,257.664917 355.365997,255.420761 355.052917,252.494202 
	C355.705109,252.291916 356.164032,252.042648 356.634125,252.019394 
	C368.984863,251.408493 369.023163,251.448456 369.195679,263.857025 
	C369.342438,274.415253 369.342438,274.415314 358.579010,274.357727 
	C358.413147,274.356842 358.244843,274.370331 358.081787,274.347626 
	C355.121216,273.935120 350.763702,275.748840 349.734253,271.977051 
	C348.761780,268.413971 348.871429,264.016998 352.612396,260.719421 
M355.817322,269.999542 
	C356.890991,269.774963 358.619873,269.553619 356.846741,268.184570 
	C355.496765,267.142242 353.634125,265.932983 351.697998,267.485565 
	C351.795624,270.059265 353.642700,269.810089 355.817322,269.999542 
z"/>
<path fill="#000000" opacity="1.000000" stroke="none" 
	d="
M488.176483,317.514648 
	C488.842773,330.246338 488.842773,330.245972 476.415527,330.250488 
	C473.084106,330.251709 469.752686,330.257416 466.421265,330.258850 
	C458.026855,330.262421 457.853607,330.103790 457.873657,321.510498 
	C457.878265,319.538422 457.617096,317.509308 458.644745,316.206451 
	C465.219513,310.973053 472.518250,317.198761 479.334839,314.265625 
	C483.569916,312.443329 482.529175,317.318176 484.094177,318.794312 
	C486.094696,318.947998 485.958466,317.087402 486.837860,316.281219 
	C488.223083,315.011292 487.787567,316.750763 488.176483,317.514648 
M465.474731,322.827881 
	C463.601501,322.776978 461.493927,322.156464 460.543549,324.672699 
	C464.732605,327.261230 480.627136,326.728333 484.006409,323.868805 
	C478.147003,321.153687 472.093781,324.006683 465.474731,322.827881 
z"/>
<path fill="#000000" opacity="1.000000" stroke="none" 
	d="
M489.317322,246.274933 
	C485.162964,246.193222 481.407288,246.027588 477.657318,246.112900 
	C475.698181,246.157471 473.848480,246.174103 473.179535,243.986176 
	C472.517975,241.822311 473.323456,240.071396 475.372345,238.991074 
	C479.454529,236.838654 483.947845,237.112106 488.332184,236.945724 
	C490.364929,236.868591 490.458191,239.224213 491.454712,240.270142 
	C499.470306,236.554230 508.320312,241.128967 516.102600,237.217743 
	C518.656128,242.917526 516.701050,246.171524 511.107819,246.155701 
	C503.978180,246.135529 496.848206,246.242783 489.317322,246.274933 
z"/>
<path fill="#000000" opacity="1.000000" stroke="none" 
	d="
M341.033875,181.867767 
	C346.244507,180.132309 351.057587,180.334229 355.943604,181.646881 
	C358.078339,182.220367 360.203644,181.476318 362.329376,180.979248 
	C365.935242,180.136093 368.200409,181.747726 368.753571,185.366928 
	C369.365448,189.370361 366.729431,190.384064 363.547241,190.117432 
	C353.934418,189.311996 344.323242,189.553986 334.700989,189.707916 
	C330.890533,189.768875 330.590424,186.832916 330.956635,184.029953 
	C331.358368,180.955643 333.260529,179.771744 336.333191,180.699097 
	C337.755585,181.128387 339.201141,181.480957 341.033875,181.867767 
z"/>
<path fill="#000000" opacity="1.000000" stroke="none" 
	d="
M398.276672,395.114807 
	C397.558838,399.586060 395.612885,400.706238 392.200256,397.932861 
	C391.506683,397.369232 390.871735,396.901794 390.000458,397.076050 
	C383.048859,398.466370 375.767090,395.595245 368.890289,399.132690 
	C365.098938,401.082916 364.251526,397.701416 363.373505,394.872589 
	C362.261139,391.288849 363.854889,389.024261 367.113708,388.751526 
	C371.594788,388.376526 376.116486,390.095398 380.517975,387.089691 
	C382.366180,385.827576 382.381958,389.172882 383.579681,390.365631 
	C387.437622,387.723328 391.819977,389.703644 395.994720,389.305145 
	C399.289551,388.990662 398.362732,392.505554 398.276672,395.114807 
z"/>
<path fill="#000000" opacity="1.000000" stroke="none" 
	d="
M343.471130,239.071472 
	C350.255280,237.699707 356.945709,239.819366 363.488037,237.513245 
	C365.900421,236.662888 368.509766,239.037170 368.822815,242.192780 
	C369.151947,245.510727 367.026642,246.706802 364.178741,246.522385 
	C361.456177,246.346085 358.496063,247.344971 356.049225,245.178253 
	C355.631287,244.808136 354.623505,244.533020 354.245544,244.774170 
	C348.190613,248.637253 341.522675,245.258484 335.257416,246.451248 
	C333.407990,246.803329 331.800079,246.145523 331.292664,244.295227 
	C330.680664,242.063751 330.297485,239.660294 332.139618,237.713623 
	C333.563904,236.208527 335.243561,235.798569 337.008270,237.200806 
	C338.821808,238.641846 341.204865,238.074417 343.471130,239.071472 
z"/>
<path fill="#000000" opacity="1.000000" stroke="none" 
	d="
M467.009216,215.838684 
	C463.214447,220.002792 458.878204,218.233765 454.741486,217.664520 
	C453.774292,217.531433 453.056366,216.483322 452.994476,215.428375 
	C452.663025,209.781464 452.037842,203.981171 453.611725,198.563293 
	C455.118500,193.376495 460.225067,196.252640 463.666565,195.626816 
	C466.431854,195.123962 467.040680,197.801300 467.227661,200.044189 
	C467.654999,205.171204 468.217072,210.307800 467.009216,215.838684 
M457.857605,198.183456 
	C456.536224,198.889282 456.050781,199.968369 457.670563,200.553284 
	C459.516266,201.219757 461.747742,201.749405 462.615997,199.014053 
	C461.406128,197.070023 459.865295,198.031616 457.857605,198.183456 
z"/>
<path fill="#000000" opacity="1.000000" stroke="none" 
	d="
M456.971741,236.827438 
	C459.494537,237.782196 461.274231,239.426865 464.108704,238.889969 
	C467.101898,238.322998 468.380371,240.291321 467.789490,243.161728 
	C467.229919,245.879868 466.023834,249.024475 462.705078,247.836395 
	C455.649689,245.310638 448.727081,246.240524 441.646454,247.119415 
	C437.675201,247.612366 436.544159,244.459564 436.293365,241.382599 
	C436.016693,237.988602 438.113556,235.794403 441.435486,236.276367 
	C444.621643,236.738617 448.040100,235.901413 451.043488,237.948486 
	C453.028198,239.301208 454.780487,237.419281 456.971741,236.827438 
z"/>
<path fill="#000000" opacity="1.000000" stroke="none" 
	d="
M428.482422,294.398010 
	C431.879608,294.255890 434.805359,294.503174 437.988831,293.334839 
	C441.413239,292.078094 445.368896,293.727020 448.645782,295.650940 
	C450.072876,296.488800 450.038727,298.167755 449.540161,299.714294 
	C448.961029,301.510864 447.624573,302.440399 445.871460,302.655548 
	C437.084320,303.733856 428.347992,302.171509 419.581421,302.033813 
	C417.171875,301.995941 416.868073,299.974670 416.851624,298.035431 
	C416.835327,296.113678 417.610901,294.800507 419.699646,294.701172 
	C422.517639,294.567169 425.338684,294.497284 428.482422,294.398010 
z"/>
<path fill="#000000" opacity="1.000000" stroke="none" 
	d="
M346.773987,415.648560 
	C346.999481,411.715912 348.723389,409.938049 352.331543,410.865723 
	C361.814209,413.303833 371.425934,411.901520 380.952454,411.677185 
	C388.027252,411.510590 388.014191,410.956299 386.368835,419.042755 
	C380.919006,417.963898 375.388489,420.119995 369.664795,418.035339 
	C367.123566,417.109772 363.809265,417.994904 360.908752,418.454742 
	C357.968048,418.920929 355.099701,420.115265 352.500488,417.573608 
	C351.345367,416.444092 350.430634,417.447632 349.413818,418.002167 
	C347.250183,419.182159 346.802216,417.841431 346.773987,415.648560 
z"/>
<path fill="#000000" opacity="1.000000" stroke="none" 
	d="
M425.571655,238.653015 
	C429.302948,238.217422 430.545471,240.378403 430.598877,243.103760 
	C430.658142,246.130524 428.092041,247.188843 425.741791,246.878845 
	C419.598297,246.068512 413.471130,247.144073 407.361206,246.599579 
	C405.828308,246.462967 404.377258,246.404694 402.972076,247.082108 
	C400.873322,248.093872 398.630035,248.242126 398.410706,245.465286 
	C398.209015,242.911896 397.626038,238.635086 401.528198,238.779770 
	C409.441864,239.073120 417.329071,236.730362 425.571655,238.653015 
z"/>
<path fill="#000000" opacity="1.000000" stroke="none" 
	d="
M582.039246,379.630432 
	C579.632324,379.428528 577.641113,379.067657 575.665527,379.138794 
	C572.747437,379.243866 571.258118,378.053925 571.253235,375.127747 
	C571.247986,371.982025 573.386536,371.228210 575.926575,371.238739 
	C583.203918,371.268890 590.489319,370.614014 597.758850,371.519104 
	C600.815063,371.899597 604.414368,369.496368 606.923157,373.397064 
	C604.310364,377.975739 600.145264,379.790497 595.256287,379.169006 
	C590.894714,378.614563 586.711731,379.191040 582.039246,379.630432 
z"/>
<path fill="#000000" opacity="1.000000" stroke="none" 
	d="
M634.133667,246.703278 
	C626.293030,248.742050 618.665283,245.128326 611.210449,247.205307 
	C608.871948,247.856842 608.102722,246.620880 608.096008,244.668259 
	C608.085754,241.683960 608.517151,238.759598 612.407532,238.656540 
	C617.043640,238.533722 621.686401,238.677185 626.326172,238.668732 
	C629.233093,238.663452 632.233826,239.380203 634.624329,236.672653 
	C635.752136,235.395355 637.130249,236.475388 638.040405,237.474594 
	C639.615784,239.204041 640.114624,241.301605 639.278931,243.496597 
	C638.476685,245.603622 637.262939,247.386536 634.133667,246.703278 
z"/>
<path fill="#000000" opacity="1.000000" stroke="none" 
	d="
M398.794861,374.870941 
	C398.821259,369.204010 400.985687,367.523224 406.845703,369.340179 
	C409.567535,370.184082 412.158081,370.891235 415.002319,370.960602 
	C417.694122,371.026184 419.398041,372.356293 419.155060,375.344177 
	C418.929779,378.114319 417.448669,379.523560 414.626740,379.513245 
	C409.182220,379.493347 403.730255,379.329285 398.295441,379.558502 
	C394.304474,379.726837 391.929352,378.574005 391.612610,374.226288 
	C391.527679,373.060455 390.479492,371.964783 389.888428,370.864716 
	C393.908142,368.015045 395.024780,368.357635 396.044464,372.571472 
	C396.391785,374.006683 395.871002,376.301331 398.794861,374.870941 
z"/>
<path fill="#000000" opacity="1.000000" stroke="none" 
	d="
M343.237244,210.157898 
	C342.134125,211.570343 340.859344,212.607025 339.605835,212.016968 
	C332.935394,208.877106 325.857819,210.841553 319.000916,210.273849 
	C315.341431,209.970825 313.896271,208.644623 313.853088,205.195221 
	C313.800842,201.021408 316.819336,201.381622 319.420135,201.540390 
	C326.143463,201.950851 332.854126,202.565781 339.571106,203.083160 
	C344.172943,203.437576 344.371399,206.293198 343.237244,210.157898 
z"/>
<path fill="#000000" opacity="1.000000" stroke="none" 
	d="
M613.347900,378.301910 
	C612.148193,375.192657 612.955139,372.548584 613.514282,369.430237 
	C621.626831,372.017975 629.469055,371.417572 637.310486,371.130829 
	C639.194336,371.061951 641.676575,370.836517 641.442688,373.989960 
	C641.260376,376.447815 641.366272,379.739685 637.860413,379.453522 
	C629.785645,378.794373 621.662598,379.908844 613.347900,378.301910 
z"/>
<path fill="#000000" opacity="1.000000" stroke="none" 
	d="
M331.267578,258.748077 
	C334.430298,260.021698 337.443481,259.534149 340.407806,259.694336 
	C343.617981,259.867798 344.025940,262.128693 343.756836,264.672546 
	C343.494507,267.152405 341.952057,269.440277 339.590393,268.263550 
	C332.870789,264.915527 325.830566,267.495636 319.030701,266.450836 
	C317.046722,266.145996 314.872711,266.625122 314.213440,264.042847 
	C313.763153,262.279083 313.302246,260.295135 314.743134,258.833710 
	C316.334320,257.219788 318.426453,257.586609 320.363983,258.247131 
	C323.071045,259.170013 325.661011,260.097168 328.273834,257.822021 
	C329.028290,257.165009 330.159363,257.975861 331.267578,258.748077 
z"/>
<path fill="#000000" opacity="1.000000" stroke="none" 
	d="
M566.997864,261.662659 
	C588.172729,261.459900 608.858521,260.717682 629.493164,263.180450 
	C595.195618,264.698212 560.901001,264.334930 526.606445,264.021759 
	C526.594910,263.237335 526.583374,262.452942 526.571838,261.668518 
	C539.880554,261.668518 553.189209,261.668518 566.997864,261.662659 
z"/>
<path fill="#000000" opacity="1.000000" stroke="none" 
	d="
M328.205261,322.402222 
	C324.620300,322.402649 321.464874,322.304901 318.317932,322.426514 
	C314.147675,322.587646 313.698700,319.873901 313.957275,316.812195 
	C314.243011,313.429169 316.834503,313.443054 319.173096,314.041168 
	C322.344055,314.852112 325.165283,316.318207 328.541931,313.908295 
	C330.144806,312.764282 332.076569,315.966553 334.497803,315.548309 
	C336.267456,315.242645 338.140472,315.579010 339.965179,315.535614 
	C341.601440,315.496674 342.983368,315.827454 343.523315,317.577667 
	C344.135162,319.560883 344.252655,321.591400 342.876556,323.284698 
	C341.662781,324.778259 339.862976,324.906433 338.336609,323.975067 
	C335.272003,322.105072 331.960144,322.356781 328.205261,322.402222 
z"/>
<path fill="#000000" opacity="1.000000" stroke="none" 
	d="
M504.730682,76.011124 
	C498.225128,78.708420 492.311401,75.141296 486.273010,75.484894 
	C484.789948,75.569275 483.879974,74.414368 483.865723,72.851143 
	C483.850922,71.229622 483.064117,69.076889 484.599792,68.158615 
	C488.217926,65.995178 487.274353,70.678833 489.290100,71.854683 
	C490.434937,67.675858 492.069427,66.452324 496.769745,67.932404 
	C499.972473,68.940918 504.442444,68.471451 508.262451,67.971992 
	C511.270660,67.578682 512.811096,68.380241 513.014099,71.300423 
	C513.198364,73.951157 513.050049,76.478065 509.103851,75.756592 
	C507.840302,75.525581 506.467224,75.893524 504.730682,76.011124 
z"/>
<path fill="#000000" opacity="1.000000" stroke="none" 
	d="
M657.974854,379.148224 
	C655.880676,379.197723 654.190552,379.023499 652.576843,379.297974 
	C648.446167,380.000610 647.926819,377.339050 647.556580,374.315125 
	C647.104370,370.621216 650.048523,372.080658 651.686523,371.217010 
	C657.040405,368.394257 662.010071,372.525513 667.226624,371.519470 
	C669.762878,371.030304 672.675415,367.727722 675.314331,372.316223 
	C674.473633,374.010773 672.932861,376.186340 675.369263,378.804169 
	C669.409058,377.160645 664.009949,380.460205 657.974854,379.148224 
z"/>
<path fill="#000000" opacity="1.000000" stroke="none" 
	d="
M483.648804,478.260895 
	C478.125763,478.928070 473.019348,478.725464 467.887299,478.354736 
	C465.109283,478.154083 464.073334,476.804688 463.958649,474.281555 
	C463.839203,471.654297 465.547150,471.344360 467.645691,470.622589 
	C472.961823,468.794037 478.319641,469.561707 483.686676,469.471649 
	C487.639587,469.405334 489.693420,471.424469 489.856171,475.076935 
	C490.057648,479.598755 486.368805,477.851685 483.648804,478.260895 
z"/>
<path fill="#000000" opacity="1.000000" stroke="none" 
	d="
M437.870972,318.089417 
	C443.568512,319.841278 441.646362,324.160278 440.621521,327.282715 
	C438.950531,332.373749 434.155365,329.837128 430.645874,330.147430 
	C427.903107,330.389923 426.414124,328.727264 426.080078,325.966461 
	C425.571167,321.761261 426.055054,317.689758 427.583557,313.412750 
	C430.546234,312.739227 433.308685,312.528290 434.541077,316.437073 
	C434.993958,317.873474 435.943176,318.681488 437.870972,318.089417 
z"/>
<path fill="#000000" opacity="1.000000" stroke="none" 
	d="
M389.752655,189.899841 
	C385.316498,190.160934 381.391510,189.777771 377.432526,189.378616 
	C373.734375,189.005737 373.877747,186.615555 373.797455,184.110550 
	C373.707916,181.317108 375.760468,179.560318 377.821533,180.382126 
	C383.896423,182.804367 390.201111,180.229599 396.225586,181.877014 
	C398.291321,182.441910 400.077820,183.113541 399.897369,185.706757 
	C399.715302,188.322205 398.243256,189.452332 395.646515,189.459152 
	C393.835754,189.463898 392.025696,189.737946 389.752655,189.899841 
z"/>
<path fill="#000000" opacity="1.000000" stroke="none" 
	d="
M359.270508,379.262482 
	C357.607086,378.523254 356.323059,377.824493 355.197479,377.211975 
	C349.474030,380.725952 343.370636,379.517792 337.409912,378.938629 
	C335.837585,378.785858 334.708893,371.689758 335.942444,370.401764 
	C336.318176,370.009430 337.157654,369.739014 337.671539,369.867035 
	C338.808960,370.150421 338.958771,371.247894 339.060181,372.253632 
	C339.284363,374.477478 339.426483,376.763062 343.014618,376.049988 
	C343.651062,373.603699 342.346985,370.002747 346.277710,368.929230 
	C348.669769,370.224304 347.700562,372.817291 348.606201,374.824066 
	C349.112488,371.689728 350.926941,369.365509 353.688904,369.492065 
	C356.996765,369.643616 361.066193,370.082397 363.017334,372.944275 
	C365.046967,375.921356 363.589020,378.652802 359.270508,379.262482 
z"/>
<path fill="#000000" opacity="1.000000" stroke="none" 
	d="
M436.135254,469.177765 
	C438.808624,468.627167 440.812378,469.645782 442.859650,470.254364 
	C444.962250,470.879364 446.786835,471.216675 449.021088,470.092102 
	C452.359680,468.411591 455.467926,470.264130 458.257996,472.044067 
	C459.613525,472.908783 459.843750,474.559723 459.178619,476.100861 
	C458.514954,477.638733 457.181458,478.370239 455.584930,478.342438 
	C449.772247,478.241119 443.954163,478.163300 438.154510,477.808655 
	C436.745056,477.722443 434.354370,478.671173 433.986847,476.247345 
	C433.614136,473.789734 432.412811,470.874817 436.135254,469.177765 
z"/>
<path fill="#000000" opacity="1.000000" stroke="none" 
	d="
M385.215942,218.285583 
	C381.467285,218.245758 379.822205,216.553421 380.004791,213.284592 
	C380.225342,209.335052 380.590973,205.393600 380.889923,201.499374 
	C384.114960,200.126434 387.063690,201.990372 390.227417,201.248978 
	C390.672638,200.012650 391.154297,198.675232 391.626526,197.363937 
	C393.631592,197.523773 394.037506,198.875580 394.071533,200.189758 
	C394.191956,204.838516 394.442352,209.510269 394.123016,214.137390 
	C393.721375,219.957428 388.942749,217.803711 385.215942,218.285583 
M391.174347,213.573563 
	C392.247040,211.577179 392.265717,209.556595 391.510651,207.287521 
	C389.508026,208.188477 388.410736,210.175156 386.160797,210.111923 
	C384.812683,210.074051 383.275940,210.432114 383.418610,212.248276 
	C383.566772,214.133759 385.175934,214.482254 386.720703,214.617035 
	C388.041656,214.732285 389.389709,214.837875 391.174347,213.573563 
z"/>
<path fill="#000000" opacity="1.000000" stroke="none" 
	d="
M463.833191,262.685059 
	C468.365479,263.555725 467.135803,266.977417 467.208984,269.681976 
	C467.283386,272.431396 465.982300,274.101440 463.081909,274.223389 
	C462.250549,274.258331 461.408112,274.341858 460.587067,274.252808 
	C457.671417,273.936401 453.902130,275.480713 452.907501,270.836029 
	C451.900574,266.134125 454.390198,259.347717 457.855347,258.222168 
	C461.433502,257.059906 463.063629,259.238129 463.833191,262.685059 
z"/>
<path fill="#000000" opacity="1.000000" stroke="none" 
	d="
M456.443939,380.408691 
	C453.522400,381.344116 451.193604,380.097382 448.801483,379.652771 
	C445.661530,379.069122 445.960632,376.455231 446.151581,374.093719 
	C446.364899,371.455200 448.129211,370.780640 450.362030,371.101288 
	C454.647766,371.716705 458.908112,371.211090 463.178497,371.032654 
	C465.871735,370.920135 468.350983,371.213226 468.451294,374.706451 
	C468.544586,377.957245 467.054260,379.635559 463.590607,379.355621 
	C461.298950,379.170380 458.926819,378.812744 456.443939,380.408691 
z"/>
<path fill="#000000" opacity="1.000000" stroke="none" 
	d="
M446.260071,396.986389 
	C440.673737,397.073303 435.437042,396.077057 430.454865,399.018005 
	C428.199829,400.349152 427.042328,398.226105 426.417725,396.084900 
	C425.636841,393.408081 424.782379,390.454742 428.289001,389.466858 
	C433.162323,388.093994 438.329468,388.997162 443.399658,388.126068 
	C447.048279,387.499115 445.663971,391.778259 445.786652,393.694733 
	C447.642426,395.724945 451.250183,392.102936 451.403534,395.452026 
	C451.545319,398.548676 448.276398,396.345428 446.260071,396.986389 
z"/>
<path fill="#000000" opacity="1.000000" stroke="none" 
	d="
M416.350800,413.498535 
	C415.977570,419.363861 414.094269,420.689514 409.073242,419.514709 
	C405.057800,418.575226 400.927521,418.714996 396.829498,419.037537 
	C395.159088,419.169006 393.797272,418.648163 393.191101,417.087402 
	C392.501862,415.312653 392.702545,413.473022 393.791321,411.870026 
	C394.728607,410.489990 396.379883,409.721558 397.681000,410.573700 
	C402.459503,413.703156 407.670563,411.388550 412.623871,412.051788 
	C413.940491,412.228058 415.256958,411.955719 416.350800,413.498535 
z"/>
<path fill="#000000" opacity="1.000000" stroke="none" 
	d="
M560.240173,371.087402 
	C564.167236,370.771271 564.942444,373.062103 564.653076,375.794891 
	C564.333435,378.813568 562.383057,379.450226 559.376221,379.523041 
	C555.370605,379.619995 551.110229,377.014862 547.226685,380.651581 
	C545.918518,381.876587 544.404114,380.370422 544.162109,378.678528 
	C543.861450,376.577911 543.847839,374.436218 543.694031,372.061584 
	C549.119019,370.722717 554.539551,371.656586 560.240173,371.087402 
z"/>
<path fill="#000000" opacity="1.000000" stroke="none" 
	d="
M701.481445,378.860382 
	C697.236084,377.957245 693.000610,380.638672 689.533081,377.932770 
	C687.520569,378.311523 687.332397,380.863892 684.916382,380.638092 
	C683.594116,378.015106 683.414062,374.981323 682.734497,371.722046 
	C689.645630,371.105438 696.166260,371.410278 702.863892,371.743561 
	C703.519104,374.377441 704.347961,376.753998 701.481445,378.860382 
z"/>
<path fill="#000000" opacity="1.000000" stroke="none" 
	d="
M412.003479,299.198090 
	C411.594788,302.035950 409.690186,302.188873 407.838593,302.241547 
	C404.516541,302.336029 401.188873,302.247620 397.867767,302.360046 
	C393.754059,302.499329 392.700989,299.521942 392.487793,296.513367 
	C392.268646,293.421509 395.137054,294.118530 397.146088,293.505707 
	C401.634216,292.136719 405.369324,295.572998 409.764130,294.936584 
	C411.503052,294.684753 412.034821,297.012329 412.003479,299.198090 
z"/>
<path fill="#000000" opacity="1.000000" stroke="none" 
	d="
M307.877869,373.280273 
	C308.638153,369.388000 310.363434,367.191162 314.033508,367.693756 
	C316.151794,369.381073 313.448944,370.460785 314.130157,372.161407 
	C316.612366,370.392120 317.834930,366.108948 321.899048,367.893036 
	C323.124847,369.648560 320.691101,370.772278 321.309662,372.135376 
	C322.366211,374.463562 323.771637,377.776154 321.393585,378.766235 
	C317.704132,380.302246 313.205688,380.129730 309.243683,379.007782 
	C306.959320,378.360901 308.058075,375.562988 307.877869,373.280273 
z"/>
<path fill="#000000" opacity="1.000000" stroke="none" 
	d="
M354.435425,396.903168 
	C351.092957,398.084167 349.723236,395.334961 347.275421,394.014496 
	C345.545349,397.564087 342.213287,397.317474 338.981476,397.277130 
	C336.712006,397.248810 335.076569,396.405518 335.222290,393.772827 
	C335.351257,391.442780 336.077332,389.331360 338.796143,389.235687 
	C343.534149,389.068970 348.292725,388.978455 353.021820,389.237244 
	C356.542603,389.429871 357.276489,392.931458 354.435425,396.903168 
z"/>
<path fill="#000000" opacity="1.000000" stroke="none" 
	d="
M387.961609,274.301758 
	C385.124817,274.080750 381.757080,275.038391 381.005707,272.075104 
	C380.272552,269.183716 378.536285,265.575653 382.155426,262.924438 
	C382.744629,262.492798 383.157867,261.589172 383.308044,260.835114 
	C383.699188,258.871063 384.229736,257.173706 386.756927,257.609375 
	C389.583984,258.096710 390.410797,260.271423 390.714508,262.693726 
	C391.008057,265.034882 389.460388,265.913879 387.461090,266.281555 
	C385.730194,266.599884 383.740265,266.339630 382.731171,268.347595 
	C387.159149,271.325867 389.755646,270.465973 392.834839,265.058411 
	C396.393066,270.579956 394.816864,273.866974 387.961609,274.301758 
z"/>
<path fill="#000000" opacity="1.000000" stroke="none" 
	d="
M386.410828,246.338425 
	C382.975769,247.216461 380.040405,245.629288 376.848541,245.938919 
	C374.664093,246.150848 373.667358,242.553558 374.513245,240.364761 
	C375.410156,238.044022 377.545593,235.997391 380.407898,237.349976 
	C382.948273,238.550385 385.425171,238.949753 388.103333,238.567184 
	C390.219788,238.264862 392.299011,238.336349 393.115784,240.641800 
	C393.944305,242.980453 391.353882,243.495865 390.332886,244.852081 
	C389.456482,246.016281 388.143341,246.260513 386.410828,246.338425 
z"/>
<path fill="#000000" opacity="1.000000" stroke="none" 
	d="
M473.732880,32.566048 
	C470.631866,34.291233 467.895447,34.584408 466.147766,31.458263 
	C464.772827,28.998758 463.732147,26.227982 466.383789,23.779024 
	C468.552795,21.775845 470.165009,18.437168 474.112976,20.544884 
	C475.339447,21.199677 476.893036,22.009872 476.279999,23.372040 
	C474.980743,26.258892 476.236847,29.717354 473.732880,32.566048 
z"/>
<path fill="#000000" opacity="1.000000" stroke="none" 
	d="
M439.706665,378.635864 
	C435.816376,380.349457 432.022522,379.114777 428.282654,379.362549 
	C426.479889,379.481934 425.070496,378.161682 425.243011,376.177948 
	C425.446503,373.837738 425.943634,371.312195 428.926300,371.057007 
	C431.543488,370.833069 434.252838,370.734680 436.825989,371.159363 
	C441.233643,371.886810 441.224457,374.912689 439.706665,378.635864 
z"/>
<path fill="#000000" opacity="1.000000" stroke="none" 
	d="
M372.694916,369.354858 
	C375.872711,368.195862 375.419373,371.026520 376.423889,372.218201 
	C382.439484,370.501648 384.547668,371.485901 384.327209,375.825623 
	C384.241119,377.520203 383.462006,379.128235 381.976990,379.148468 
	C378.294403,379.198639 374.552399,380.730743 370.399628,378.948853 
	C372.176575,375.961761 369.243683,372.274597 372.694916,369.354858 
z"/>
<path fill="#000000" opacity="1.000000" stroke="none" 
	d="
M324.549896,186.417023 
	C324.822815,190.545532 322.606750,191.542938 319.316010,191.476654 
	C315.824219,191.406296 313.084991,190.146042 312.238525,186.579666 
	C311.594177,183.864822 312.891418,181.729492 315.493103,180.644623 
	C318.825348,179.255142 321.219025,180.778687 323.090515,183.438492 
	C323.651672,184.236023 323.995728,185.186279 324.549896,186.417023 
z"/>
<path fill="#000000" opacity="1.000000" stroke="none" 
	d="
M734.975220,263.945312 
	C717.578003,263.988220 700.559448,263.988220 683.205505,263.988220 
	C684.020447,261.598511 685.403015,261.990021 686.412292,261.986603 
	C702.045410,261.933685 717.678955,261.921448 733.311768,262.009979 
	C734.108154,262.014465 736.922791,260.906555 734.975220,263.945312 
z"/>
<path fill="#000000" opacity="1.000000" stroke="none" 
	d="
M412.978394,389.135498 
	C416.598907,388.671356 419.150848,389.461212 418.977020,393.304565 
	C418.823334,396.703888 416.708954,397.342529 413.460663,397.084137 
	C410.138092,396.819824 406.336670,398.522400 405.715576,393.094818 
	C405.534180,391.509918 404.453613,390.030304 406.135040,388.607239 
	C407.751740,387.238983 409.179993,388.061371 410.700439,388.726013 
	C411.289368,388.983490 411.968414,389.034821 412.978394,389.135498 
z"/>
<path fill="#000000" opacity="1.000000" stroke="none" 
	d="
M488.523041,208.745529 
	C482.846954,207.695190 477.394928,209.705460 471.849457,207.949554 
	C474.581482,205.145401 503.043396,204.619217 510.522858,207.189056 
	C502.866180,209.497589 495.886963,208.814362 488.523041,208.745529 
z"/>
<path fill="#000000" opacity="1.000000" stroke="none" 
	d="
M320.445557,291.651154 
	C324.068878,291.390533 324.104858,293.712494 324.093933,295.914185 
	C324.082672,298.191803 324.426361,300.836090 321.679901,301.862640 
	C319.702362,302.601776 317.542938,303.018860 315.432831,303.191864 
	C313.359283,303.361877 312.006287,301.705658 312.811646,300.027161 
	C314.421722,296.671844 314.880493,292.022766 320.445557,291.651154 
z"/>
<path fill="#000000" opacity="1.000000" stroke="none" 
	d="
M526.284546,236.957611 
	C528.768250,237.002747 530.333191,238.793167 532.690979,238.698303 
	C534.797791,238.613541 535.987183,240.257156 535.802368,242.392319 
	C535.631287,244.369949 534.631775,245.954941 532.407104,246.024139 
	C529.315063,246.120300 526.154663,246.926544 522.847351,245.411118 
	C523.874084,242.557846 522.469788,239.002289 526.284546,236.957611 
z"/>
<path fill="#000000" opacity="1.000000" stroke="none" 
	d="
M509.010010,472.856995 
	C507.320953,476.557953 505.625977,480.477875 501.001190,478.378204 
	C498.422272,477.207336 495.953217,474.682220 497.613861,471.064178 
	C498.698120,468.701965 504.391479,467.953247 507.140106,469.649414 
	C508.190399,470.297485 508.775879,471.277679 509.010010,472.856995 
z"/>
<path fill="#000000" opacity="1.000000" stroke="none" 
	d="
M321.026489,242.020737 
	C319.144958,245.146591 316.230194,245.862213 313.468842,247.068665 
	C311.732483,239.797394 316.159149,235.093399 323.079132,236.468735 
	C324.187653,238.809006 321.989746,240.019363 321.026489,242.020737 
z"/>
<path fill="#000000" opacity="1.000000" stroke="none" 
	d="
M468.957520,74.785744 
	C467.455780,72.133217 467.697937,69.809471 469.654266,68.164757 
	C471.347809,66.740944 473.596924,66.282913 475.653931,67.746292 
	C477.383545,68.976753 478.392365,70.606049 477.562653,72.844376 
	C476.657135,75.287155 474.869720,76.672768 472.285645,76.524307 
	C471.223083,76.463249 470.206512,75.601990 468.957520,74.785744 
z"/>
<path fill="#000000" opacity="1.000000" stroke="none" 
	d="
M719.113708,205.760376 
	C725.718933,205.754776 731.842773,205.754776 737.966675,205.754776 
	C737.945068,206.416748 737.923462,207.078735 737.901794,207.740707 
	C728.841858,208.789886 719.774658,208.358337 710.670349,207.347198 
	C713.121948,205.344040 715.956238,206.020233 719.113708,205.760376 
z"/>
<path fill="#000000" opacity="1.000000" stroke="none" 
	d="
M491.167297,264.072662 
	C485.698669,264.177216 480.599548,264.846466 475.584381,263.091431 
	C481.497253,260.944489 487.480621,261.914612 493.625977,262.160370 
	C493.276306,264.065979 492.292969,263.834290 491.167297,264.072662 
z"/>
<path fill="#000000" opacity="1.000000" stroke="none" 
	d="
M450.690094,319.673401 
	C449.871918,321.586609 449.649200,324.218658 447.138947,323.142700 
	C444.939850,322.200134 446.515076,320.231293 447.145081,318.843445 
	C448.111420,316.714722 448.516510,314.052979 451.460175,313.131622 
	C453.168579,315.609406 451.089294,317.380371 450.690094,319.673401 
z"/>
<path fill="#000000" opacity="1.000000" stroke="none" 
	d="
M405.248230,261.238586 
	C403.397522,266.006195 403.397522,266.006195 400.023010,267.558563 
	C400.424683,263.305359 401.336914,259.877960 404.235809,257.164398 
	C406.391144,258.305695 405.512482,259.660065 405.248230,261.238586 
z"/>
<path fill="#000000" opacity="1.000000" stroke="none" 
	d="
M405.433838,201.221344 
	C405.708130,205.249466 404.438751,208.446640 401.570282,211.136505 
	C399.464355,207.313995 401.191986,202.812454 405.433838,201.221344 
z"/>
<path fill="#000000" opacity="1.000000" stroke="none" 
	d="
M511.629608,300.014648 
	C511.670715,299.213989 511.733795,298.721344 511.740631,298.227905 
	C511.760315,296.805176 511.177368,295.019531 513.429810,294.798492 
	C514.832397,294.660858 515.454468,295.770844 515.763916,296.933655 
	C516.254578,298.777069 516.304932,300.664307 514.478760,301.807770 
	C512.953918,302.762573 512.025818,301.885345 511.629608,300.014648 
z"/>
<path fill="#000000" opacity="1.000000" stroke="none" 
	d="
M418.078827,317.481750 
	C420.451172,315.196228 422.557617,315.324493 423.883881,317.943024 
	C424.770966,319.694397 422.957672,320.797302 421.668823,321.102844 
	C419.170868,321.695007 417.560394,320.648285 418.078827,317.481750 
z"/>
<path fill="#000000" opacity="1.000000" stroke="none" 
	d="
M647.835144,239.900406 
	C650.278992,237.728943 651.232483,239.308640 651.661621,241.268646 
	C652.052246,243.052612 652.001160,245.024811 650.027893,245.982819 
	C648.978088,246.492508 648.062866,245.753891 647.917969,244.617432 
	C647.732300,243.161407 647.771667,241.676697 647.835144,239.900406 
z"/>
<path fill="#000000" opacity="1.000000" stroke="none" 
	d="
M462.722565,189.113739 
	C462.137146,188.191803 461.544342,187.426056 461.593384,186.703918 
	C461.712189,184.955719 461.563110,182.773544 464.102692,182.565140 
	C465.289429,182.467773 465.999725,183.556442 465.559479,184.596268 
	C464.870026,186.224731 467.821808,189.937057 462.722565,189.113739 
z"/>
<path fill="#000000" opacity="1.000000" stroke="none" 
	d="
M447.693237,208.948715 
	C445.546234,208.193619 443.234406,207.508423 444.796844,204.841400 
	C445.783844,203.156616 447.455078,202.911545 449.035126,204.320709 
	C451.370544,206.403625 450.037598,207.729645 447.693237,208.948715 
z"/>
<path fill="#000000" opacity="1.000000" stroke="none" 
	d="
M447.672607,260.039490 
	C449.480469,261.197937 451.415192,262.186951 449.323151,264.333405 
	C447.881012,265.813019 446.178711,265.753754 445.037872,264.134094 
	C443.147308,261.450043 445.592743,260.824371 447.672607,260.039490 
z"/>
<path fill="#000000" opacity="1.000000" stroke="none" 
	d="
M375.507477,208.490906 
	C372.766357,209.066162 371.281189,207.952316 371.640778,205.556046 
	C371.855133,204.127960 373.342804,202.878723 375.011322,203.674408 
	C377.170197,204.703888 377.878937,206.342163 375.507477,208.490906 
z"/>
<path fill="#000000" opacity="1.000000" stroke="none" 
	d="
M538.299805,317.208069 
	C540.840027,315.104858 541.969910,317.052582 543.427795,318.217010 
	C542.716980,320.335602 541.608093,321.803467 539.481018,321.101990 
	C537.932434,320.591248 536.469788,319.448669 538.299805,317.208069 
z"/>
<path fill="#000000" opacity="1.000000" stroke="none" 
	d="
M371.856689,261.556183 
	C373.891937,259.317810 375.633118,259.667145 376.882782,261.782318 
	C377.930939,263.556519 376.463165,264.858643 375.095123,265.128815 
	C372.817749,265.578552 371.298248,264.493347 371.856689,261.556183 
z"/>
<path fill="#000000" opacity="1.000000" stroke="none" 
	d="
M536.876770,374.901917 
	C534.325867,376.618683 532.005310,376.859741 529.476807,374.394196 
	C532.322998,372.760254 534.674133,371.770020 536.876770,374.901917 
z"/>
<path fill="#000000" opacity="1.000000" stroke="none" 
	d="
M376.457642,317.104034 
	C377.815430,318.822571 377.102325,319.804932 375.713837,320.421783 
	C373.875275,321.238556 372.601990,320.348083 371.433624,318.579834 
	C372.487305,316.547180 373.674500,315.095337 376.457642,317.104034 
z"/>
<path fill="#000000" opacity="1.000000" stroke="none" 
	d="
M301.207214,244.344635 
	C299.455505,242.768845 299.281097,241.302994 301.245819,240.353455 
	C302.648926,239.675323 303.808167,240.472275 304.175720,241.948685 
	C304.733124,244.187836 303.662628,244.935745 301.207214,244.344635 
z"/>
</svg>