<svg version="1.1" id="Layer_1" xmlns="http://www.w3.org/2000/svg" xmlns:xlink="http://www.w3.org/1999/xlink" x="0px" y="0px"
	 width="100%" viewBox="0 0 1024 560" enable-background="new 0 0 1024 560" xml:space="preserve">
<path fill="#000000" opacity="1.000000" stroke="none" 
	d="
M625.698486,152.128616 
	C626.293884,157.814987 623.874268,159.275955 618.756287,159.264862 
	C552.932922,159.122162 487.109100,159.132492 421.285614,159.244308 
	C416.422729,159.252563 414.423492,157.897064 414.563080,152.728439 
	C414.796600,144.082199 414.379028,135.417252 414.187500,126.761230 
	C414.116699,123.560081 415.610596,122.348007 418.767395,122.365089 
	C444.426727,122.503998 470.086487,122.626518 495.746124,122.626038 
	C537.539734,122.625252 579.333435,122.564232 621.126648,122.412086 
	C625.142517,122.397476 625.935425,124.487740 625.911743,127.721024 
	C625.853149,135.717987 625.802917,143.715012 625.698486,152.128616 
z"/>
<path fill="#000000" opacity="1.000000" stroke="none" 
	d="
M334.758606,336.234436 
	C339.322327,336.291748 343.380585,337.247498 347.361572,334.006287 
	C348.781311,332.850464 352.315125,333.780792 355.002686,332.820282 
	C357.238403,332.021240 356.678894,335.525391 358.098267,336.873962 
	C366.030884,334.991394 374.219910,337.256317 382.355042,336.039459 
	C385.553345,335.561005 386.325012,337.881348 386.469360,340.853394 
	C386.607605,343.698730 386.480621,346.136993 383.154236,346.318817 
	C380.282501,346.475830 377.746613,346.887115 375.180237,348.405853 
	C372.041260,350.263397 370.286011,348.269012 369.520660,345.143829 
	C360.964844,346.752777 352.463837,346.565430 343.956329,346.429047 
	C338.558105,346.342499 333.226593,345.670715 327.732758,346.118225 
	C323.750549,346.442596 319.494873,345.984009 315.352600,345.961090 
	C313.702148,345.951965 313.362274,344.376343 313.286621,343.010712 
	C313.204224,341.524078 313.288574,340.027740 313.311554,338.535828 
	C313.342834,336.503632 312.346008,333.746765 315.789185,333.699188 
	C318.601807,333.660339 322.717773,331.729553 322.430298,338.275513 
	C326.344788,333.680786 330.686188,338.916565 334.758606,336.234436 
z"/>
<path fill="#000000" opacity="1.000000" stroke="none" 
	d="
M499.184998,23.599762 
	C506.605743,23.981747 513.911438,25.320795 520.685486,23.978083 
	C525.649841,22.994089 530.097229,24.432425 534.640137,24.513935 
	C546.561523,24.727844 558.504639,23.841219 570.409302,24.783278 
	C572.453491,24.945045 575.542725,23.608742 575.600098,27.507704 
	C575.649109,30.836285 574.095764,32.964958 570.538147,32.899384 
	C561.433044,32.731552 552.341614,32.447224 543.220337,32.619823 
	C530.476257,32.860973 517.711487,32.091938 504.971130,32.906292 
	C500.707092,33.178841 496.474945,31.869566 492.158508,33.118065 
	C490.651245,33.554035 488.889374,32.072922 488.575409,30.267935 
	C488.238708,28.331905 488.017914,25.893208 490.260132,25.010944 
	C492.955200,23.950506 495.690826,22.327744 499.184998,23.599762 
z"/>
<path fill="#000000" opacity="1.000000" stroke="none" 
	d="
M460.985840,71.031075 
	C461.082275,58.646225 459.424805,57.750359 473.190826,58.727219 
	C477.447418,59.029270 481.813873,58.370819 487.046631,60.348347 
	C481.399597,61.509052 476.783203,62.011028 472.092010,62.094326 
	C465.293610,62.215042 465.222595,62.310654 465.185913,69.275467 
	C465.168365,72.606155 465.303589,75.938210 465.256012,79.268021 
	C465.214111,82.198273 466.603638,83.568939 469.476105,83.574509 
	C485.464691,83.605507 501.453430,83.604004 517.441711,83.691498 
	C523.273071,83.723404 521.418579,78.578156 523.204224,75.333580 
	C526.323059,76.493256 527.729004,75.089958 528.647278,71.828621 
	C529.376465,69.238701 529.056580,64.768272 534.115967,65.820389 
	C536.662537,66.349953 540.165283,72.270096 539.793640,75.384605 
	C539.618164,76.855484 539.272156,78.306030 538.999268,79.766129 
	C538.052185,81.275398 535.945984,79.708076 534.824585,81.591255 
	C535.822205,84.244087 540.277893,81.986397 540.848206,85.453148 
	C539.835999,87.524208 537.772827,86.954132 536.097229,86.965752 
	C513.113037,87.125130 490.127869,87.157997 467.144257,87.367897 
	C462.900818,87.406647 460.944702,85.715645 461.001343,81.514389 
	C461.046265,78.184036 460.995728,74.852402 460.985840,71.031075 
z"/>
<path fill="#000000" opacity="1.000000" stroke="none" 
	d="
M573.627747,288.152832 
	C576.150146,291.855743 573.413818,291.348175 571.428284,291.358673 
	C559.486816,291.421844 547.488464,290.774170 535.623657,291.752869 
	C527.875549,292.391937 520.338074,290.619904 512.694580,291.426849 
	C509.926697,291.719055 507.972595,290.528839 508.156708,287.568665 
	C508.327332,284.825653 510.102905,283.897003 512.953369,283.782288 
	C528.678467,283.149323 544.426086,284.606659 560.150879,283.033081 
	C565.068054,282.541016 569.689636,284.287048 573.627747,288.152832 
z"/>
<path fill="#000000" opacity="1.000000" stroke="none" 
	d="
M304.258667,245.986969 
	C311.020996,247.713348 317.471252,248.589005 324.121002,247.837570 
	C326.609772,247.556335 328.314789,249.003677 328.917542,251.333557 
	C329.547394,253.768341 328.874969,256.033783 326.697052,257.477600 
	C324.536713,258.909729 322.443359,258.234222 320.897583,256.427887 
	C318.634491,253.783340 316.996704,253.453827 314.694763,256.627655 
	C312.605072,259.508820 306.693481,258.991943 302.577667,256.116272 
	C299.741394,257.917603 288.336212,258.626953 283.945679,257.106842 
	C285.503021,253.607742 286.181305,249.989197 283.480530,246.600082 
	C285.936066,244.078857 288.569183,244.187408 290.848022,245.790787 
	C295.225861,248.871017 299.467834,248.352051 304.258667,245.986969 
z"/>
<path fill="#000000" opacity="1.000000" stroke="none" 
	d="
M564.093262,82.940788 
	C566.526733,79.375931 564.875854,77.732498 561.671509,78.182114 
	C557.625366,78.749847 553.761169,77.681862 549.802246,77.799927 
	C545.614868,77.924805 544.254272,75.082008 544.346375,71.638336 
	C544.442261,68.057503 547.226562,67.440697 550.102905,67.969559 
	C554.701599,68.815125 559.224182,69.334389 563.895142,68.318230 
	C566.108582,67.836693 568.423645,68.965210 569.598511,70.716759 
	C571.944580,74.214516 574.158447,73.870438 576.996277,70.483856 
	C578.876831,75.393661 578.429077,79.843178 578.437378,84.200462 
	C578.440125,85.620209 577.283325,86.753860 575.874451,86.878204 
	C571.310608,87.280952 566.715210,87.677361 562.424805,86.372047 
	C561.748413,84.396042 563.215515,84.022789 564.093262,82.940788 
z"/>
<path fill="#000000" opacity="1.000000" stroke="none" 
	d="
M546.348999,179.976593 
	C546.107300,182.450836 544.771301,183.096466 542.870483,183.114624 
	C534.111572,183.198303 525.412354,183.551804 516.591309,182.682220 
	C510.910431,182.122192 504.830719,183.199097 498.904083,183.120483 
	C496.254913,183.085327 493.692627,183.263275 493.819794,179.488419 
	C493.926941,176.307922 495.390991,174.208832 498.743805,174.700226 
	C506.402985,175.822769 514.165283,175.833954 521.758972,175.342529 
	C528.278564,174.920624 534.581177,176.856247 541.025208,175.904907 
	C543.825745,175.491470 546.008728,176.308090 546.348999,179.976593 
z"/>
<path fill="#000000" opacity="1.000000" stroke="none" 
	d="
M877.753296,448.383301 
	C868.491028,446.395508 859.587585,448.568817 850.700989,448.216187 
	C848.669739,448.135590 846.622559,448.580353 845.617126,446.222412 
	C844.802124,444.310944 844.468933,442.151611 845.737854,440.494049 
	C847.308777,438.442139 849.532288,439.117920 851.641113,439.967987 
	C856.926880,442.098602 862.613220,441.249725 867.838379,440.695251 
	C875.097412,439.924927 882.203735,441.369202 889.392761,440.751282 
	C891.711853,440.551941 893.878296,439.927856 896.118713,439.343689 
	C898.303101,441.575348 898.368347,444.131775 897.336182,446.373932 
	C895.616638,450.108978 891.138489,448.596222 889.404175,447.970490 
	C885.286499,446.484955 881.856018,448.111267 877.753296,448.383301 
z"/>
<path fill="#000000" opacity="1.000000" stroke="none" 
	d="
M497.786072,283.840149 
	C500.830597,283.686737 503.042145,284.257629 502.983215,287.423981 
	C502.924072,290.599945 500.915344,291.332794 497.969391,291.507202 
	C486.373535,292.193604 474.814117,290.810150 463.235687,291.128540 
	C458.574524,291.256714 458.708252,288.175934 459.072937,285.081116 
	C459.499237,281.463989 462.309204,281.388855 464.693542,282.349426 
	C471.832855,285.225555 478.872620,282.568878 485.950073,282.451843 
	C489.803162,282.388123 493.388916,284.607513 497.786072,283.840149 
z"/>
<path fill="#000000" opacity="1.000000" stroke="none" 
	d="
M312.608704,291.379913 
	C303.300598,291.280304 294.404449,290.766266 285.508759,291.439575 
	C283.469147,291.593933 281.838989,290.859955 281.165802,288.873627 
	C280.503387,286.918976 280.540131,284.916199 282.031738,283.251190 
	C283.548309,281.558289 285.168243,282.016602 286.964386,282.932770 
	C291.403381,285.197052 296.120758,283.245636 300.520386,282.970520 
	C307.725494,282.519867 314.715759,284.241669 321.831268,283.774078 
	C323.316986,283.676453 324.490875,284.498352 324.729248,285.979126 
	C325.074127,288.122009 324.965088,290.353241 323.624237,292.147400 
	C322.618530,293.493164 320.930145,293.723633 319.613861,292.680420 
	C317.577057,291.066193 315.374359,291.008270 312.608704,291.379913 
z"/>
<path fill="#000000" opacity="1.000000" stroke="none" 
	d="
M843.925049,295.475708 
	C848.200928,295.071930 852.302917,295.279877 855.840271,293.570221 
	C858.980896,292.052246 860.640198,295.089325 863.178528,295.076019 
	C867.114563,295.055420 871.055176,295.280518 874.986145,295.156799 
	C877.190491,295.087402 878.569824,295.719543 878.880676,297.973877 
	C879.198669,300.279907 878.120117,301.307159 875.964172,302.406464 
	C870.384399,305.251434 865.101257,301.793823 859.614014,302.236267 
	C852.187256,302.835205 844.660889,302.093414 837.179504,302.163940 
	C833.260193,302.200836 832.320129,300.318817 832.678833,296.859467 
	C833.093323,292.861908 835.782043,293.707794 838.215942,294.126160 
	C840.012268,294.434937 841.764587,294.999634 843.925049,295.475708 
z"/>
<path fill="#000000" opacity="1.000000" stroke="none" 
	d="
M896.306763,245.691193 
	C890.854370,248.240875 885.248596,246.569733 879.835876,247.151993 
	C877.896301,247.360641 876.846130,245.196350 877.217102,243.100922 
	C877.616577,240.844360 878.916565,239.805573 881.406067,239.814163 
	C891.630981,239.849442 901.865601,239.920990 912.077148,239.502701 
	C915.703613,239.354156 919.248718,239.614471 922.835022,239.715042 
	C925.926819,239.801758 926.316406,241.734085 926.338196,244.053909 
	C926.363647,246.763321 924.755981,247.444107 922.368408,247.091690 
	C915.222534,246.036972 908.088684,247.246368 900.951050,247.343399 
	C898.979126,247.370209 897.973267,246.182556 896.306763,245.691193 
z"/>
<path fill="#000000" opacity="1.000000" stroke="none" 
	d="
M371.971924,282.472534 
	C374.882599,284.566711 374.512085,287.365967 373.608917,289.800507 
	C372.599030,292.522644 369.961517,291.222015 367.900055,291.226074 
	C363.653351,291.234406 359.294769,292.394653 355.346466,289.662842 
	C354.852295,289.320953 353.599304,289.512817 353.036621,289.922516 
	C348.773773,293.026489 344.037109,291.452728 339.507050,291.260010 
	C337.884949,291.191010 336.361847,290.808533 334.677948,291.247467 
	C332.458221,291.826019 330.795288,291.198700 330.427246,288.486481 
	C330.087708,285.984161 330.521088,283.829895 333.363556,283.834961 
	C336.291168,283.840179 339.030457,282.985992 342.087311,283.108246 
	C351.893494,283.500488 361.804840,284.477417 371.971924,282.472534 
z"/>
<path fill="#000000" opacity="1.000000" stroke="none" 
	d="
M885.093384,518.333252 
	C885.502441,520.020264 885.103943,520.984192 883.539612,520.988831 
	C872.355042,521.021851 861.169800,520.957581 849.986145,521.067688 
	C845.860657,521.108276 844.875061,518.593628 844.866516,515.299744 
	C844.856445,511.431885 847.856323,511.919189 850.268311,512.060852 
	C858.085083,512.519836 865.894287,513.111755 873.704224,513.682617 
	C875.863708,513.840454 877.961365,513.878235 880.103455,513.256531 
	C884.723022,511.915649 885.961792,513.186279 885.093384,518.333252 
z"/>
<path fill="#000000" opacity="1.000000" stroke="none" 
	d="
M916.192871,496.694763 
	C905.091492,496.619629 894.341797,496.618286 883.595337,496.428986 
	C881.811829,496.397583 879.374573,497.332611 878.421265,494.674194 
	C877.715942,492.707153 877.700256,490.587128 879.017517,488.964355 
	C880.659668,486.941101 882.974304,487.611145 884.984070,488.416107 
	C888.730286,489.916626 892.437012,489.534912 896.231873,488.717621 
	C903.356445,487.183228 910.270142,489.968933 917.340271,489.914246 
	C918.838135,489.902679 919.450195,491.392975 919.508362,492.831757 
	C919.592346,494.910461 918.804749,496.387482 916.192871,496.694763 
z"/>
<path fill="#000000" opacity="1.000000" stroke="none" 
	d="
M907.712158,464.457214 
	C909.359802,463.690796 910.534912,462.757568 912.196289,463.752106 
	C915.001770,465.431549 918.144104,465.598938 921.330505,465.406097 
	C923.761353,465.258911 925.153564,466.320160 925.100342,468.880463 
	C925.049072,471.347931 923.814636,472.407990 921.301086,472.386353 
	C910.513611,472.293427 899.724670,472.226990 888.937500,472.306274 
	C885.297180,472.333038 883.705994,470.928772 884.099915,467.243134 
	C884.520874,463.304993 887.166626,463.195679 889.903503,464.078522 
	C894.651062,465.609863 899.248962,465.718201 903.981567,464.084351 
	C904.943787,463.752136 906.230835,464.361206 907.712158,464.457214 
z"/>
<path fill="#000000" opacity="1.000000" stroke="none" 
	d="
M281.834412,385.339600 
	C282.000427,383.125610 281.565338,380.764954 283.970703,380.430878 
	C287.274933,379.971985 286.049744,383.524139 287.172150,385.023712 
	C287.644379,384.799011 288.039215,384.743744 288.163513,384.530640 
	C289.022064,383.058746 287.608795,379.816559 290.960022,380.359100 
	C293.556000,380.779388 293.212860,383.256866 293.245544,385.235931 
	C293.264771,386.399597 293.188110,387.566162 293.238983,388.727722 
	C293.303986,390.211945 293.216919,391.852295 295.050110,392.434753 
	C296.091278,392.765564 297.120300,392.479797 297.555206,391.405518 
	C298.206879,389.795624 298.461884,387.917053 296.927124,386.830627 
	C295.403839,385.752380 293.229462,385.197876 295.052185,382.879089 
	C296.391632,381.175140 298.211029,379.710571 300.609100,380.198761 
	C302.923370,380.669922 303.083160,382.707672 302.955627,384.566345 
	C302.690186,388.435760 303.026398,392.117950 306.557373,395.504059 
	C300.389923,398.369751 294.997406,396.667114 289.741821,396.293640 
	C288.399811,396.198242 288.436554,395.681213 288.101440,391.628876 
	C287.828186,391.675446 287.398407,391.630005 287.306213,391.785187 
	C286.324829,393.436676 287.521423,396.940430 284.229218,396.515686 
	C280.999664,396.099121 282.032104,392.943817 281.856232,390.771667 
	C281.722412,389.119293 281.830139,387.447388 281.834412,385.339600 
z"/>
<path fill="#000000" opacity="1.000000" stroke="none" 
	d="
M551.282532,212.332916 
	C543.485229,212.260208 536.123108,213.258759 528.720764,212.123718 
	C526.384888,211.765549 525.970825,210.639847 525.962341,208.876266 
	C525.950500,206.408112 525.567261,203.195084 529.065491,203.096558 
	C537.207703,202.867218 545.367981,203.003052 553.512695,203.256134 
	C557.307434,203.374039 557.236572,206.612488 557.116638,209.229904 
	C556.956116,212.732925 554.469238,212.969818 551.282532,212.332916 
z"/>
<path fill="#000000" opacity="1.000000" stroke="none" 
	d="
M846.587585,423.093964 
	C844.580200,420.631195 844.319275,418.259827 846.151489,416.043274 
	C847.824951,414.018860 849.623596,415.486023 851.549011,415.964386 
	C854.320312,416.652863 857.037720,417.077728 860.174438,416.004974 
	C863.958374,414.710815 868.081360,416.845825 872.261047,416.564636 
	C876.490051,416.280151 880.780090,417.031158 884.923523,415.002716 
	C886.933228,417.742462 887.736023,421.422577 885.296997,422.662811 
	C881.685303,424.499390 877.118591,424.753235 873.347290,421.741425 
	C868.547180,424.584747 860.359802,424.561798 855.627441,421.648499 
	C853.029663,423.682526 850.142090,424.478943 846.587585,423.093964 
z"/>
<path fill="#000000" opacity="1.000000" stroke="none" 
	d="
M559.977173,113.614105 
	C558.323914,116.405891 555.882507,116.029388 553.597290,116.010811 
	C548.953979,115.973076 544.311340,115.808067 539.668335,115.804314 
	C537.298157,115.802399 535.293945,115.482918 534.995667,112.592415 
	C534.694519,109.674240 534.568359,106.799561 538.169434,105.695427 
	C541.568481,104.653236 545.045776,104.705734 548.532532,105.110245 
	C550.180054,105.301384 551.817139,105.617043 553.468994,105.730400 
	C560.151123,106.188957 560.262634,106.291977 559.977173,113.614105 
z"/>
<path fill="#000000" opacity="1.000000" stroke="none" 
	d="
M501.051086,78.944489 
	C498.217224,78.418060 495.796570,77.496216 493.366943,77.471962 
	C486.530334,77.403732 485.211456,75.363022 488.157166,68.746445 
	C493.206787,70.051048 498.343689,69.248062 503.367096,68.884369 
	C506.529297,68.655426 509.724701,68.602844 512.729736,68.972305 
	C517.489685,69.557549 515.571167,73.516945 515.725098,76.986549 
	C510.715424,76.908241 505.934967,77.093315 501.051086,78.944489 
z"/>
<path fill="#000000" opacity="1.000000" stroke="none" 
	d="
M484.808746,212.271454 
	C481.469177,210.734070 481.939789,208.259750 482.553650,205.743515 
	C483.240082,202.929840 485.612488,203.636551 487.462677,203.514893 
	C491.441620,203.253311 495.431641,203.086533 499.418976,203.039993 
	C507.732330,202.942963 507.732819,202.985382 507.210358,212.344498 
	C499.938751,213.264679 492.548340,212.318146 484.808746,212.271454 
z"/>
<path fill="#000000" opacity="1.000000" stroke="none" 
	d="
M820.208557,278.088715 
	C817.959290,278.029541 816.082397,278.497192 814.729492,277.430847 
	C813.644165,276.035919 814.567505,274.925720 814.544312,273.810272 
	C814.405396,267.139099 814.427002,267.736664 820.659851,269.359375 
	C826.180420,270.796661 832.194275,270.477844 837.997925,270.615997 
	C840.124084,270.666626 841.957275,270.550720 843.081970,272.711517 
	C843.782715,274.057770 843.602234,275.353668 842.736328,276.455597 
	C841.308472,278.272400 839.442322,277.823181 837.349182,277.743500 
	C831.802917,277.532257 826.233154,277.937439 820.208557,278.088715 
z"/>
<path fill="#000000" opacity="1.000000" stroke="none" 
	d="
M489.459106,115.638176 
	C487.957916,115.579086 486.808929,115.374474 485.653564,115.328194 
	C478.902344,115.057739 478.115997,113.626648 481.468140,107.773643 
	C481.999176,106.846413 482.780640,105.679222 483.645233,106.126869 
	C489.172760,108.988869 494.876709,104.318741 500.497437,106.763824 
	C502.918365,107.816971 506.432922,107.638565 505.308533,111.397591 
	C504.435272,114.317108 503.347809,118.016701 498.430695,116.571472 
	C495.698181,115.768318 492.901276,113.882202 489.459106,115.638176 
z"/>
<path fill="#000000" opacity="1.000000" stroke="none" 
	d="
M288.288513,441.262024 
	C288.109467,440.862610 288.012360,440.566498 288.005951,440.568451 
	C282.824402,442.145355 282.819000,442.145447 282.972839,435.349609 
	C283.009796,433.715637 282.781311,432.019379 284.031708,430.302551 
	C287.977783,430.562195 291.982941,431.074860 296.087158,430.056366 
	C299.228241,429.276886 301.368164,431.418640 300.698578,434.705505 
	C300.198395,437.160919 299.487854,439.428497 301.527191,441.929626 
	C296.484863,443.877625 292.447388,442.745636 288.288513,441.262024 
z"/>
<path fill="#000000" opacity="1.000000" stroke="none" 
	d="
M404.420776,288.585693 
	C403.844269,291.695160 401.573853,291.477081 399.664215,291.536377 
	C394.385712,291.700104 389.099152,291.615021 383.821533,291.795807 
	C380.418610,291.912384 379.576721,289.743286 379.254059,287.093781 
	C378.860291,283.860748 381.372528,284.410614 383.366302,283.621246 
	C388.435333,281.614197 393.529846,283.339569 398.580231,282.787842 
	C402.105621,282.402740 404.745422,283.988220 404.420776,288.585693 
z"/>
<path fill="#000000" opacity="1.000000" stroke="none" 
	d="
M833.586304,466.490723 
	C833.086060,463.277527 835.226562,463.321503 836.668762,463.900330 
	C843.394653,466.599670 850.381104,464.770966 857.217957,465.299957 
	C859.462646,465.473633 861.262207,465.366089 861.381714,468.154999 
	C861.483887,470.541565 860.932129,471.990570 857.984558,472.570190 
	C849.807495,474.178192 841.916199,470.817413 834.350464,472.368164 
	C832.600952,470.110138 834.079468,468.449371 833.586304,466.490723 
z"/>
<path fill="#000000" opacity="1.000000" stroke="none" 
	d="
M934.687988,493.904205 
	C933.645325,495.244720 932.806702,497.432831 931.218445,495.778931 
	C929.092651,493.565247 927.627441,496.013306 925.642212,495.965210 
	C923.909363,493.859680 923.493042,491.488647 924.982971,489.191162 
	C926.501465,486.849579 928.718079,487.780792 930.780334,488.593323 
	C933.847168,489.801697 936.860840,490.221252 939.209412,487.735626 
	C941.791504,487.930969 940.724365,490.225983 941.818787,491.240295 
	C944.835938,488.668091 948.400696,489.831390 951.766602,489.857910 
	C953.579102,489.872223 954.195496,491.338837 954.172424,493.017365 
	C954.150146,494.644043 953.705200,496.142548 951.811523,496.222565 
	C947.512207,496.404266 943.186646,496.191620 938.908875,496.565277 
	C936.440125,496.780914 937.254944,493.195831 934.687988,493.904205 
z"/>
<path fill="#000000" opacity="1.000000" stroke="none" 
	d="
M868.705383,540.618530 
	C869.332520,544.080017 867.872314,545.209656 864.936096,545.180908 
	C859.835632,545.130981 854.732361,545.150452 849.633118,545.266052 
	C845.713318,545.354919 844.978210,542.785767 844.852356,539.752869 
	C844.716125,536.471558 847.247498,536.973877 849.344788,536.606079 
	C854.284790,535.739746 859.131165,537.380798 864.068420,536.923889 
	C866.140564,536.732056 867.730408,538.235046 868.705383,540.618530 
z"/>
<path fill="#000000" opacity="1.000000" stroke="none" 
	d="
M842.298096,375.132935 
	C839.716980,375.452271 838.619324,374.144501 837.807861,371.909943 
	C836.975281,372.805664 837.048584,375.098328 835.726013,374.410004 
	C832.716003,372.843445 834.032532,369.540863 833.122192,367.193512 
	C833.665833,366.807587 833.996399,366.404327 834.186401,366.462280 
	C842.408142,368.968323 850.880005,367.201050 859.195496,367.978760 
	C860.703613,368.119812 861.395142,369.222778 861.409241,370.790161 
	C861.422424,372.263916 861.935242,374.469757 860.197205,374.623474 
	C856.931641,374.912323 853.025024,376.747772 850.573608,372.579773 
	C848.970825,376.376709 845.349731,374.295654 842.298096,375.132935 
z"/>
<path fill="#000000" opacity="1.000000" stroke="none" 
	d="
M832.678467,395.231995 
	C832.796875,393.541229 832.402405,392.073944 834.133545,391.323395 
	C836.689331,391.971924 835.107300,395.942291 838.003479,396.378265 
	C840.038574,395.858917 838.702026,394.180756 839.100281,393.098236 
	C839.814697,391.156403 840.919617,389.646820 843.112793,391.218170 
	C845.727783,393.091644 848.239868,392.494965 851.039124,391.755066 
	C854.214111,390.915802 857.339478,392.351318 860.373169,393.102509 
	C861.837280,393.465027 861.473083,395.695374 861.365479,397.138916 
	C861.243103,398.780457 859.972656,399.271454 858.522888,399.277710 
	C851.105103,399.309814 843.686951,399.297028 836.269226,399.346039 
	C833.727112,399.362854 832.678772,398.057861 832.678467,395.231995 
z"/>
<path fill="#000000" opacity="1.000000" stroke="none" 
	d="
M844.417725,239.306946 
	C844.878357,240.519684 845.179993,241.439957 845.571167,242.633469 
	C847.285522,240.882126 848.721436,238.565872 851.421143,240.376389 
	C853.030945,241.456024 853.077393,243.147705 852.647949,244.840714 
	C851.916382,247.724762 849.694336,247.471436 847.476562,247.239288 
	C846.994812,247.188873 846.408630,247.528839 846.012878,247.358398 
	C841.648132,245.478485 837.256165,247.416916 832.881714,247.236923 
	C830.611694,247.143524 828.194946,247.274246 828.207214,244.281189 
	C828.216492,242.012665 828.744385,239.784210 832.016479,239.494690 
	C836.100769,239.133301 840.105713,237.564240 844.417725,239.306946 
z"/>
<path fill="#000000" opacity="1.000000" stroke="none" 
	d="
M343.687561,251.987717 
	C344.587830,250.646149 344.985901,249.226517 345.909180,248.379089 
	C347.895477,246.555954 348.945221,242.478165 352.879425,244.547516 
	C356.275909,246.334061 358.499146,254.363907 356.533600,257.501465 
	C354.205017,261.218445 351.113251,260.713318 348.003143,258.474426 
	C346.720032,257.550720 345.301880,257.327118 343.797455,257.156586 
	C342.387909,256.996826 341.233917,256.274017 341.007080,254.747375 
	C340.742920,252.969864 342.100189,252.547318 343.687561,251.987717 
z"/>
<path fill="#000000" opacity="1.000000" stroke="none" 
	d="
M847.803284,496.660248 
	C843.844910,496.592560 840.252869,496.424469 836.661255,496.434906 
	C835.049438,496.439575 833.471497,496.363220 833.030518,494.608429 
	C832.509644,492.535736 832.092102,490.256134 833.992554,488.564423 
	C835.333862,487.370422 836.656738,487.849304 838.011841,488.879852 
	C840.152222,490.507599 843.196045,490.453369 844.988281,489.552856 
	C847.718994,488.180847 849.758423,488.901459 852.303467,489.367126 
	C855.054810,489.870514 856.147400,491.087341 855.871887,493.649750 
	C855.560242,496.547913 853.575806,496.908295 851.138611,496.569611 
	C850.170593,496.435089 849.160645,496.602600 847.803284,496.660248 
z"/>
<path fill="#000000" opacity="1.000000" stroke="none" 
	d="
M924.169983,447.932800 
	C922.315735,447.363617 921.031128,446.684814 919.161011,447.585205 
	C917.480896,448.394135 915.285217,448.386017 913.329590,448.326294 
	C903.034973,448.011597 904.844421,448.540161 902.989197,440.183899 
	C906.444824,439.092987 906.444824,439.092987 909.198120,444.563293 
	C909.497681,442.189484 909.331116,439.995026 911.969116,439.037720 
	C913.854614,442.579742 917.065857,440.960175 919.925232,440.595947 
	C921.865051,440.348816 924.360901,438.946899 925.190918,441.311584 
	C925.861511,443.222198 927.034424,445.993286 924.169983,447.932800 
z"/>
<path fill="#000000" opacity="1.000000" stroke="none" 
	d="
M516.403198,105.339523 
	C520.116211,105.300575 526.919617,110.361824 527.585327,113.553757 
	C528.069946,115.877365 526.626099,117.109856 524.430786,116.682457 
	C520.686035,115.953384 516.992676,115.372940 513.160706,115.944923 
	C511.509369,116.191429 510.138763,115.395020 510.016815,113.574387 
	C509.853394,111.134773 509.493774,108.577141 511.808624,106.728638 
	C513.056885,105.731842 514.569275,105.730156 516.403198,105.339523 
z"/>
<path fill="#000000" opacity="1.000000" stroke="none" 
	d="
M417.486572,291.429993 
	C410.659790,291.722412 408.901337,290.442169 409.968353,286.202972 
	C410.221100,285.198944 410.608643,283.957123 411.616455,283.944214 
	C416.906464,283.876282 422.299530,281.355438 427.457825,284.038788 
	C430.335175,285.535583 428.726776,288.350006 428.881104,290.905853 
	C425.022217,291.318115 421.490479,292.042694 417.486572,291.429993 
z"/>
<path fill="#000000" opacity="1.000000" stroke="none" 
	d="
M912.681396,423.841064 
	C909.221008,422.028900 905.942261,423.624756 902.794434,423.766083 
	C893.773682,424.171051 893.783997,424.400360 891.704590,415.870117 
	C893.828186,415.314911 893.896423,415.368073 897.609070,420.595306 
	C898.786438,418.705902 897.261841,415.622650 900.612244,414.694763 
	C902.227783,418.521576 905.486572,416.907379 908.281250,416.469269 
	C910.207458,416.167297 912.437988,414.695068 913.616272,416.906677 
	C914.744812,419.024597 914.771606,421.660034 912.681396,423.841064 
z"/>
<path fill="#000000" opacity="1.000000" stroke="none" 
	d="
M436.727844,291.517944 
	C434.000305,290.147278 434.526825,288.163910 435.163361,286.223480 
	C435.851410,284.125885 437.569550,283.852844 439.524139,283.706329 
	C443.280121,283.424713 447.074402,284.243958 450.812531,282.711212 
	C453.474701,281.619598 453.749603,284.102875 453.901215,285.876068 
	C454.109985,288.316589 454.618805,291.302734 450.914398,291.505005 
	C446.307800,291.756531 441.679596,291.612152 436.727844,291.517944 
z"/>
<path fill="#000000" opacity="1.000000" stroke="none" 
	d="
M289.438812,467.955688 
	C295.744019,466.751923 295.107330,468.308807 295.485901,474.078979 
	C295.742493,477.989685 292.895142,478.478333 289.641846,477.642487 
	C288.894257,477.450409 288.026245,477.757935 287.211853,477.789551 
	C283.620911,477.928864 280.919891,477.472626 280.993439,472.643585 
	C281.071289,467.531799 284.104858,467.687042 287.592773,467.951111 
	C288.084564,467.988342 288.578156,468.000977 289.438812,467.955688 
z"/>
<path fill="#000000" opacity="1.000000" stroke="none" 
	d="
M909.082275,516.409424 
	C909.281555,519.978271 907.822876,521.255676 904.591125,520.969238 
	C902.144226,520.752258 899.651062,520.920349 897.187317,521.066162 
	C894.372192,521.232788 892.932312,519.900757 892.260803,517.265869 
	C891.934631,515.986023 891.140625,514.816956 892.298340,513.591980 
	C893.375977,512.451721 894.600037,512.420227 895.906250,513.123596 
	C897.828552,514.158813 899.931519,513.957642 901.689026,513.170471 
	C905.287964,511.558441 907.310364,513.163147 909.082275,516.409424 
z"/>
<path fill="#000000" opacity="1.000000" stroke="none" 
	d="
M806.162964,283.209381 
	C806.543091,283.724548 806.691467,284.015320 806.839844,284.306061 
	C800.958862,286.257141 802.339355,291.917328 800.740051,296.229767 
	C799.350586,284.584320 799.716370,273.059540 799.730103,261.157013 
	C803.390442,261.623291 803.883667,263.287323 803.722107,265.772125 
	C803.475342,269.565277 803.326599,273.387238 803.518311,277.177643 
	C803.623657,279.260468 803.989807,281.527313 806.162964,283.209381 
z"/>
<path fill="#000000" opacity="1.000000" stroke="none" 
	d="
M876.273682,537.168274 
	C879.578979,538.425659 882.597229,538.769470 885.643372,537.335510 
	C887.949341,536.250000 889.491394,537.631531 890.890869,539.029663 
	C892.021240,540.158752 892.190430,541.696716 891.571045,543.215454 
	C890.692871,545.369202 888.834534,545.284180 886.953308,545.228760 
	C884.630615,545.160339 882.303955,545.227295 879.981384,545.157043 
	C875.032410,545.007507 873.447693,541.899841 876.273682,537.168274 
z"/>
<path fill="#000000" opacity="1.000000" stroke="none" 
	d="
M476.854431,22.071394 
	C480.448364,25.359753 479.795319,32.450878 476.014099,34.470245 
	C473.212402,35.966507 470.748230,35.389584 469.186249,32.616943 
	C467.901794,30.336884 467.480682,27.565294 469.289795,25.554344 
	C471.093323,23.549593 472.588501,20.044590 476.854431,22.071394 
z"/>
<path fill="#000000" opacity="1.000000" stroke="none" 
	d="
M287.954407,340.130280 
	C288.230469,335.380066 292.670471,334.648438 295.256348,332.352386 
	C296.524323,331.226532 298.423096,334.102692 299.795349,335.468445 
	C301.631866,337.296265 302.245514,339.066833 299.307739,340.544098 
	C298.616119,340.891876 297.777039,341.579956 297.620514,342.254211 
	C296.697968,346.228241 294.564575,346.493378 291.420929,344.631439 
	C290.799011,344.263031 289.856598,344.435699 289.116302,344.364105 
	C288.748657,342.947571 288.421265,341.686188 287.954407,340.130280 
z"/>
<path fill="#000000" opacity="1.000000" stroke="none" 
	d="
M828.700317,444.894684 
	C828.994690,442.150269 827.598572,439.158569 830.953613,438.084534 
	C833.698914,437.205750 835.606018,438.759247 837.412476,440.697662 
	C839.377075,442.805847 838.966492,444.767120 837.757263,446.995544 
	C836.318481,449.646820 833.878601,449.101379 831.635559,449.071503 
	C829.251099,449.039795 828.646912,447.405914 828.700317,444.894684 
z"/>
<path fill="#000000" opacity="1.000000" stroke="none" 
	d="
M838.267761,518.325012 
	C836.501465,522.363342 833.245605,522.995544 830.355896,521.424133 
	C827.224548,519.721313 828.860718,516.071045 829.011780,513.297852 
	C829.139099,510.961060 831.353149,510.471954 833.137390,511.103699 
	C836.246643,512.204651 839.251892,513.727051 838.267761,518.325012 
z"/>
<path fill="#000000" opacity="1.000000" stroke="none" 
	d="
M826.648193,346.081604 
	C827.379517,339.783936 832.127991,342.168549 835.178833,341.947357 
	C838.571289,341.701385 837.955872,345.059265 838.154663,347.196533 
	C838.384583,349.669342 836.788147,351.354919 834.520569,350.550201 
	C831.782532,349.578552 826.307373,353.371887 826.648193,346.081604 
z"/>
<path fill="#000000" opacity="1.000000" stroke="none" 
	d="
M828.721558,540.157532 
	C828.497986,536.683228 829.699158,534.789734 832.940552,535.195862 
	C836.282288,535.614624 838.609436,538.016846 838.656738,541.060974 
	C838.704956,544.162231 836.686035,546.328491 832.852600,546.276184 
	C828.572327,546.217590 828.632690,543.548523 828.721558,540.157532 
z"/>
<path fill="#000000" opacity="1.000000" stroke="none" 
	d="
M828.717773,417.196960 
	C829.790283,412.588196 832.724243,413.181976 835.218445,414.717590 
	C838.122498,416.505554 840.466248,419.014221 837.500244,422.748352 
	C835.383484,425.413177 832.426392,425.372375 830.006042,424.060242 
	C827.676575,422.797424 829.038391,419.841064 828.717773,417.196960 
z"/>
<path fill="#000000" opacity="1.000000" stroke="none" 
	d="
M861.495117,495.115295 
	C860.949219,492.482849 860.348877,490.158478 862.606140,488.063477 
	C865.668701,489.665192 869.162354,489.578217 872.776123,489.978119 
	C873.698669,493.202484 872.208435,495.498383 870.287109,498.126953 
	C867.735535,496.050903 864.156250,497.882172 861.495117,495.115295 
z"/>
<path fill="#000000" opacity="1.000000" stroke="none" 
	d="
M824.018799,325.945984 
	C821.680298,326.137299 819.710693,326.109589 817.742676,326.154694 
	C814.873901,326.220398 813.659424,324.979889 813.676453,321.996399 
	C813.693542,319.014893 814.926941,318.002319 817.784546,317.836426 
	C825.268250,317.401917 825.819458,317.971252 824.018799,325.945984 
z"/>
<path fill="#000000" opacity="1.000000" stroke="none" 
	d="
M802.382080,247.749512 
	C799.400940,239.889130 801.234802,238.315826 810.899963,240.199951 
	C810.899963,241.586014 810.842529,243.026245 810.916077,244.459763 
	C810.989563,245.891068 812.251465,247.185715 811.283386,249.066223 
	C808.511475,248.702454 805.631165,248.324463 802.382080,247.749512 
z"/>
<path fill="#000000" opacity="1.000000" stroke="none" 
	d="
M878.212219,470.126282 
	C877.430359,471.742615 876.080505,474.177429 875.547729,473.527466 
	C873.216980,470.684052 868.951538,474.142975 867.273743,470.682281 
	C866.397583,468.875092 866.350769,466.714874 867.411316,464.967804 
	C868.679260,462.879089 870.239807,464.601318 871.715881,465.003754 
	C872.964722,465.344238 874.306335,465.623322 875.580688,465.537872 
	C879.211121,465.294495 879.421631,467.073364 878.212219,470.126282 
z"/>
<path fill="#000000" opacity="1.000000" stroke="none" 
	d="
M281.140076,538.447021 
	C282.019562,530.263489 288.068634,535.419006 291.793671,532.964661 
	C292.042267,536.431274 294.645172,539.086060 291.211975,541.294922 
	C288.818604,542.834778 282.386353,541.106323 281.140076,538.447021 
z"/>
<path fill="#000000" opacity="1.000000" stroke="none" 
	d="
M287.252625,509.499329 
	C286.246613,510.297058 285.491058,509.823212 284.688080,509.704987 
	C283.922150,509.592163 283.107422,509.810944 282.229828,509.891724 
	C280.663300,507.574677 280.215912,504.876526 281.898041,502.939362 
	C283.231659,501.403534 285.715576,501.440033 287.600403,503.129364 
	C289.474213,504.808868 290.119110,500.979187 291.943848,502.233124 
	C293.377350,506.077393 293.377350,506.077393 293.042877,509.670074 
	C291.104645,510.948273 289.413086,507.928406 287.252625,509.499329 
z"/>
<path fill="#000000" opacity="1.000000" stroke="none" 
	d="
M870.540771,243.037064 
	C869.114685,245.587555 862.686279,247.932816 860.682007,246.842545 
	C859.210510,246.042099 858.692688,244.688492 858.875977,243.064301 
	C859.061890,241.416336 859.934692,240.264420 861.569214,239.897415 
	C863.158386,239.540558 864.789368,239.802979 866.411438,239.102081 
	C870.860962,237.179443 871.309631,237.622635 870.540771,243.037064 
z"/>
<path fill="#000000" opacity="1.000000" stroke="none" 
	d="
M853.058960,271.100464 
	C854.522949,269.375336 855.589233,266.971008 857.963501,269.033051 
	C860.410095,271.157898 861.437134,274.128693 860.144775,277.121124 
	C859.114990,279.505341 856.736755,279.559753 854.579895,278.320038 
	C853.071594,277.453094 850.876953,277.604706 850.060059,275.268494 
	C850.957092,274.029846 851.909241,272.715118 853.058960,271.100464 
z"/>
<path fill="#000000" opacity="1.000000" stroke="none" 
	d="
M473.784882,77.209579 
	C470.608887,75.137199 470.023804,72.605598 472.028625,69.910080 
	C473.529663,67.891823 475.772095,67.293449 478.170258,68.556847 
	C480.356293,69.708488 481.180115,71.689140 480.478729,73.928093 
	C479.534058,76.943611 477.599457,78.712402 473.784882,77.209579 
z"/>
<path fill="#000000" opacity="1.000000" stroke="none" 
	d="
M819.082397,374.456177 
	C817.888000,374.526581 816.796997,375.346588 816.435425,373.715424 
	C815.619507,370.034668 817.651306,367.678741 820.501221,366.235138 
	C823.416321,364.758514 824.261475,367.780426 826.112488,369.451660 
	C823.824890,371.395844 823.411377,375.150269 819.082397,374.456177 
z"/>
<path fill="#000000" opacity="1.000000" stroke="none" 
	d="
M825.419373,296.937042 
	C823.436829,300.713379 820.593628,302.447998 816.422363,301.864655 
	C815.383362,297.395996 817.939026,294.786072 821.522888,292.633759 
	C823.565735,293.203278 824.820251,294.605164 825.419373,296.937042 
z"/>
<path fill="#000000" opacity="1.000000" stroke="none" 
	d="
M816.581421,395.330627 
	C817.467529,392.111755 819.517334,390.268677 822.492126,390.465363 
	C823.919617,390.559784 826.027832,392.308685 825.320679,393.939392 
	C824.426941,396.000488 823.372009,398.737579 820.367737,398.773315 
	C819.226135,398.786926 818.090271,398.714417 817.132812,399.139526 
	C815.917297,397.918427 817.006409,396.704681 816.581421,395.330627 
z"/>
<path fill="#000000" opacity="1.000000" stroke="none" 
	d="
M818.651855,489.446777 
	C820.450378,487.143799 821.946594,486.576843 824.150452,488.661560 
	C826.847290,491.212555 824.537659,492.485748 823.314026,494.377716 
	C821.578369,497.061401 819.332275,496.290802 817.821838,494.972198 
	C816.088501,493.458954 815.790466,491.170990 818.651855,489.446777 
z"/>
<path fill="#000000" opacity="1.000000" stroke="none" 
	d="
M824.036621,469.115540 
	C822.249207,472.624420 819.669495,471.905762 817.142578,471.157349 
	C815.113220,466.587555 818.891052,465.137512 821.465332,462.679413 
	C823.471863,464.422180 827.372559,464.934418 824.036621,469.115540 
z"/>
<path fill="#000000" opacity="1.000000" stroke="none" 
	d="
M523.579102,69.070984 
	C522.840942,66.353226 522.356567,63.658901 521.870361,60.954628 
	C523.874878,59.614616 525.857727,59.451542 527.250122,61.200947 
	C528.579163,62.870823 527.515808,64.600891 526.308899,66.062782 
	C525.478271,67.068962 524.657898,68.083580 523.579102,69.070984 
z"/>
<path fill="#000000" opacity="1.000000" stroke="none" 
	d="
M519.268738,207.214859 
	C518.057922,209.560440 518.208008,212.456848 514.554688,213.545624 
	C513.970154,209.149017 515.962952,206.226944 517.782288,203.214752 
	C520.509460,203.943100 519.658752,205.495712 519.268738,207.214859 
z"/>
<path fill="#000000" opacity="1.000000" stroke="none" 
	d="
M823.016968,240.739883 
	C823.344543,237.487808 823.344543,237.487808 827.837708,238.541061 
	C826.959778,241.259781 827.852173,244.479645 825.329407,246.814484 
	C822.459778,245.448532 824.279663,242.752121 823.016968,240.739883 
z"/>
<path fill="#000000" opacity="1.000000" stroke="none" 
	d="
M828.868774,262.451538 
	C833.291992,261.817535 837.451172,261.481995 841.503113,263.112122 
	C837.169800,264.050873 832.821716,265.719574 828.868774,262.451538 
z"/>
</svg>