<svg version="1.1" id="Layer_1" xmlns="http://www.w3.org/2000/svg" xmlns:xlink="http://www.w3.org/1999/xlink" x="0px" y="0px"
	 width="100%" viewBox="0 0 1024 560" enable-background="new 0 0 1024 560" xml:space="preserve">
<path fill="#000000" opacity="1.000000" stroke="none" 
	d="
M704.531372,1.000000 
	C703.343689,1.958678 702.646301,2.981656 703.849426,4.983395 
	C705.509399,7.745279 707.361145,10.244581 710.045166,12.058626 
	C713.881470,14.651516 715.328064,18.174368 716.166992,22.839787 
	C717.644958,31.058918 719.201660,39.484200 726.459351,45.412033 
	C730.499146,48.711647 733.045471,53.279942 733.366272,58.830605 
	C733.777100,65.939995 734.261169,73.066811 734.661255,80.145035 
	C735.194641,89.582474 737.235046,99.183670 740.531738,108.276596 
	C741.347839,110.527580 743.602539,111.018265 745.614380,111.910667 
	C754.113770,115.680748 763.314270,114.417511 772.136963,115.806709 
	C774.801331,116.226227 777.797485,115.900856 778.564331,119.255356 
	C779.325562,122.585274 776.661011,123.777908 774.297302,125.155685 
	C771.998779,126.495415 769.962402,128.061417 766.982178,127.779114 
	C764.048096,127.501190 763.006714,129.812897 762.510742,132.229706 
	C761.836304,135.515778 762.921204,138.452286 764.554871,141.263229 
	C772.879700,155.587341 770.229553,169.624893 757.367920,179.803818 
	C754.634766,181.966888 751.682739,184.012985 749.483643,186.655563 
	C745.728333,191.168274 746.864990,193.864349 752.654053,194.674820 
	C755.882080,195.126724 758.437561,195.815247 759.186829,199.555939 
	C760.283264,205.029526 758.902588,206.866638 753.257324,207.080566 
	C750.599854,207.181274 747.926025,207.287582 745.302612,207.679077 
	C743.862976,207.893906 742.170898,208.544754 742.047241,210.317017 
	C741.912659,212.247437 743.692688,212.573380 745.105957,213.012543 
	C748.177063,213.966858 751.334778,213.944443 754.516113,213.883911 
	C759.680298,213.785614 764.850159,213.718521 770.012207,213.851471 
	C776.710693,214.024033 780.437195,217.589828 780.967468,224.320206 
	C781.189087,227.133575 781.102600,229.987183 780.946777,232.810944 
	C780.638672,238.394485 781.862061,243.577179 783.600403,248.913467 
	C787.294678,260.253784 785.656189,271.245483 778.556091,280.923523 
	C773.556152,287.738953 771.689331,294.873199 774.072327,302.985748 
	C775.398621,307.501068 775.580994,311.602264 770.903748,314.353882 
	C765.762268,317.378510 759.682556,319.059021 754.729248,316.102203 
	C749.935852,313.240906 748.125061,307.150696 749.372803,301.429840 
	C750.836182,294.720673 747.312927,290.034546 744.693420,284.828949 
	C742.029297,285.513855 742.243958,287.453247 742.001160,288.977844 
	C740.820984,296.388672 740.130066,303.837067 740.307861,311.362427 
	C740.461060,317.851654 739.453552,318.666046 733.149841,319.778931 
	C730.694275,320.212402 726.928406,318.307404 725.970764,322.305328 
	C725.234924,325.376862 730.657288,331.411041 734.362549,331.687744 
	C739.999634,332.108673 745.695984,332.457123 751.240234,330.827209 
	C754.005920,330.014130 756.807434,329.703400 759.640564,330.047668 
	C762.265381,330.366608 763.925903,331.878418 764.033203,334.636169 
	C764.138367,337.338348 762.807129,339.462433 760.126587,339.567047 
	C753.517700,339.824982 746.954895,342.044678 740.308350,340.371124 
	C734.472900,338.901764 729.529419,341.674347 724.396729,343.450470 
	C711.669189,347.854645 710.742859,347.192627 710.734741,333.810425 
	C710.688477,257.647583 710.597778,181.484711 710.542480,105.321854 
	C710.536438,96.989731 710.466919,88.649872 710.797180,80.328293 
	C710.986816,75.549751 709.307678,73.977020 704.477417,73.986794 
	C640.646240,74.116013 576.814819,74.066124 512.983398,74.078346 
	C460.318420,74.088425 407.653442,74.120956 354.988464,74.145126 
	C349.128967,74.147820 343.368988,73.597664 337.783203,71.618179 
	C333.800873,70.206924 330.014099,70.643906 326.362701,74.421112 
	C325.938568,68.812271 325.688354,64.042809 326.590302,59.347378 
	C327.424316,55.005394 330.830231,53.703693 334.772430,52.418995 
	C350.681763,47.234371 366.322235,49.816376 382.079681,53.046974 
	C397.776428,56.265114 413.811798,56.564426 429.716827,57.936367 
	C437.133209,58.576096 444.605682,58.100258 450.949615,63.488087 
	C453.516083,65.667778 457.488037,66.008728 461.032684,65.714851 
	C484.077423,63.804260 507.127472,61.899967 529.933838,57.907364 
	C532.279663,57.496689 534.963440,57.520035 537.040222,54.740559 
	C534.093750,53.370888 531.195984,53.146515 528.289246,53.197945 
	C510.137024,53.519108 491.993561,52.698147 473.841400,52.643799 
	C451.184601,52.575970 428.544617,53.218079 405.895691,53.217449 
	C402.241272,53.217350 398.589752,53.763653 394.931763,53.858540 
	C388.234833,54.032261 385.781128,51.612537 385.828918,45.006264 
	C385.885590,37.173851 385.994385,29.341749 386.099945,21.509773 
	C386.190186,14.815616 388.068451,12.776820 394.880646,13.058994 
	C417.009857,13.975636 439.148102,13.509180 461.278412,13.552489 
	C507.924072,13.643775 554.571533,13.918175 601.217346,13.163272 
	C615.693848,12.928989 630.171814,14.392888 644.668274,13.182363 
	C649.598816,12.770638 652.086609,15.350366 652.180054,20.312412 
	C652.286682,25.976315 652.028870,31.653511 652.309143,37.306099 
	C652.667786,44.537182 654.760437,45.848045 661.441711,43.588284 
	C672.044434,40.002224 679.056702,30.524487 678.973694,19.441463 
	C678.931702,13.832209 679.427917,8.466455 682.647766,3.668579 
	C683.193359,2.855617 682.973022,2.096680 682.174805,1.207160 
	C689.354248,1.000000 696.708496,1.000000 704.531372,1.000000 
M617.729065,58.695702 
	C620.240417,57.771496 623.106018,57.443806 624.612305,54.078293 
	C603.374939,53.416866 582.233521,52.195374 561.098755,54.174747 
	C568.574219,58.572655 576.316162,59.510960 584.751892,58.449364 
	C591.090515,57.651680 597.675964,56.530247 604.058411,57.730080 
	C608.355530,58.537903 612.549744,59.173061 617.729065,58.695702 
z"/>
<path fill="#000000" opacity="1.000000" stroke="none" 
	d="
M429.468658,561.000000 
	C430.442902,550.233826 429.567810,539.411133 429.722931,528.616516 
	C429.920654,514.856506 429.783447,514.950378 443.387177,514.728516 
	C457.706940,514.495117 471.998718,515.139099 486.293823,515.751770 
	C490.635406,515.937805 494.772705,517.094299 496.872253,521.195557 
	C499.023102,525.397156 496.333221,528.947327 494.014709,532.160950 
	C490.619934,536.866516 486.447937,541.022461 484.831451,546.866821 
	C482.912689,553.804260 484.517029,555.835815 491.365143,553.926575 
	C500.015808,551.514832 507.130035,553.085999 512.820984,560.715576 
	C485.312439,561.000000 457.624878,561.000000 429.468658,561.000000 
z"/>
<path fill="#000000" opacity="1.000000" stroke="none" 
	d="
M240.468658,561.000000 
	C240.021469,548.529968 240.691818,536.071045 240.178314,523.586914 
	C239.856613,515.766235 241.191391,514.806946 249.099106,514.732483 
	C265.911591,514.574158 282.707306,514.670349 299.438538,516.708496 
	C305.768311,517.479492 308.435303,521.687439 306.009949,527.527954 
	C304.386383,531.437622 301.914978,534.741272 298.910400,537.687500 
	C294.891998,541.627869 292.369507,546.463440 290.634155,551.750183 
	C289.930878,553.892639 289.608948,556.186646 291.369080,557.851501 
	C293.314575,559.691528 295.023682,557.664978 296.778381,556.955566 
	C303.359406,554.295044 309.762939,550.501282 317.216125,554.412537 
	C319.960480,555.852783 322.214600,557.667542 323.855225,560.693787 
	C296.312439,561.000000 268.624878,561.000000 240.468658,561.000000 
z"/>
<path fill="#000000" opacity="1.000000" stroke="none" 
	d="
M327.468658,561.000000 
	C328.360504,553.390259 326.469727,545.795593 326.913574,538.167358 
	C327.240723,532.544983 326.923523,526.876953 326.725464,521.235107 
	C326.585419,517.245850 328.162537,514.906311 332.246826,514.428894 
	C341.183075,513.384460 350.128204,514.288635 359.058838,514.452271 
	C362.845337,514.521667 364.901123,517.061401 364.497131,521.253235 
	C363.253418,534.158630 363.208374,547.114990 363.037598,560.532532 
	C351.312439,561.000000 339.624878,561.000000 327.468658,561.000000 
z"/>
<path fill="#000000" opacity="1.000000" stroke="none" 
	d="
M516.468628,561.000000 
	C516.910828,549.554260 515.418457,538.115540 515.893982,526.669861 
	C515.969849,524.843750 515.829102,523.009399 515.874023,521.180969 
	C515.971985,517.196228 518.013855,514.889893 522.026367,514.845032 
	C530.342468,514.752014 538.662842,514.725647 546.976746,514.899109 
	C550.985901,514.982666 553.016907,517.245789 552.643677,521.418701 
	C551.486206,534.361267 552.329773,547.346130 551.925842,560.651794 
	C540.312439,561.000000 528.624878,561.000000 516.468628,561.000000 
z"/>
<path fill="#000000" opacity="1.000000" stroke="none" 
	d="
M379.468658,561.000000 
	C381.304749,554.086426 387.835327,551.542908 392.982758,547.603882 
	C394.548340,546.405884 396.385406,545.611023 397.677368,543.992065 
	C400.631775,540.289917 399.900269,538.112061 395.154724,537.145874 
	C390.315704,536.160767 385.198181,536.323486 380.954681,533.088745 
	C378.895844,531.519287 377.279572,529.791870 376.505493,527.284607 
	C375.498749,524.023682 375.457458,520.883606 378.445038,518.710571 
	C381.326599,516.614685 384.410278,517.066528 387.271393,519.061523 
	C387.950989,519.535400 388.664764,520.022278 389.187744,520.649231 
	C395.564484,528.293518 403.787476,529.246216 412.675049,526.767212 
	C417.472778,525.428894 418.772064,527.721252 418.900116,531.652100 
	C419.208588,541.119568 419.608887,550.590332 419.031860,560.532104 
	C405.979095,561.000000 392.958221,561.000000 379.468658,561.000000 
z"/>
<path fill="#000000" opacity="1.000000" stroke="none" 
	d="
M410.444855,422.747070 
	C404.111969,420.288391 399.068420,416.342468 393.831146,412.859070 
	C379.812378,403.535065 364.690491,401.882874 348.389862,404.105652 
	C340.942017,405.121246 333.079132,405.094940 325.829987,401.772247 
	C324.728302,401.267273 323.623871,401.085114 322.438965,401.434540 
	C311.524628,404.653564 300.286133,402.714294 289.212341,403.393738 
	C285.099121,403.646149 280.937500,402.458740 277.673004,398.871704 
	C272.850891,405.704559 265.860870,402.446747 259.715363,402.953400 
	C257.842804,403.107758 256.366974,401.488983 256.035950,399.444611 
	C255.682068,397.259033 256.607574,395.531555 258.389496,394.292664 
	C261.446503,392.167267 274.403351,392.402100 277.361115,394.602509 
	C279.931335,390.950470 279.651703,390.186890 275.535522,389.229645 
	C271.253204,388.233795 266.966858,388.578735 262.646881,388.899933 
	C258.716461,389.192169 256.217041,387.309448 255.837051,383.272461 
	C255.445847,379.116394 258.245514,377.110260 262.401123,377.493500 
	C274.304016,378.591125 286.248871,377.798767 298.172821,377.680573 
	C300.857971,377.653992 302.867889,375.471161 302.830414,372.661377 
	C302.780731,368.934662 299.709747,367.476105 296.714050,367.271667 
	C290.266083,366.831635 283.778015,366.921753 277.306152,366.907288 
	C272.192291,366.895844 267.075226,367.194244 261.964874,367.092102 
	C257.339874,366.999634 255.097656,363.825562 255.787262,358.834290 
	C256.338196,354.846588 259.006378,353.281342 263.489563,354.249359 
	C271.063171,355.884644 278.699158,354.392609 286.296143,354.439636 
	C290.279327,354.464294 294.168640,355.329712 298.171356,355.035278 
	C302.584747,354.710663 304.889862,352.884521 305.060730,348.291351 
	C305.233795,343.639740 303.020874,341.165619 298.591644,341.386993 
	C290.141266,341.809357 281.757751,339.856476 273.271454,341.114166 
	C268.857117,341.768402 264.415955,340.011658 259.862610,340.443909 
	C257.642426,340.654633 256.367401,338.660492 256.075867,336.484650 
	C255.727966,333.888245 256.784332,331.868683 259.222595,330.835297 
	C262.230408,329.560516 265.348450,329.932159 268.547211,330.167542 
	C281.464844,331.118103 294.399628,331.415039 307.315735,329.998108 
	C307.811523,329.943726 308.330139,329.911469 308.789398,329.739044 
	C312.314514,328.415863 314.289948,325.387054 314.314331,322.101135 
	C314.338745,318.806488 310.694000,319.440399 308.405334,319.018372 
	C299.138123,317.309387 289.780212,317.870483 280.487335,318.489624 
	C269.494629,319.221985 258.509552,319.055206 247.520233,319.032013 
	C241.970200,319.020294 240.805496,317.672485 240.629791,312.211975 
	C239.659592,282.064209 240.016617,251.908096 240.089752,221.754303 
	C240.106476,214.853134 241.397476,213.720200 248.331757,213.611450 
	C263.153076,213.379013 277.974670,213.149414 292.794281,212.831970 
	C295.688599,212.769958 298.848724,212.993347 301.140472,209.080261 
	C296.229950,208.387115 291.788422,207.682068 287.324890,207.168259 
	C285.518951,206.960388 283.664856,207.193619 281.832886,207.184464 
	C278.548462,207.168060 274.993683,207.146347 275.276031,202.513840 
	C275.632172,196.671432 278.140930,195.243011 283.351135,195.408142 
	C287.924316,195.553101 292.493652,195.589188 297.081635,195.852417 
	C302.566833,196.167145 304.489929,192.792816 301.391632,188.230591 
	C297.925110,183.126114 296.081238,177.497726 294.723236,171.657181 
	C292.867035,163.674072 295.912384,158.593842 303.798492,155.962173 
	C304.271271,155.804413 304.778992,155.722244 305.220215,155.503571 
	C309.000916,153.629776 313.268280,139.256653 311.621063,135.346344 
	C308.649139,128.291428 303.887451,125.553024 296.038086,126.020493 
	C287.460236,126.531349 278.752350,125.599640 270.162720,125.343086 
	C263.169708,125.134224 255.986099,125.310081 248.884064,125.242210 
	C245.479492,125.209679 242.187744,124.805161 242.069473,120.511261 
	C241.956680,116.416214 244.227997,114.134132 248.454620,113.690788 
	C251.959076,113.323204 255.332245,113.064972 258.797546,114.259521 
	C264.960236,116.383926 271.362915,114.475311 277.609680,114.520111 
	C283.718445,114.563911 289.853668,114.911331 295.970337,114.952400 
	C305.009888,115.013100 310.459381,110.964890 313.969330,102.779648 
	C317.405670,94.765968 320.459015,86.487160 325.595764,78.801605 
	C327.935425,81.665993 327.185699,84.613930 327.190643,87.285904 
	C327.290283,141.275040 327.325439,195.264328 327.343719,249.253586 
	C327.356842,288.079315 327.325470,326.905029 327.316528,365.730774 
	C327.314728,373.577850 327.515869,373.807159 335.531677,373.810089 
	C443.010956,373.848999 550.490234,373.871002 657.969543,373.928314 
	C662.460327,373.930725 666.969543,374.040405 671.436096,374.461639 
	C675.274170,374.823639 676.718445,376.711548 674.638672,380.603271 
	C672.435608,384.725677 672.065308,389.507904 670.678406,393.845520 
	C667.030518,405.254303 664.192139,417.018158 656.735413,427.027618 
	C650.724426,435.096375 642.999451,437.320953 633.675903,437.070374 
	C630.384766,436.981964 626.907349,437.223816 623.796021,438.205505 
	C611.430298,442.107391 599.954407,439.324371 589.175903,433.433167 
	C577.526367,427.065857 564.767273,424.939362 552.129944,422.042297 
	C542.281555,419.784607 532.507446,417.151367 522.815613,414.293945 
	C519.898254,413.433807 517.218262,412.869995 514.678406,414.433350 
	C508.551270,418.204742 502.077087,418.179565 495.369415,416.798889 
	C494.074646,416.532379 492.474792,415.910339 491.461639,416.391418 
	C478.031433,422.768738 463.919128,416.481812 450.150452,418.649933 
	C443.067780,419.765228 436.127502,420.919342 429.324341,423.069733 
	C423.122864,425.029938 416.949341,425.716553 410.444855,422.747070 
z"/>
<path fill="#000000" opacity="1.000000" stroke="none" 
	d="
M466.454010,317.729980 
	C456.650421,317.560455 447.094055,319.653381 437.782806,316.676697 
	C431.104950,318.806305 424.161896,318.370972 417.203705,317.401917 
	C416.484558,317.301727 416.062042,316.173401 415.050385,316.496613 
	C404.357819,319.912903 393.367767,316.994904 382.552216,317.980743 
	C379.268219,318.280060 375.920197,317.795868 372.604736,317.854919 
	C369.640381,317.907715 369.104431,315.516449 368.404907,313.637329 
	C367.617218,311.521454 369.053070,309.644257 370.611420,308.504120 
	C372.080688,307.429108 373.631256,308.236237 374.988892,309.585297 
	C378.424072,312.998688 379.756531,309.447388 381.337036,307.377472 
	C382.218842,306.222626 382.491547,304.428345 384.459656,304.700165 
	C386.503815,304.982483 386.455872,306.554993 386.381195,308.134399 
	C386.267395,310.540985 388.040527,310.790680 389.754272,310.789337 
	C400.201080,310.781097 410.647827,310.708679 421.094574,310.656311 
	C422.654541,310.648468 424.002289,310.189056 425.138763,309.034729 
	C426.134125,308.023743 427.787903,307.209412 428.697083,308.297089 
	C432.604828,312.972046 437.771027,310.536072 442.296875,310.760559 
	C451.202942,311.202301 460.146942,310.915741 469.074615,310.847137 
	C470.540588,310.835876 472.661957,310.926758 473.350555,310.066223 
	C475.967712,306.795746 477.524628,306.830170 480.769470,309.854675 
	C482.913391,311.853088 485.967834,308.554626 488.591278,307.147736 
	C487.959747,303.814148 486.021820,302.509247 482.971222,302.498260 
	C467.203918,302.441376 451.435791,302.264862 435.669830,302.382111 
	C431.470734,302.413330 427.268127,301.045868 423.050629,302.438568 
	C421.833862,302.840363 420.663177,302.269196 420.418152,300.839325 
	C420.000916,298.404541 420.539673,296.303070 422.517883,294.559082 
	C423.715027,293.503662 424.621521,292.482300 426.356110,293.554565 
	C430.527710,296.133331 434.675659,296.647308 438.850922,293.396881 
	C440.109070,292.417419 441.710907,292.619080 443.122955,293.347229 
	C449.988953,296.887939 456.829376,297.354919 463.138336,292.390808 
	C466.045105,290.103668 468.053070,293.196716 470.591339,292.815369 
	C472.840576,292.477448 475.316284,294.478790 477.453644,292.189392 
	C477.632629,291.997681 478.241913,291.897888 478.395264,292.037201 
	C482.983002,296.204865 487.928375,291.839172 492.685028,292.624298 
	C495.432831,293.077881 498.156219,292.767456 500.672485,294.693115 
	C503.152527,296.591064 505.734955,295.584198 507.545197,292.873505 
	C510.237213,295.401611 515.742676,295.691589 513.726746,300.335907 
	C512.419067,303.348633 508.136383,302.189056 504.958588,302.053558 
	C501.817017,301.919647 498.655762,302.320862 495.500916,302.402771 
	C492.812317,302.472565 492.106781,304.519287 491.928894,306.449280 
	C491.761963,308.260376 492.512085,310.135712 494.749908,310.574097 
	C498.174622,311.244995 501.575714,312.086853 504.544952,309.083099 
	C506.219055,307.389618 508.356506,307.428467 509.641937,309.532410 
	C511.130920,311.969604 516.719727,311.549561 514.813293,315.997864 
	C513.091248,320.015747 509.225891,317.385071 506.366852,317.441162 
	C493.186432,317.699951 480.001343,317.719940 466.454010,317.729980 
z"/>
<path fill="#000000" opacity="1.000000" stroke="none" 
	d="
M408.368622,236.673859 
	C411.642273,235.499374 414.432251,235.724960 417.635498,236.231308 
	C426.842468,237.686768 436.643738,238.568359 445.336243,236.139572 
	C450.903168,234.584137 456.327179,236.359436 461.721527,234.169113 
	C464.410950,233.077103 468.352875,235.883743 470.193909,239.071320 
	C471.704895,241.687454 469.854431,244.556641 466.676422,244.441986 
	C455.546539,244.040405 444.381134,245.343506 433.293823,243.856216 
	C431.162811,243.570343 429.477356,244.730011 427.437744,244.546646 
	C413.345306,243.279678 399.222168,245.452133 385.154785,244.446167 
	C374.878082,243.711288 364.670013,245.048462 354.432373,244.517761 
	C353.767975,244.483292 352.879425,244.194183 352.470520,244.509796 
	C347.785553,248.125916 343.412811,245.621323 338.940063,243.753342 
	C337.224792,236.751617 337.644104,236.857162 345.007019,236.467407 
	C350.030762,236.201477 355.930481,237.611298 359.778717,231.995941 
	C361.135315,230.016373 363.613434,230.655380 364.056030,233.429916 
	C364.472870,236.043335 366.047943,236.727310 368.224426,236.733810 
	C377.532867,236.761612 386.925598,237.457214 396.112061,236.393372 
	C400.270172,235.911850 404.032654,233.479568 408.368622,236.673859 
z"/>
<path fill="#000000" opacity="1.000000" stroke="none" 
	d="
M357.615784,176.300812 
	C361.471161,171.691330 361.719910,171.671539 364.384247,176.326675 
	C365.469696,178.223190 367.225220,178.602829 369.049255,178.598984 
	C377.525391,178.581100 386.003357,178.525299 394.475342,178.290756 
	C396.054535,178.247040 397.701019,177.501984 399.153595,176.761215 
	C401.271271,175.681290 403.304932,175.478165 405.290192,176.775711 
	C407.663818,178.327148 409.899872,179.581116 412.307953,176.811630 
	C412.582550,176.495819 413.601135,176.560562 414.139771,176.780045 
	C424.432251,180.973923 435.179047,177.607101 445.650665,178.713989 
	C448.099121,178.972809 449.609924,175.608002 451.334747,176.197525 
	C456.861664,178.086502 463.115906,173.666351 468.245544,178.496735 
	C469.745300,179.908966 471.607910,180.806625 470.864441,183.247879 
	C470.133636,185.647476 468.463989,186.512619 465.924561,186.470947 
	C456.611115,186.318069 447.185364,187.192139 438.014099,186.019623 
	C430.598541,185.071594 423.408752,187.552872 415.793579,185.555267 
	C411.994934,184.558823 406.513000,185.890350 401.827179,186.404160 
	C395.320190,187.117661 388.725037,186.987946 382.453888,186.061935 
	C373.203766,184.696014 364.196747,187.556641 355.081390,186.270737 
	C351.928894,185.826004 349.295990,187.285248 347.089203,189.085968 
	C344.655426,188.545776 343.683197,185.946075 341.162964,186.138565 
	C338.372437,186.351700 337.231293,184.600662 337.304291,182.085266 
	C337.387421,179.220734 339.513702,178.361008 341.822815,178.681747 
	C347.243530,179.434647 352.263794,177.881897 357.615784,176.300812 
z"/>
<path fill="#000000" opacity="1.000000" stroke="none" 
	d="
M536.481873,236.918396 
	C538.725098,237.017593 540.057068,236.051300 541.409241,235.030060 
	C542.526245,234.186371 543.864075,233.741104 545.120117,234.659073 
	C550.583191,238.651749 555.323181,237.598511 559.135254,232.766891 
	C561.457886,232.494431 561.980652,234.224319 563.073547,235.143204 
	C564.414185,236.270355 566.174805,237.320282 567.542786,235.935104 
	C570.191833,233.252777 572.469849,234.052490 575.055359,235.820969 
	C576.770081,236.993835 578.847473,236.891876 580.852112,237.004639 
	C583.228943,237.138321 585.227539,237.957108 585.060852,240.822723 
	C584.901001,243.570480 582.979431,244.371262 580.544128,244.385880 
	C568.902649,244.455795 557.261292,244.560440 545.619751,244.588303 
	C531.994141,244.620911 518.368286,244.618271 504.742767,244.569992 
	C496.618347,244.541199 488.494324,244.334106 480.370178,244.338638 
	C477.856812,244.340042 476.313599,243.424271 475.455627,241.047974 
	C474.433105,238.215836 476.328827,236.605927 477.961243,235.042908 
	C479.593597,233.479950 481.468201,233.887268 483.491577,234.821579 
	C490.716827,238.157898 498.032440,238.229080 505.243591,234.717270 
	C506.501190,234.104828 507.923676,233.234268 508.944397,234.209091 
	C513.448181,238.510239 518.871094,236.859451 524.052002,236.870438 
	C528.049133,236.878906 532.046326,236.902634 536.481873,236.918396 
z"/>
<path fill="#000000" opacity="1.000000" stroke="none" 
	d="
M543.858582,176.193329 
	C548.583679,179.048111 552.969727,177.534439 557.652954,177.418472 
	C563.191711,177.281342 569.093323,175.422379 574.647156,177.482559 
	C576.556396,178.190781 578.387146,178.707306 580.418335,178.791687 
	C582.807190,178.890915 585.617798,179.244217 585.407776,182.360687 
	C585.196838,185.491531 582.835693,186.581573 579.670166,186.482758 
	C572.852722,186.269897 566.027039,186.277618 559.204712,186.273270 
	C534.578674,186.257599 509.952667,186.277924 485.326660,186.271484 
	C483.495453,186.270996 481.659485,186.056656 479.834167,186.135727 
	C477.121155,186.253296 476.113800,184.353256 475.069946,182.420212 
	C473.869934,180.198074 475.584045,179.090195 476.817596,177.773605 
	C478.455811,176.025101 480.606384,174.926682 482.603821,176.346039 
	C488.775635,180.731506 495.570770,177.792862 502.047180,178.331253 
	C502.958008,178.406967 504.017517,177.254120 504.933258,176.569672 
	C506.067047,175.722214 507.622253,174.884460 508.604462,175.710815 
	C515.522217,181.531021 523.693726,177.649109 531.194885,178.774765 
	C535.447388,179.412933 539.778137,178.870453 543.858582,176.193329 
z"/>
<path fill="#000000" opacity="1.000000" stroke="none" 
	d="
M680.936646,302.246185 
	C672.085083,302.832001 663.675232,301.474762 655.263733,302.343597 
	C653.198608,302.556885 650.888245,302.972992 649.217773,301.027161 
	C648.233459,299.880493 647.509094,300.524811 646.807251,301.332855 
	C645.934631,302.337494 644.771240,302.305664 643.596008,302.304230 
	C637.936584,302.297302 632.277161,302.298859 626.617737,302.306030 
	C624.558838,302.308655 622.979004,301.756927 622.956543,299.292267 
	C622.933594,296.777252 624.955994,296.790161 626.513062,295.696472 
	C631.327881,292.314423 635.400024,294.860992 640.039124,295.490662 
	C646.716614,296.397034 653.611328,295.718353 660.413147,295.682587 
	C661.813721,295.675232 663.003296,295.057465 663.864014,293.950653 
	C665.700928,291.588501 667.526306,291.378540 669.590881,293.722626 
	C670.805847,295.102020 672.250183,294.824341 673.604370,293.813812 
	C678.319519,290.295258 682.453430,292.698669 687.026306,294.978943 
	C687.576416,294.517609 688.429626,293.802124 689.620544,292.803467 
	C691.396484,295.795105 697.807556,295.305664 695.490540,301.239960 
	C693.332336,301.665436 694.031921,299.511078 692.548706,298.982697 
	C690.012878,303.493744 685.381592,301.717743 680.936646,302.246185 
z"/>
<path fill="#000000" opacity="1.000000" stroke="none" 
	d="
M612.479248,300.089417 
	C611.560852,301.926270 610.175354,302.417389 608.048279,302.402069 
	C591.469116,302.282471 574.888855,302.322693 558.308899,302.306030 
	C556.700623,302.304413 554.790283,302.829132 554.180298,300.587036 
	C553.671326,298.716339 553.910339,297.048828 555.643982,295.706329 
	C557.717834,294.100464 559.627258,292.282349 561.969543,290.240967 
	C564.189575,294.815674 566.689575,297.993591 571.562622,293.300751 
	C572.650940,292.252777 574.868164,292.518555 576.084106,293.979279 
	C578.208862,296.531860 579.803406,295.798187 581.740173,293.667328 
	C583.197266,292.064178 584.858398,291.738129 586.868896,293.606445 
	C590.401001,296.888672 598.481689,296.408752 602.161621,293.014801 
	C603.272888,291.989838 604.979614,291.415833 605.680054,292.485260 
	C607.898926,295.873199 610.275879,296.079773 613.584656,294.141327 
	C615.069336,293.271515 616.733154,294.396667 617.091614,295.956635 
	C617.639648,298.341736 616.641541,300.665802 614.757690,302.039185 
	C613.475037,302.974274 612.830139,301.463898 612.479248,300.089417 
z"/>
<path fill="#000000" opacity="1.000000" stroke="none" 
	d="
M402.213013,84.841171 
	C405.146606,85.408463 407.701141,85.848007 410.767700,86.375648 
	C409.137238,89.221207 410.235443,93.280807 406.308807,93.797791 
	C402.555664,94.291939 398.505371,94.540466 394.944031,91.464096 
	C393.062683,94.478271 389.535980,93.977440 386.393616,94.013863 
	C377.659760,94.115105 368.921082,93.949852 360.186523,93.777115 
	C356.364166,93.701515 356.440491,91.089020 356.534332,88.142853 
	C356.640778,84.800438 358.517212,83.010849 361.194336,84.018471 
	C368.393036,86.727936 375.597809,85.829498 382.788879,84.869331 
	C386.879608,84.323120 390.634521,84.117973 393.995636,87.263451 
	C396.321350,85.040565 398.430420,82.515381 402.213013,84.841171 
z"/>
<path fill="#000000" opacity="1.000000" stroke="none" 
	d="
M591.805786,142.361465 
	C584.355408,143.108856 577.241943,142.863037 570.194641,143.375809 
	C564.884460,143.762177 558.824036,142.996033 553.134644,142.371841 
	C550.841125,142.120224 550.326904,140.263763 550.560303,138.243118 
	C550.816772,136.021744 552.174072,135.214706 554.361877,135.228760 
	C566.411072,135.306244 578.464966,135.139938 590.507996,135.434769 
	C594.869141,135.541534 599.039917,134.442276 603.646484,135.143646 
	C608.268799,135.847412 610.059082,138.906525 614.476685,141.393860 
	C606.192200,143.149918 599.151855,141.882889 591.805786,142.361465 
z"/>
<path fill="#000000" opacity="1.000000" stroke="none" 
	d="
M363.253784,128.087769 
	C358.080170,126.895454 355.889801,123.983200 357.347656,120.546585 
	C358.260010,118.395927 359.788544,116.965057 362.429657,117.691330 
	C369.723511,119.697060 377.135864,117.815605 384.398407,118.363808 
	C389.645447,118.759888 394.982452,119.119682 400.202423,119.895378 
	C403.123047,120.329384 402.713623,123.362526 402.101288,125.723381 
	C401.481995,128.111084 399.746857,130.131012 397.473602,129.036758 
	C390.107849,125.491226 382.411743,129.036453 375.025848,127.450623 
	C371.180603,126.625000 367.474426,128.142120 363.253784,128.087769 
z"/>
<path fill="#000000" opacity="1.000000" stroke="none" 
	d="
M400.263458,163.605682 
	C403.009399,168.345901 401.855591,170.560486 397.196228,171.326538 
	C385.870636,173.188568 374.560303,169.843201 363.224365,171.418243 
	C361.145386,171.707077 358.329529,171.500458 357.407867,168.640808 
	C356.741364,166.572830 356.149872,164.148010 357.883057,162.511795 
	C359.840332,160.663956 362.401184,160.841888 364.841431,161.990341 
	C366.701691,162.865845 368.904022,163.323318 370.672119,162.687820 
	C376.403931,160.627686 380.951202,162.469833 385.181152,166.186798 
	C385.497711,166.464951 386.105408,166.411743 386.421234,166.479156 
	C387.745422,166.165207 387.917786,165.044220 388.491730,164.268433 
	C390.361847,161.740509 392.157135,159.424911 395.658264,162.379944 
	C396.658386,163.223999 398.485626,163.088089 400.263458,163.605682 
z"/>
<path fill="#000000" opacity="1.000000" stroke="none" 
	d="
M361.140869,229.851593 
	C356.665863,228.492523 356.732666,224.851486 357.444885,222.014130 
	C358.323761,218.512863 361.671143,219.760986 364.206879,220.219864 
	C367.597900,220.833481 370.745331,221.620773 374.381287,220.255432 
	C377.045715,219.254929 380.339172,220.566391 382.440186,222.931641 
	C383.882416,224.555237 385.391510,225.506607 387.807434,225.465103 
	C388.104950,225.008423 388.587646,224.531570 388.756317,223.961761 
	C389.401581,221.781815 390.847229,218.953079 392.746918,219.713760 
	C395.552399,220.837128 399.118591,220.481827 401.202545,223.160690 
	C402.175232,224.411102 402.098145,225.994125 401.339783,227.422897 
	C400.407867,229.178818 398.882477,229.531113 396.950745,230.009308 
	C388.664062,232.060638 380.614838,228.883240 372.440308,229.365402 
	C368.805176,229.579803 365.165985,229.725357 361.140869,229.851593 
z"/>
<path fill="#000000" opacity="1.000000" stroke="none" 
	d="
M416.239136,127.501907 
	C414.539551,127.463600 413.183350,127.304558 411.906464,127.552948 
	C409.762268,127.970039 407.853729,127.830429 406.654694,125.819229 
	C405.410797,123.732765 406.039703,121.653503 407.110565,119.673088 
	C408.268982,117.530678 409.979034,117.435059 412.200012,117.905663 
	C418.993469,119.345131 425.754425,119.848969 432.801178,118.927628 
	C438.177795,118.224648 443.830170,121.023148 449.134064,118.163986 
	C451.849548,120.544861 451.126923,123.205406 450.148468,125.653267 
	C449.209991,128.001068 447.004730,127.452751 444.978271,127.364395 
	C440.381073,127.163971 435.352631,129.435715 431.574829,124.780823 
	C431.368866,124.527069 430.114807,124.680229 429.780243,125.042549 
	C425.989349,129.147797 421.086853,127.195885 416.239136,127.501907 
z"/>
<path fill="#000000" opacity="1.000000" stroke="none" 
	d="
M377.135864,200.094818 
	C368.625000,199.876663 360.565918,203.231674 352.185516,200.996124 
	C348.778015,200.087158 344.952484,200.607101 341.323212,200.703888 
	C337.070099,200.817322 336.933136,198.108780 337.180328,195.066330 
	C337.462158,191.596771 339.928101,191.898666 342.323883,192.197479 
	C350.844879,193.260254 359.353149,194.303558 367.860016,191.984772 
	C369.103241,191.645889 370.496216,191.856659 371.819916,191.812775 
	C378.321991,191.597183 379.391052,193.128571 377.135864,200.094818 
z"/>
<path fill="#000000" opacity="1.000000" stroke="none" 
	d="
M341.042542,250.400024 
	C349.721344,252.823242 358.125519,252.145920 366.470764,250.576721 
	C369.134644,250.075806 371.746613,249.974640 374.391052,250.017624 
	C377.973541,250.075851 378.764191,252.443512 378.548553,255.471680 
	C378.333160,258.496399 376.437195,259.191193 373.733978,259.189087 
	C368.808197,259.185211 363.967346,259.523773 359.025970,260.394073 
	C354.795746,261.139130 350.180786,258.620209 345.487122,259.016205 
	C343.085693,259.218811 340.617462,258.629150 337.820312,258.363434 
	C338.358643,255.351593 334.914673,251.395691 341.042542,250.400024 
z"/>
<path fill="#000000" opacity="1.000000" stroke="none" 
	d="
M624.358521,178.493515 
	C627.689148,178.580688 630.241821,179.140884 630.183228,183.108185 
	C630.161072,184.611343 629.503235,186.172775 628.155518,186.089569 
	C624.104492,185.839447 620.525574,187.899734 616.126953,187.147400 
	C608.732239,185.882629 601.031982,186.307053 593.458069,186.225006 
	C589.162537,186.178467 588.577148,183.652786 588.916382,180.282867 
	C589.086609,178.592087 590.049561,177.046753 591.763794,177.639389 
	C597.678467,179.684143 603.715576,177.495361 609.651978,178.488098 
	C612.533569,178.969986 613.894409,182.465683 616.821655,181.934082 
	C619.612915,180.935608 619.259583,174.526703 624.358521,178.493515 
z"/>
<path fill="#000000" opacity="1.000000" stroke="none" 
	d="
M504.893005,134.857269 
	C506.309998,133.590866 507.796814,133.457916 508.963623,133.890182 
	C516.145630,136.550781 523.220520,133.941711 530.338684,133.877411 
	C534.621765,133.838745 538.961487,135.438644 543.420044,135.657990 
	C545.504395,135.760529 545.931274,138.142197 545.816589,140.026108 
	C545.687500,142.145935 544.020874,142.694443 542.245361,142.678238 
	C530.787476,142.573715 519.329163,142.468307 507.872986,142.254517 
	C502.140198,142.147552 503.866913,138.391876 504.893005,134.857269 
z"/>
<path fill="#000000" opacity="1.000000" stroke="none" 
	d="
M342.652527,135.901581 
	C349.275909,134.802948 355.955811,134.133438 362.618713,134.045364 
	C367.446564,133.981583 372.347321,134.727737 377.104767,135.671234 
	C380.352631,136.315338 379.492310,139.169937 378.885742,141.421616 
	C378.298462,143.601700 376.865143,145.192352 374.496643,144.232498 
	C365.720032,140.675766 356.553772,142.783325 347.583588,142.150711 
	C345.456512,142.000717 343.309204,142.161316 341.172485,142.117081 
	C339.402191,142.080444 338.453522,140.965012 338.094177,139.372070 
	C337.759735,137.889450 337.642731,136.310394 338.872284,135.158203 
	C340.219940,133.895264 341.551788,134.027557 342.652527,135.901581 
z"/>
<path fill="#000000" opacity="1.000000" stroke="none" 
	d="
M425.212402,138.520294 
	C425.032959,140.862686 424.468719,142.912338 422.130402,142.600159 
	C417.256989,141.949554 412.167877,143.569443 407.467102,141.182678 
	C406.913025,140.901352 406.015717,140.592026 405.604492,140.839355 
	C399.850586,144.300156 393.516602,141.344330 387.568329,142.539688 
	C385.556244,142.944016 383.837830,142.431824 383.650085,139.972916 
	C383.489380,137.868698 383.849731,135.890366 386.265320,135.221146 
	C388.013336,134.736832 389.971161,133.818420 391.571655,134.200027 
	C398.397888,135.827576 405.315857,133.975571 412.158569,135.109787 
	C414.830780,135.552734 417.814209,135.118484 420.472473,134.402634 
	C424.133972,133.416611 425.549377,134.482895 425.212402,138.520294 
z"/>
<path fill="#000000" opacity="1.000000" stroke="none" 
	d="
M675.893250,184.641388 
	C670.460938,187.442108 665.006104,186.035583 659.644043,185.767944 
	C658.160706,185.693909 656.718201,185.218811 655.261169,185.837906 
	C649.975586,188.083725 644.575806,186.152328 639.235962,186.213806 
	C634.842529,186.264389 635.442688,182.630478 635.617859,179.988571 
	C635.808411,177.115387 638.380920,176.335526 640.411438,177.458801 
	C644.539673,179.742477 648.915527,178.779968 653.132202,179.031754 
	C659.067139,179.386154 665.066895,179.146149 671.008789,178.729675 
	C675.465759,178.417282 676.773865,180.286179 675.893250,184.641388 
z"/>
<path fill="#000000" opacity="1.000000" stroke="none" 
	d="
M625.283569,237.124390 
	C628.964722,236.519363 630.285095,238.346344 630.301941,241.310257 
	C630.319702,244.440598 627.977356,244.056015 625.740112,244.418137 
	C614.852966,246.180359 603.995422,243.199066 593.119568,244.442719 
	C589.971130,244.802765 588.626343,242.857849 588.817017,239.788132 
	C588.992126,236.968201 590.400818,235.216095 593.280334,235.819046 
	C597.488403,236.700134 601.444641,237.579071 605.882263,236.158066 
	C607.689758,235.579285 610.672485,236.690155 612.740662,238.435303 
	C614.574951,239.983124 616.764893,241.109436 618.988098,242.544601 
	C619.288574,235.667679 620.583801,234.595810 625.283569,237.124390 
z"/>
<path fill="#000000" opacity="1.000000" stroke="none" 
	d="
M441.707001,89.496307 
	C444.095215,91.834152 447.589752,89.854256 449.663391,92.040146 
	C449.184875,94.211411 447.654358,93.934822 446.416107,93.927177 
	C437.953033,93.874908 429.479156,93.975945 421.033844,93.540474 
	C418.188354,93.393745 416.475922,95.198822 414.078674,96.062393 
	C411.058502,93.483131 411.652954,90.198875 412.623077,87.355614 
	C413.565887,84.592491 416.383270,85.576416 418.692017,85.448402 
	C422.804840,85.220360 426.913666,85.519051 431.060791,84.614189 
	C435.244659,83.701309 439.369263,84.562431 441.707001,89.496307 
z"/>
<path fill="#000000" opacity="1.000000" stroke="none" 
	d="
M665.650024,237.504944 
	C668.322266,237.400238 670.624207,237.363907 672.926270,237.336472 
	C675.376648,237.307281 675.979919,238.929306 676.099976,240.941055 
	C676.239380,243.279312 674.958557,244.444656 672.777100,244.257385 
	C668.037598,243.850464 663.156494,245.374115 658.535339,243.206787 
	C658.003418,242.957321 657.108337,242.874863 656.655701,243.156052 
	C650.964478,246.691620 644.893372,244.245285 638.995300,244.350540 
	C635.650208,244.410217 635.437500,242.238937 635.586792,239.604736 
	C635.729614,237.083969 636.607300,234.750473 639.293091,235.643707 
	C647.848999,238.489090 656.657776,236.542679 665.650024,237.504944 
z"/>
<path fill="#000000" opacity="1.000000" stroke="none" 
	d="
M381.422852,302.821899 
	C379.849243,302.625549 378.702728,302.415253 377.547577,302.341949 
	C371.761688,301.974579 370.466949,299.941132 372.881989,294.633698 
	C374.007660,292.159882 375.555298,291.089172 378.305695,293.136292 
	C382.857086,296.523865 389.093048,296.316833 393.494080,292.936218 
	C395.026031,291.759460 396.443726,291.510345 397.877960,292.989044 
	C398.334778,293.460022 398.636536,294.257172 399.171661,294.446838 
	C401.946472,295.430328 404.684174,296.364471 403.469604,300.236725 
	C402.234039,304.175995 398.997925,302.008545 396.694397,302.220154 
	C391.766571,302.672852 386.797882,302.680939 381.422852,302.821899 
z"/>
<path fill="#000000" opacity="1.000000" stroke="none" 
	d="
M370.234863,280.650879 
	C375.305817,279.912689 380.088409,280.782349 384.846741,279.515961 
	C388.215637,278.619415 389.223083,281.518158 387.845764,287.625732 
	C379.353149,287.881256 370.877075,289.078064 362.365234,288.143616 
	C360.472351,287.935822 358.117584,288.364655 357.391052,285.786804 
	C356.734894,283.458771 356.721466,280.988678 358.530304,279.227356 
	C360.249268,277.553497 362.153015,278.774261 364.063904,279.505280 
	C365.878693,280.199585 367.926575,280.284698 370.234863,280.650879 
z"/>
<path fill="#000000" opacity="1.000000" stroke="none" 
	d="
M285.975922,507.228607 
	C284.509094,507.263397 283.509277,507.186218 282.522034,507.265442 
	C275.480255,507.830688 274.891296,505.163086 277.245361,498.608246 
	C277.718292,497.291351 278.803162,495.963593 280.153748,496.322876 
	C286.042633,497.889587 292.404114,496.274994 298.082794,499.095398 
	C300.174957,500.134491 301.058746,501.732269 300.340240,503.963715 
	C299.572357,506.348663 298.114471,508.234436 295.321381,507.822571 
	C292.366699,507.386902 289.457001,506.727356 285.975922,507.228607 
z"/>
<path fill="#000000" opacity="1.000000" stroke="none" 
	d="
M381.094086,340.919006 
	C382.248016,342.397888 382.466705,341.257996 382.801483,340.583618 
	C383.681610,338.810333 385.087097,338.079193 386.876587,338.954102 
	C388.831696,339.910004 389.024292,341.733063 388.579834,343.672729 
	C388.161713,345.497589 387.154419,346.890289 385.149780,346.464844 
	C380.580505,345.495087 375.586670,345.213837 371.342682,345.353577 
	C367.187561,345.490387 362.942108,345.294128 358.580536,345.527954 
	C357.466125,342.866180 356.782776,339.890594 358.749329,338.041168 
	C360.115051,336.756775 362.959442,336.385712 365.132446,338.164276 
	C365.657471,338.594025 366.932526,338.742950 367.485077,338.404510 
	C372.592438,335.276337 374.463867,337.734253 375.138275,342.603027 
	C375.169678,342.829712 375.969513,342.949982 376.404266,343.117065 
	C378.809601,341.314453 375.604523,339.407410 376.850800,337.312256 
	C379.819550,336.131165 380.576813,338.148865 381.094086,340.919006 
z"/>
<path fill="#000000" opacity="1.000000" stroke="none" 
	d="
M411.076172,343.516052 
	C408.540771,345.859894 398.862457,347.385376 396.415741,345.748566 
	C393.876465,344.049866 394.422943,341.210266 394.902435,338.885040 
	C395.454010,336.210144 398.143707,336.530945 399.863190,337.137268 
	C404.730469,338.853455 409.287354,339.414154 414.295380,337.226196 
	C417.466034,335.840973 417.009827,339.571289 418.061401,341.566559 
	C420.153961,340.058350 421.567291,337.495178 424.743896,337.628601 
	C425.415771,340.521912 426.738831,344.232178 423.873169,345.669159 
	C421.144287,347.037537 417.032593,347.608673 414.430115,344.065887 
	C413.572784,342.898743 412.545380,342.866547 411.076172,343.516052 
z"/>
<path fill="#000000" opacity="1.000000" stroke="none" 
	d="
M346.727844,302.670166 
	C344.853241,302.554962 343.351959,302.527191 341.895416,302.257568 
	C340.409454,301.982513 338.214966,302.847137 337.792572,300.510193 
	C337.445831,298.591797 337.125671,296.384674 338.399078,294.746338 
	C339.796570,292.948517 341.594727,294.023254 343.355988,294.638458 
	C348.972687,296.600433 354.891785,295.979919 360.466553,295.135284 
	C364.833160,294.473755 366.512604,294.633026 365.660950,299.370117 
	C365.534454,300.073608 366.041138,300.890930 366.533264,302.651459 
	C359.716614,302.651459 353.418701,302.651459 346.727844,302.670166 
z"/>
<path fill="#000000" opacity="1.000000" stroke="none" 
	d="
M547.317383,295.411621 
	C549.475525,297.772278 546.760620,299.850098 548.065308,302.240509 
	C539.356689,302.240509 531.258301,302.266571 523.160339,302.218506 
	C521.540527,302.208893 519.643494,302.333191 519.317383,300.016541 
	C519.058228,298.175934 519.033325,296.214020 520.255798,294.762421 
	C521.559692,293.214203 523.137756,294.179535 524.786865,294.674805 
	C530.924744,296.518158 537.196167,296.045319 543.389221,294.942047 
	C544.758728,294.698059 545.892395,294.224762 547.317383,295.411621 
z"/>
<path fill="#000000" opacity="1.000000" stroke="none" 
	d="
M453.216614,136.991257 
	C455.037384,141.103210 453.696960,142.466446 449.703857,142.362854 
	C444.394226,142.225128 439.072601,142.413574 433.760071,142.583862 
	C431.200958,142.665909 429.532990,141.744629 429.142975,139.144333 
	C428.690765,136.129425 431.039917,136.085312 433.042175,135.131195 
	C438.108643,132.716904 443.345093,135.148087 448.431030,134.047302 
	C450.235931,133.656647 451.748840,135.304596 453.216614,136.991257 
z"/>
<path fill="#000000" opacity="1.000000" stroke="none" 
	d="
M350.560730,307.757019 
	C352.503601,310.466888 354.564606,311.542511 357.513977,309.958618 
	C359.683258,308.793671 361.834442,309.201233 362.019928,311.726105 
	C362.187164,314.002655 361.676422,317.213013 358.650726,317.459320 
	C352.556122,317.955322 346.411591,317.885376 340.286804,317.933380 
	C338.507812,317.947327 337.712463,316.709167 337.600983,314.981232 
	C337.503204,313.465698 337.545746,310.958984 338.937561,311.249390 
	C343.587738,312.219574 346.528351,308.911591 350.560730,307.757019 
z"/>
<path fill="#000000" opacity="1.000000" stroke="none" 
	d="
M558.621582,360.917786 
	C551.147400,361.885681 550.255066,360.997284 551.762878,353.583710 
	C554.570129,356.309235 560.426880,348.677826 561.330139,357.385620 
	C565.903076,351.811005 572.477661,357.165283 577.355652,353.544647 
	C578.954102,356.008392 578.128479,358.207275 578.085266,361.249176 
	C573.987305,356.813507 573.393799,366.069702 569.377441,362.328949 
	C566.391968,359.548431 562.322754,362.430359 558.621582,360.917786 
z"/>
<path fill="#000000" opacity="1.000000" stroke="none" 
	d="
M410.029846,229.641113 
	C405.554138,228.131348 406.919220,224.726624 407.357117,222.046097 
	C407.799713,219.336929 410.191956,219.458633 412.523285,219.660965 
	C415.307678,219.902634 418.149353,219.919022 420.931091,219.658325 
	C425.546326,219.225769 425.405945,221.927307 425.431305,225.288254 
	C425.458313,228.864136 424.380951,229.952835 420.764008,229.532364 
	C417.364655,229.137192 413.867493,229.583511 410.029846,229.641113 
z"/>
<path fill="#000000" opacity="1.000000" stroke="none" 
	d="
M464.391296,498.233704 
	C466.052490,496.170807 467.893646,495.936005 469.992523,496.467468 
	C473.195038,497.278351 476.402588,498.077271 479.630920,498.775574 
	C482.117065,499.313354 483.510071,500.679169 483.185059,503.275482 
	C482.837463,506.051941 481.400452,508.006531 478.342407,507.851074 
	C475.373993,507.700134 472.389435,507.417633 469.468201,506.884674 
	C464.025604,505.891693 463.137756,504.361023 464.391296,498.233704 
z"/>
<path fill="#000000" opacity="1.000000" stroke="none" 
	d="
M414.439209,171.031815 
	C407.717438,171.427261 406.844055,170.760254 406.867737,165.964523 
	C406.884155,162.639359 408.456970,160.999466 411.726257,161.040955 
	C415.187561,161.084900 418.674683,161.002136 422.101227,161.399506 
	C426.403473,161.898422 424.753906,165.741440 425.325562,168.184357 
	C425.958435,170.888870 423.731445,171.041946 421.854919,171.092407 
	C419.530212,171.154938 417.201660,171.072067 414.439209,171.031815 
z"/>
<path fill="#000000" opacity="1.000000" stroke="none" 
	d="
M407.453705,358.951294 
	C406.352112,358.591614 404.755127,359.286163 403.641083,360.417084 
	C402.108246,357.954407 400.052155,354.843506 403.747681,353.505798 
	C405.904694,352.724976 410.271606,351.164062 412.000092,355.900024 
	C416.594818,353.043701 421.984009,355.451996 426.838318,353.563202 
	C427.980011,353.118958 430.130188,354.695770 429.269470,356.368958 
	C428.392365,358.074066 429.830841,359.619263 428.728455,361.498016 
	C425.263885,359.203369 420.202789,364.335236 417.643677,358.498596 
	C412.526245,362.211395 409.430756,362.380188 407.453705,358.951294 
z"/>
<path fill="#000000" opacity="1.000000" stroke="none" 
	d="
M354.069397,356.893982 
	C355.650238,356.116791 356.340729,353.506256 358.829865,354.684540 
	C360.949463,355.687866 360.653381,357.818451 360.352203,359.494904 
	C359.919800,361.901550 357.795715,361.441315 355.945374,361.546600 
	C350.568787,361.852509 345.249054,361.456451 339.465088,360.394318 
	C339.103088,358.408081 338.671753,356.041290 338.252563,353.741180 
	C342.955414,349.772339 348.232635,357.598938 352.295837,352.417999 
	C354.222687,353.620697 353.315338,355.419067 354.069397,356.893982 
z"/>
<path fill="#000000" opacity="1.000000" stroke="none" 
	d="
M439.181213,362.005371 
	C436.927948,363.297577 435.545166,362.986786 435.618622,360.514191 
	C435.681213,358.408264 434.240540,355.225647 437.694489,354.745789 
	C443.713898,353.909515 449.872314,355.122864 455.929138,353.793701 
	C457.007538,353.557098 459.009125,354.749725 458.094727,356.262329 
	C457.083527,357.935150 458.676758,359.532104 457.651459,361.016357 
	C451.552521,361.283630 445.476624,360.649292 439.181213,362.005371 
z"/>
<path fill="#000000" opacity="1.000000" stroke="none" 
	d="
M642.760315,354.893921 
	C646.040039,353.988373 649.185059,355.238373 652.289795,354.699188 
	C653.697510,354.454681 654.915894,355.358429 655.083130,356.943207 
	C655.292664,358.928558 655.496460,361.019501 653.759033,362.514709 
	C652.545959,363.558624 651.506287,363.039398 650.246338,362.146912 
	C646.303772,359.354218 641.868103,361.644928 637.684631,361.467102 
	C634.090576,361.314331 633.053040,359.595490 632.341492,356.873627 
	C632.190186,356.295074 632.242126,355.465851 632.564392,355.008789 
	C633.011108,354.375214 633.802124,353.984436 634.445740,353.489716 
	C636.650696,357.133759 640.507568,349.905090 642.760315,354.893921 
z"/>
<path fill="#000000" opacity="1.000000" stroke="none" 
	d="
M395.366028,280.321594 
	C400.371033,277.844849 405.511047,278.512421 410.340027,279.212616 
	C413.223907,279.630768 412.857208,283.626343 412.914520,286.077911 
	C412.977722,288.780548 410.343933,288.331787 408.738037,287.884125 
	C406.671539,287.308075 404.841644,288.249390 402.855347,288.127899 
	C395.794373,287.696014 395.788239,287.796387 395.366028,280.321594 
z"/>
<path fill="#000000" opacity="1.000000" stroke="none" 
	d="
M339.515381,497.033752 
	C341.860535,497.861847 344.522064,497.864746 344.531647,500.816986 
	C344.539948,503.367584 342.400208,504.427002 340.541290,505.515228 
	C338.319092,506.816193 335.836853,507.041199 333.303101,507.078278 
	C329.957062,507.127228 327.803131,506.089539 327.986816,502.230560 
	C328.161804,498.554688 329.264404,496.021698 333.640228,496.570984 
	C335.452118,496.798401 337.289398,496.823242 339.515381,497.033752 
z"/>
<path fill="#000000" opacity="1.000000" stroke="none" 
	d="
M631.215820,361.210358 
	C624.853210,361.419464 618.788696,361.404114 612.725830,361.495056 
	C610.622864,361.526550 609.048340,360.973724 608.920105,358.645264 
	C608.786255,356.213745 610.073425,355.038452 612.541504,355.017487 
	C615.339722,354.993713 618.138000,354.863586 620.934143,354.733215 
	C623.963562,354.591949 627.080811,354.788086 629.872070,351.943268 
	C630.489075,355.444794 631.755371,358.068939 631.215820,361.210358 
z"/>
<path fill="#000000" opacity="1.000000" stroke="none" 
	d="
M528.952637,354.336090 
	C533.429138,353.187622 537.567810,354.583466 541.717590,354.502594 
	C544.234314,354.453522 545.286560,355.809631 545.205505,358.237976 
	C545.126282,360.609894 543.732483,361.525604 541.608582,361.214813 
	C536.712341,360.498291 531.797852,361.646454 526.825867,360.666107 
	C524.605835,360.228424 523.802673,359.536407 523.023315,357.807190 
	C522.367859,356.352936 522.694702,355.301910 523.737976,354.252655 
	C525.394348,352.586761 527.004089,353.164185 528.952637,354.336090 
z"/>
<path fill="#000000" opacity="1.000000" stroke="none" 
	d="
M316.366699,507.669861 
	C314.165192,507.633270 312.351135,507.490784 310.534485,507.401459 
	C307.321045,507.243500 305.053894,506.015961 304.838379,502.441772 
	C304.691071,499.999176 304.889404,497.484375 307.589813,496.626373 
	C310.901703,495.574158 314.221954,495.784790 316.707916,498.698151 
	C317.555145,499.691071 317.913147,501.121765 318.808502,502.049591 
	C322.087067,505.447052 320.448364,506.862122 316.366699,507.669861 
z"/>
<path fill="#000000" opacity="1.000000" stroke="none" 
	d="
M485.003662,135.368652 
	C488.840454,135.593445 492.381897,135.665894 495.650452,134.580917 
	C498.470734,133.644745 499.948486,134.470978 500.336273,137.039383 
	C500.723511,139.604187 500.274292,142.590836 496.994110,142.578751 
	C492.703613,142.562943 488.414825,142.417877 484.115662,142.557373 
	C482.541107,142.608459 481.183960,141.722382 481.047485,139.911774 
	C480.855286,137.362457 482.116852,135.849991 485.003662,135.368652 
z"/>
<path fill="#000000" opacity="1.000000" stroke="none" 
	d="
M348.727661,88.787445 
	C346.419006,93.603973 341.341034,93.350304 337.451813,96.885864 
	C336.275055,91.384827 336.404907,87.023117 337.126190,82.664627 
	C339.862854,82.359962 339.161835,84.917503 340.651428,85.595383 
	C340.941132,85.515472 341.447937,85.484741 341.827057,85.248871 
	C342.670227,84.724274 343.386353,83.967674 344.267426,83.537407 
	C346.349426,82.520645 348.850494,80.990585 350.725616,82.981178 
	C352.837006,85.222603 349.614594,86.633820 348.727661,88.787445 
z"/>
<path fill="#000000" opacity="1.000000" stroke="none" 
	d="
M476.379211,140.297913 
	C476.413940,142.145309 475.531281,142.550308 474.154694,142.518723 
	C469.862274,142.420135 465.568817,142.353394 461.275391,142.320404 
	C459.228638,142.304672 458.202972,141.277191 458.168945,139.301346 
	C458.134705,137.311935 458.885864,135.069519 460.989075,135.431854 
	C464.990997,136.121277 468.563263,133.592407 472.920349,135.090851 
	C476.180939,136.212204 476.800232,137.200394 476.379211,140.297913 
z"/>
<path fill="#000000" opacity="1.000000" stroke="none" 
	d="
M599.833984,354.835693 
	C602.500916,354.861877 603.614929,355.953186 603.313416,358.258911 
	C603.027161,360.448395 601.722290,361.339294 599.535767,361.239502 
	C596.436035,361.098022 593.329529,361.108643 590.228516,360.987915 
	C588.678406,360.927551 586.678162,361.673401 586.015869,359.477448 
	C585.492432,357.741730 585.154175,355.643860 586.296692,354.216766 
	C587.516785,352.692749 589.516541,353.001007 591.213562,353.870575 
	C593.846802,355.219879 596.699646,354.488403 599.833984,354.835693 
z"/>
<path fill="#000000" opacity="1.000000" stroke="none" 
	d="
M503.165771,360.891327 
	C500.419800,361.097778 498.756378,360.458771 498.940369,357.698395 
	C499.111176,355.136078 500.719177,354.410126 503.075043,354.548523 
	C506.718384,354.762482 510.370911,354.815704 514.015625,355.010742 
	C515.804810,355.106506 517.460449,355.673615 517.313965,357.880402 
	C517.187927,359.779327 515.903442,360.958527 514.022827,361.009094 
	C510.538208,361.102783 507.048004,360.986694 503.165771,360.891327 
z"/>
<path fill="#000000" opacity="1.000000" stroke="none" 
	d="
M343.113342,289.173645 
	C340.025238,287.316467 338.642792,281.099884 340.572906,278.798004 
	C342.361328,276.665070 344.703522,276.896271 346.895874,278.186096 
	C350.533020,280.325897 351.483826,283.771423 349.704651,286.987183 
	C348.234955,289.643494 345.778595,288.976807 343.113342,289.173645 
z"/>
<path fill="#000000" opacity="1.000000" stroke="none" 
	d="
M265.991241,194.253479 
	C270.420227,195.379959 270.462952,198.054062 268.977966,201.217239 
	C267.320679,204.747421 262.739563,207.153488 260.066162,205.937103 
	C258.032898,205.011963 257.711853,203.247940 258.188019,201.332428 
	C259.157013,197.434326 261.591858,194.984909 265.991241,194.253479 
z"/>
<path fill="#000000" opacity="1.000000" stroke="none" 
	d="
M456.997620,495.992493 
	C459.780884,498.332123 459.028900,500.603455 457.412384,502.744537 
	C455.577118,505.175262 453.346375,507.244232 450.022430,506.933411 
	C447.901306,506.735107 446.985870,505.193909 447.101898,503.066833 
	C447.365814,498.228363 451.466187,495.112305 456.997620,495.992493 
z"/>
<path fill="#000000" opacity="1.000000" stroke="none" 
	d="
M267.207336,504.229584 
	C264.717957,506.367493 262.369934,508.252808 259.459656,506.007080 
	C257.356201,504.383942 257.889801,502.131805 259.009155,500.137360 
	C260.625092,497.258118 262.752930,494.904541 266.473999,495.473022 
	C270.361176,496.066833 270.691895,499.145081 267.207336,504.229584 
z"/>
<path fill="#000000" opacity="1.000000" stroke="none" 
	d="
M383.670715,257.475647 
	C383.963318,250.948624 385.253632,249.735306 390.833282,249.915085 
	C394.034393,250.018234 395.673431,251.097321 395.386658,254.710007 
	C395.108490,258.214386 394.160461,260.130280 390.265503,258.783569 
	C388.186188,258.064636 385.650909,260.300751 383.670715,257.475647 
z"/>
<path fill="#000000" opacity="1.000000" stroke="none" 
	d="
M516.900391,503.857971 
	C515.254822,505.802826 513.239380,506.022522 511.295624,506.464325 
	C508.586578,507.080109 506.548279,506.383057 506.098572,503.448608 
	C505.665985,500.626068 506.205566,498.106689 509.570343,497.251984 
	C515.034851,495.863861 518.220459,498.501953 516.900391,503.857971 
z"/>
<path fill="#000000" opacity="1.000000" stroke="none" 
	d="
M344.158966,218.739883 
	C348.357544,219.405563 350.840179,221.637085 350.460999,225.621185 
	C350.104675,229.364624 347.521973,230.862686 343.742310,230.248856 
	C342.168121,229.993225 340.400177,229.645660 340.694061,227.786682 
	C341.189209,224.654678 339.150452,220.513168 344.158966,218.739883 
z"/>
<path fill="#000000" opacity="1.000000" stroke="none" 
	d="
M340.700592,169.541534 
	C341.066376,168.089005 341.497894,166.994324 341.608398,165.868164 
	C341.832825,163.581009 341.448944,160.825623 344.529449,160.340302 
	C347.725677,159.836731 349.327454,162.403412 350.405121,164.764099 
	C351.663605,167.520813 350.198578,170.542297 348.032745,171.552139 
	C345.858673,172.565826 342.227264,174.085999 340.700592,169.541534 
z"/>
<path fill="#000000" opacity="1.000000" stroke="none" 
	d="
M345.736633,336.413879 
	C348.598297,337.869781 351.498413,339.314117 350.292450,343.037292 
	C348.893738,347.355743 345.498657,347.865082 341.425964,347.123383 
	C340.023224,342.418732 342.971222,339.521210 345.736633,336.413879 
z"/>
<path fill="#000000" opacity="1.000000" stroke="none" 
	d="
M467.296265,354.783997 
	C469.495972,354.686615 471.298767,354.576477 473.099731,354.600891 
	C475.284210,354.630463 476.407288,355.938660 476.564240,357.999939 
	C476.734772,360.238953 475.293610,360.687164 473.390839,360.697601 
	C471.923218,360.705627 470.455780,360.976654 468.990570,361.150085 
	C467.043152,361.380615 465.290405,361.112305 464.597626,358.968872 
	C463.914734,356.856110 464.832733,355.488861 467.296265,354.783997 
z"/>
<path fill="#000000" opacity="1.000000" stroke="none" 
	d="
M492.015747,360.640045 
	C489.957123,362.402832 482.684235,361.354889 482.054169,359.415253 
	C481.283417,357.042450 481.856720,354.935333 484.756195,354.829437 
	C487.342163,354.734985 489.948761,355.205597 492.343811,355.409576 
	C493.787140,357.349243 492.612427,358.803284 492.015747,360.640045 
z"/>
<path fill="#000000" opacity="1.000000" stroke="none" 
	d="
M372.518677,361.231384 
	C370.647766,361.300415 369.144440,361.648560 367.445496,360.649231 
	C368.064819,358.051422 365.647217,354.659637 369.382782,352.693878 
	C371.563507,353.245331 370.724457,355.339630 371.627899,356.474152 
	C373.348969,355.829102 374.886322,354.049347 376.693726,355.658844 
	C377.862579,356.699646 378.329315,358.281158 377.702423,359.763947 
	C376.752716,362.010132 374.675018,361.248749 372.518677,361.231384 
z"/>
<path fill="#000000" opacity="1.000000" stroke="none" 
	d="
M488.080505,503.611816 
	C488.039276,501.003296 488.238434,498.831329 490.670044,497.809570 
	C491.841675,497.317261 493.054199,497.504639 493.866943,498.495850 
	C495.506561,500.495605 496.111908,502.988342 496.059479,505.443573 
	C496.026917,506.968018 494.203522,507.110596 492.892578,507.311005 
	C490.273041,507.711456 488.816833,506.388824 488.080505,503.611816 
z"/>
<path fill="#000000" opacity="1.000000" stroke="none" 
	d="
M347.929016,126.793633 
	C344.972046,121.160583 344.972046,121.160583 345.960388,117.902893 
	C350.651489,120.214134 350.963745,121.461067 347.929016,126.793633 
z"/>
<path fill="#000000" opacity="1.000000" stroke="none" 
	d="
M413.117279,300.796692 
	C412.193207,302.417358 410.942566,302.671143 410.413635,301.258850 
	C409.614105,299.123932 409.548004,296.743622 410.501801,294.572693 
	C410.851959,293.775696 411.905823,293.753418 412.693665,294.122040 
	C414.235168,294.843201 414.862885,296.105286 414.376007,297.755585 
	C414.099854,298.691528 413.614532,299.565704 413.117279,300.796692 
z"/>
<path fill="#000000" opacity="1.000000" stroke="none" 
	d="
M395.081360,357.190460 
	C394.044067,359.435333 394.277740,362.107880 391.814209,363.004944 
	C389.896729,362.104523 390.750793,360.633026 390.580933,359.443420 
	C390.422546,358.334106 390.183289,357.236359 389.914673,355.781647 
	C391.922760,355.608307 393.922058,353.504517 395.081360,357.190460 
z"/>
<path fill="#000000" opacity="1.000000" stroke="none" 
	d="
M686.127319,179.946686 
	C688.338623,181.958939 687.448181,183.485107 685.622742,184.426819 
	C683.829529,185.351913 682.487732,183.625534 682.366699,182.445999 
	C682.150269,180.337204 683.630188,179.288208 686.127319,179.946686 
z"/>
<path fill="#000000" opacity="1.000000" stroke="none" 
	d="
M367.544220,469.787781 
	C365.283081,470.209076 363.353577,470.208832 361.312927,469.522278 
	C364.968658,466.701874 367.177399,466.807617 367.544220,469.787781 
z"/>
</svg>